%TF.GenerationSoftware,KiCad,Pcbnew,10.0.3*%
%TF.CreationDate,2026-07-21T15:32:11-07:00*%
%TF.ProjectId,Hack_Pad_Gallagher,4861636b-5f50-4616-945f-47616c6c6167,rev?*%
%TF.SameCoordinates,Original*%
%TF.FileFunction,Legend,Top*%
%TF.FilePolarity,Positive*%
%FSLAX46Y46*%
G04 Gerber Fmt 4.6, Leading zero omitted, Abs format (unit mm)*
G04 Created by KiCad (PCBNEW 10.0.3) date 2026-07-21 15:32:11*
%MOMM*%
%LPD*%
G01*
G04 APERTURE LIST*
%ADD10C,0.800000*%
%ADD11C,0.150000*%
%ADD12C,0.120000*%
%ADD13C,0.000000*%
G04 APERTURE END LIST*
D10*
G36*
X89256702Y-49165553D02*
G01*
X89645164Y-49318845D01*
X90028040Y-49409054D01*
X90408080Y-49438827D01*
X90691142Y-49424905D01*
X91201381Y-49370439D01*
X91716046Y-49316478D01*
X92031074Y-49302051D01*
X92413733Y-49332983D01*
X92721107Y-49417953D01*
X92966870Y-49548254D01*
X93162163Y-49719706D01*
X93305538Y-49915346D01*
X93407647Y-50139367D01*
X93470603Y-50397399D01*
X93492623Y-50697594D01*
X93478511Y-50950234D01*
X93434719Y-51218216D01*
X93358290Y-51504511D01*
X93205102Y-51905926D01*
X93033364Y-52226414D01*
X92844149Y-52477669D01*
X92636738Y-52668562D01*
X92408631Y-52804694D01*
X92155718Y-52888048D01*
X91872561Y-52916845D01*
X91595564Y-52889637D01*
X91335094Y-52809230D01*
X91087564Y-52675350D01*
X90881159Y-52511214D01*
X90614466Y-52246704D01*
X90758942Y-52932183D01*
X90976235Y-53673445D01*
X91275143Y-54477252D01*
X88968025Y-55087554D01*
X88938471Y-54808811D01*
X88956749Y-54650803D01*
X88995868Y-54597847D01*
X89285052Y-54485190D01*
X89401470Y-54404619D01*
X89464052Y-54305799D01*
X89484842Y-54183244D01*
X89482156Y-54119436D01*
X89358412Y-52687054D01*
X89323642Y-51702042D01*
X89338175Y-51136620D01*
X90202916Y-51136620D01*
X90231123Y-51226415D01*
X90339658Y-51327035D01*
X90593461Y-51442840D01*
X90961285Y-51536851D01*
X91348171Y-51568625D01*
X91693933Y-51544586D01*
X92027396Y-51473188D01*
X92350788Y-51354607D01*
X92609416Y-51214702D01*
X92757079Y-51088071D01*
X92829720Y-50973397D01*
X92851242Y-50864289D01*
X92834486Y-50755812D01*
X92782357Y-50655275D01*
X92685162Y-50558262D01*
X92525666Y-50464952D01*
X92310001Y-50388374D01*
X92033726Y-50337057D01*
X91684249Y-50318101D01*
X91305914Y-50349715D01*
X90961780Y-50441532D01*
X90646706Y-50591043D01*
X90423376Y-50745673D01*
X90291197Y-50885669D01*
X90223527Y-51013832D01*
X90202916Y-51136620D01*
X89338175Y-51136620D01*
X89340066Y-51063068D01*
X89388626Y-50447791D01*
X89468478Y-49854345D01*
X89302929Y-49909654D01*
X89148276Y-49927313D01*
X88960256Y-49898604D01*
X88809755Y-49817709D01*
X88860069Y-48944846D01*
X89256702Y-49165553D01*
G37*
G36*
X98096333Y-50363496D02*
G01*
X98109057Y-50580662D01*
X98097259Y-50741543D01*
X98072665Y-50805366D01*
X97806512Y-50942054D01*
X97699717Y-51036955D01*
X97674794Y-51104258D01*
X97674794Y-51111280D01*
X97682854Y-51466348D01*
X97691158Y-51838818D01*
X97675366Y-52402422D01*
X97631266Y-52881301D01*
X97563215Y-53286046D01*
X97474759Y-53626371D01*
X97652156Y-53536092D01*
X97888262Y-53503028D01*
X98018114Y-53513131D01*
X98138855Y-53542718D01*
X98217501Y-54505340D01*
X98118504Y-54441883D01*
X97979976Y-54398698D01*
X97789832Y-54382302D01*
X97432040Y-54415039D01*
X97002149Y-54522742D01*
X96589235Y-54686371D01*
X96300195Y-54861324D01*
X96381021Y-54323479D01*
X96399357Y-54088906D01*
X96392274Y-54044637D01*
X96360034Y-54070282D01*
X96120957Y-54282211D01*
X95860064Y-54448615D01*
X95574451Y-54570496D01*
X95260453Y-54647001D01*
X94967700Y-54684062D01*
X94745833Y-54694933D01*
X94425796Y-54669217D01*
X94178561Y-54599803D01*
X93989559Y-54495407D01*
X93847020Y-54360321D01*
X93745303Y-54201882D01*
X93668868Y-54002286D01*
X93619321Y-53752308D01*
X93601311Y-53440136D01*
X93612959Y-53110700D01*
X93628778Y-52950123D01*
X94322072Y-52950123D01*
X94348017Y-53048378D01*
X94439917Y-53145959D01*
X94641542Y-53245352D01*
X94947285Y-53319455D01*
X95333482Y-53346713D01*
X95631352Y-53317098D01*
X95923165Y-53228051D01*
X96212267Y-53077130D01*
X96416523Y-52923940D01*
X96535548Y-52793703D01*
X96595003Y-52681777D01*
X96612581Y-52581317D01*
X96594002Y-52506993D01*
X96528901Y-52432017D01*
X96388367Y-52353560D01*
X96127259Y-52280690D01*
X95756999Y-52252505D01*
X95420974Y-52278856D01*
X95094866Y-52357447D01*
X94776120Y-52488810D01*
X94539792Y-52630874D01*
X94405832Y-52752212D01*
X94340896Y-52856342D01*
X94322072Y-52950123D01*
X93628778Y-52950123D01*
X93650404Y-52730610D01*
X93718944Y-52349965D01*
X93815792Y-52014872D01*
X93939434Y-51719811D01*
X94089553Y-51460242D01*
X94263557Y-51243715D01*
X94452049Y-51078970D01*
X94657138Y-50961564D01*
X94882116Y-50889874D01*
X95131249Y-50865205D01*
X95392672Y-50893650D01*
X95652460Y-50979890D01*
X95914090Y-51127727D01*
X96180519Y-51344052D01*
X96454068Y-51638539D01*
X96438689Y-51474455D01*
X96377864Y-51183332D01*
X96282881Y-50870344D01*
X96181249Y-50633175D01*
X97096396Y-50439649D01*
X97694005Y-50275695D01*
X98057278Y-50139193D01*
X98096333Y-50363496D01*
G37*
G36*
X102502742Y-53016069D02*
G01*
X102472298Y-53240306D01*
X102362302Y-53552182D01*
X102235681Y-53780106D01*
X102068002Y-53983783D01*
X101853228Y-54164568D01*
X101582993Y-54321353D01*
X101246986Y-54450688D01*
X100833268Y-54547033D01*
X100328492Y-54603037D01*
X100054696Y-54616775D01*
X99726625Y-54595505D01*
X99468978Y-54537928D01*
X99268951Y-54451671D01*
X99115582Y-54341697D01*
X98961542Y-54155741D01*
X98846419Y-53908802D01*
X98771277Y-53585774D01*
X98743600Y-53165668D01*
X98765531Y-52739070D01*
X98836059Y-52249493D01*
X98963492Y-51687154D01*
X99157592Y-51041671D01*
X98785821Y-51089798D01*
X98252916Y-51216610D01*
X98220688Y-51208654D01*
X98200160Y-51165013D01*
X98194298Y-50973893D01*
X98215582Y-50534790D01*
X98271235Y-50217046D01*
X98511484Y-50318023D01*
X98808446Y-50392529D01*
X99172491Y-50434727D01*
X99152134Y-50163615D01*
X99101905Y-49830226D01*
X99038646Y-49489202D01*
X99049881Y-49445849D01*
X99076503Y-49438827D01*
X99925736Y-49369218D01*
X100939099Y-49243433D01*
X101007976Y-49251065D01*
X100804521Y-49687344D01*
X100588380Y-50157477D01*
X100451835Y-50513496D01*
X100625980Y-50513496D01*
X101127937Y-50493616D01*
X101301783Y-50463623D01*
X101336238Y-50439002D01*
X101355778Y-50296120D01*
X101335316Y-50161835D01*
X101270044Y-50027393D01*
X101146706Y-49887013D01*
X101503257Y-49658547D01*
X101718283Y-49550147D01*
X101837669Y-49516680D01*
X101877575Y-49647676D01*
X101893356Y-49852208D01*
X101883831Y-50120570D01*
X101874305Y-50367561D01*
X101892747Y-50580658D01*
X101964187Y-50943058D01*
X102061520Y-51310176D01*
X102158360Y-51592744D01*
X101921444Y-51725856D01*
X101749061Y-51803204D01*
X101650579Y-51822637D01*
X101600604Y-51814423D01*
X101571933Y-51793939D01*
X101533565Y-51727309D01*
X101419525Y-51426964D01*
X101332152Y-51235308D01*
X101251742Y-51139244D01*
X101174794Y-51106395D01*
X100319944Y-51099678D01*
X100279741Y-51212389D01*
X100191228Y-51748754D01*
X100118332Y-52412254D01*
X100095484Y-52997140D01*
X100114689Y-53454557D01*
X100163840Y-53769636D01*
X100232720Y-53977978D01*
X100315298Y-54108563D01*
X100410951Y-54181770D01*
X100524863Y-54206448D01*
X100757169Y-54171698D01*
X101040460Y-54055322D01*
X101231291Y-53936781D01*
X101309699Y-53856293D01*
X101328422Y-53800394D01*
X101305952Y-53756430D01*
X101116514Y-53679969D01*
X100750788Y-53487763D01*
X100584143Y-53331343D01*
X100472011Y-53157568D01*
X100405827Y-52963104D01*
X100383203Y-52740685D01*
X100403693Y-52606298D01*
X100466237Y-52487437D01*
X100581039Y-52378595D01*
X100725668Y-52302204D01*
X100912172Y-52251622D01*
X101150614Y-52232965D01*
X101424520Y-52253586D01*
X101759023Y-52321809D01*
X102071743Y-52433734D01*
X102278936Y-52561882D01*
X102408114Y-52700470D01*
X102479324Y-52849648D01*
X102502742Y-53016069D01*
G37*
G36*
X106980202Y-52074207D02*
G01*
X106957906Y-52238625D01*
X106890033Y-52388188D01*
X106767458Y-52529195D01*
X106572349Y-52662529D01*
X106280202Y-52784038D01*
X105885183Y-52885731D01*
X105551625Y-52916845D01*
X105296920Y-52892871D01*
X105131106Y-52832449D01*
X105028328Y-52747373D01*
X104970592Y-52640346D01*
X104950788Y-52504075D01*
X104969949Y-52282640D01*
X105026361Y-52081516D01*
X105121303Y-51895483D01*
X105259755Y-51721277D01*
X105431443Y-51571876D01*
X105636611Y-51448907D01*
X105880621Y-51353996D01*
X105900350Y-51338833D01*
X105907243Y-51307590D01*
X105882723Y-51245182D01*
X105775108Y-51155244D01*
X105612474Y-51085268D01*
X105417780Y-51060600D01*
X105178370Y-51089949D01*
X104964018Y-51175506D01*
X104769316Y-51317360D01*
X104619191Y-51491811D01*
X104513330Y-51695196D01*
X104448255Y-51933211D01*
X104425422Y-52214952D01*
X104446094Y-52537102D01*
X104520755Y-53011888D01*
X104671130Y-53685600D01*
X104727297Y-53749871D01*
X104949567Y-53835504D01*
X105259373Y-53900084D01*
X105689623Y-53953351D01*
X105593391Y-54487021D01*
X105272944Y-54480000D01*
X104647267Y-54504461D01*
X104024913Y-54577801D01*
X103404725Y-54700228D01*
X102785575Y-54872315D01*
X102712856Y-54685038D01*
X102644891Y-54374364D01*
X102649868Y-54334702D01*
X102679574Y-54306587D01*
X103013942Y-54128290D01*
X103124455Y-54021211D01*
X103160976Y-53909387D01*
X103232051Y-53198640D01*
X103281564Y-52550919D01*
X103295066Y-52135879D01*
X103282935Y-51860554D01*
X103256107Y-51725590D01*
X103224480Y-51671207D01*
X103123209Y-51611344D01*
X102966803Y-51588164D01*
X102744298Y-51622358D01*
X102701766Y-51620982D01*
X102691297Y-51598850D01*
X102657103Y-51228211D01*
X102622909Y-50870090D01*
X102636031Y-50830006D01*
X102679085Y-50826432D01*
X102912064Y-50884877D01*
X103147055Y-50904284D01*
X103424544Y-50873944D01*
X103717138Y-50779604D01*
X104029304Y-50613742D01*
X104365338Y-50365729D01*
X104275945Y-51063347D01*
X104496975Y-50857753D01*
X104764669Y-50704888D01*
X105088521Y-50607159D01*
X105480551Y-50572114D01*
X105840014Y-50604446D01*
X106136953Y-50694638D01*
X106382380Y-50835770D01*
X106584978Y-51025669D01*
X106750501Y-51267081D01*
X106881284Y-51567404D01*
X106958390Y-51859947D01*
X106980202Y-52074207D01*
G37*
G36*
X109719630Y-49713600D02*
G01*
X109700758Y-49810265D01*
X109638193Y-49907087D01*
X109512434Y-50008833D01*
X109293182Y-50114769D01*
X108912639Y-50222734D01*
X108504033Y-50259483D01*
X108247132Y-50236886D01*
X108036329Y-50174098D01*
X107863384Y-50076301D01*
X107733217Y-49952945D01*
X107644311Y-49811195D01*
X107590973Y-49647756D01*
X107572491Y-49455924D01*
X107591863Y-49316881D01*
X107649386Y-49199999D01*
X107752141Y-49098960D01*
X107916295Y-49014593D01*
X108164785Y-48954350D01*
X108525771Y-48930802D01*
X108872456Y-48960924D01*
X109159033Y-49044867D01*
X109396008Y-49175961D01*
X109549977Y-49308651D01*
X109647782Y-49440725D01*
X109702013Y-49574126D01*
X109719630Y-49713600D01*
G37*
G36*
X109741612Y-54559989D02*
G01*
X109169399Y-54471357D01*
X108553126Y-54440921D01*
X108147747Y-54462160D01*
X107592908Y-54535730D01*
X106854417Y-54677836D01*
X106950648Y-54070587D01*
X107242041Y-54002690D01*
X107420588Y-53914260D01*
X107521444Y-53814438D01*
X107593856Y-53675259D01*
X107668320Y-53447316D01*
X107742240Y-53097890D01*
X107808011Y-52600916D01*
X107829434Y-52123972D01*
X107804545Y-51891325D01*
X107740163Y-51745065D01*
X107639640Y-51658797D01*
X107490181Y-51627243D01*
X107278178Y-51659911D01*
X107154564Y-51256389D01*
X107124549Y-51041060D01*
X107687203Y-51006786D01*
X108223349Y-50916088D01*
X108735638Y-50770557D01*
X109226503Y-50570893D01*
X109244089Y-50640197D01*
X109216734Y-50915886D01*
X109113952Y-51730877D01*
X109058546Y-52395611D01*
X109041856Y-52931195D01*
X109057884Y-53306051D01*
X109096447Y-53530802D01*
X109146636Y-53654459D01*
X109221971Y-53730613D01*
X109326399Y-53757041D01*
X109464005Y-53734905D01*
X109634877Y-53659954D01*
X109680205Y-53660893D01*
X109703021Y-53725289D01*
X109726238Y-54050379D01*
X109741612Y-54559989D01*
G37*
G36*
X113803859Y-52025969D02*
G01*
X113779317Y-52259455D01*
X113710051Y-52444547D01*
X113595409Y-52593176D01*
X113425548Y-52709452D01*
X113183079Y-52788865D01*
X112844961Y-52819148D01*
X112530274Y-52792996D01*
X112269828Y-52720158D01*
X112054347Y-52606657D01*
X111877883Y-52451115D01*
X111786444Y-52295116D01*
X111757836Y-52131605D01*
X111779668Y-51930844D01*
X111843931Y-51754577D01*
X111954072Y-51595957D01*
X112120048Y-51452304D01*
X112337102Y-51335482D01*
X112587576Y-51262233D01*
X112877934Y-51236454D01*
X112897473Y-51232180D01*
X112868708Y-51191626D01*
X112700614Y-51103647D01*
X112463446Y-51027396D01*
X112219455Y-51001981D01*
X111901718Y-51032502D01*
X111655303Y-51115473D01*
X111465385Y-51242249D01*
X111320822Y-51410492D01*
X111215223Y-51624463D01*
X111147755Y-51894422D01*
X111123293Y-52235408D01*
X111139658Y-52549260D01*
X111197522Y-53001652D01*
X111268583Y-53334475D01*
X111348129Y-53572204D01*
X111432993Y-53735975D01*
X111549044Y-53864469D01*
X111695899Y-53943635D01*
X111883133Y-53971974D01*
X112185965Y-53946423D01*
X112472680Y-53870923D01*
X112746287Y-53745744D01*
X112975729Y-53595372D01*
X113165970Y-53423517D01*
X113321723Y-53230392D01*
X113356161Y-53258785D01*
X113261419Y-53638481D01*
X113138097Y-53951705D01*
X112988085Y-54208277D01*
X112811082Y-54415578D01*
X112604609Y-54578138D01*
X112364193Y-54697328D01*
X112083656Y-54771259D01*
X111827476Y-54801858D01*
X111563663Y-54812170D01*
X111154159Y-54781127D01*
X110817023Y-54695009D01*
X110540281Y-54561824D01*
X110313922Y-54385875D01*
X110130377Y-54167444D01*
X109985031Y-53902776D01*
X109876596Y-53584402D01*
X109807236Y-53201715D01*
X109782400Y-52741601D01*
X109803005Y-52330004D01*
X109860687Y-51984666D01*
X109950865Y-51695021D01*
X110071308Y-51452286D01*
X110222281Y-51249888D01*
X110435406Y-51061330D01*
X110718641Y-50899051D01*
X111088137Y-50768215D01*
X111562930Y-50677444D01*
X112000858Y-50650272D01*
X112391737Y-50674268D01*
X112731516Y-50742233D01*
X113026786Y-50849287D01*
X113283377Y-50992212D01*
X113502428Y-51168616D01*
X113650556Y-51347012D01*
X113742466Y-51528665D01*
X113787494Y-51717918D01*
X113803859Y-52025969D01*
G37*
G36*
X118489902Y-51576563D02*
G01*
X118465640Y-51776730D01*
X118394172Y-51948564D01*
X118269946Y-52100122D01*
X118078416Y-52233060D01*
X117797962Y-52342569D01*
X117503906Y-52407981D01*
X117246950Y-52428360D01*
X116961294Y-52401335D01*
X116775170Y-52333184D01*
X116659656Y-52237128D01*
X116594667Y-52116117D01*
X116572351Y-51961856D01*
X116589805Y-51795992D01*
X116642430Y-51640189D01*
X116734167Y-51489904D01*
X116873258Y-51342700D01*
X116985259Y-51256048D01*
X117142903Y-51166235D01*
X117415722Y-51022437D01*
X117462392Y-50982205D01*
X117474096Y-50947943D01*
X117447037Y-50906812D01*
X117312407Y-50884745D01*
X117073782Y-50922297D01*
X116850147Y-51011455D01*
X116632383Y-51161780D01*
X116417507Y-51380930D01*
X116203789Y-51680366D01*
X116040131Y-51972314D01*
X115921969Y-52237658D01*
X115842798Y-52479956D01*
X116020118Y-52467438D01*
X116425980Y-52500760D01*
X116820748Y-52600301D01*
X117207739Y-52767114D01*
X117589867Y-53004467D01*
X117870323Y-53233735D01*
X118087649Y-53470203D01*
X118250957Y-53714026D01*
X118367227Y-53966856D01*
X118440981Y-54231808D01*
X118474026Y-54513278D01*
X116479295Y-54499539D01*
X116461524Y-54417118D01*
X116454870Y-54306892D01*
X116473764Y-54176437D01*
X116517885Y-54128595D01*
X116789972Y-54019296D01*
X116900386Y-53926222D01*
X116930411Y-53829092D01*
X116914535Y-53746660D01*
X116838712Y-53574277D01*
X116727818Y-53421254D01*
X116576182Y-53285686D01*
X116375247Y-53168415D01*
X116158001Y-53083994D01*
X115924731Y-53032259D01*
X115673049Y-53014542D01*
X115582435Y-53014542D01*
X115615688Y-53239400D01*
X115781493Y-53887100D01*
X115953118Y-54472736D01*
X116067013Y-54803621D01*
X115680808Y-54606009D01*
X115220223Y-54435730D01*
X114741605Y-54318788D01*
X114375143Y-54284605D01*
X114174822Y-54303531D01*
X114040726Y-54351731D01*
X113954312Y-54420465D01*
X113971409Y-53586376D01*
X114069320Y-53553728D01*
X114186587Y-53542107D01*
X114390069Y-53572349D01*
X114596182Y-53665755D01*
X114489255Y-53230981D01*
X114384532Y-52650243D01*
X114285261Y-51893162D01*
X114195090Y-50884921D01*
X114167780Y-50061341D01*
X114170467Y-49968834D01*
X114173398Y-49849766D01*
X114158894Y-49763519D01*
X114113391Y-49684206D01*
X114027096Y-49608271D01*
X113870982Y-49533585D01*
X113675143Y-49497445D01*
X113654734Y-49476260D01*
X113634501Y-49378085D01*
X113624096Y-49107267D01*
X114762690Y-49012197D01*
X115909232Y-48870352D01*
X115694586Y-49633739D01*
X115545584Y-50370990D01*
X115458207Y-51085911D01*
X115429539Y-51782337D01*
X115452254Y-52344706D01*
X115596599Y-51889497D01*
X115775875Y-51487719D01*
X115988956Y-51134046D01*
X116214545Y-50859863D01*
X116453593Y-50655088D01*
X116708588Y-50512969D01*
X116983412Y-50430453D01*
X117326329Y-50396259D01*
X117628721Y-50429874D01*
X117875167Y-50523723D01*
X118076887Y-50672254D01*
X118243101Y-50877961D01*
X118406859Y-51195544D01*
X118470307Y-51396511D01*
X118489902Y-51576563D01*
G37*
G36*
X93263279Y-59113775D02*
G01*
X93238855Y-59346099D01*
X93171589Y-59518977D01*
X93062512Y-59647445D01*
X92921156Y-59730857D01*
X92711667Y-59789519D01*
X92411116Y-59812309D01*
X92057022Y-59782589D01*
X91757273Y-59698954D01*
X91503021Y-59567151D01*
X91335119Y-59431027D01*
X91230139Y-59297848D01*
X91172871Y-59165683D01*
X91154487Y-59029511D01*
X91178120Y-58841646D01*
X91250693Y-58662693D01*
X91381144Y-58486376D01*
X91548947Y-58344383D01*
X91737201Y-58259013D01*
X91951939Y-58229616D01*
X92093845Y-58232974D01*
X92203265Y-58236332D01*
X92246008Y-58236332D01*
X92285727Y-58210889D01*
X92296566Y-58178630D01*
X92280668Y-58115277D01*
X92222206Y-58040357D01*
X92093356Y-57947515D01*
X91924608Y-57868742D01*
X91721187Y-57817984D01*
X91476399Y-57799748D01*
X91216959Y-57827654D01*
X90986250Y-57908412D01*
X90778912Y-58040546D01*
X90591018Y-58226563D01*
X90444849Y-58435343D01*
X90329129Y-58677986D01*
X90243363Y-58959599D01*
X90189120Y-59286960D01*
X90169944Y-59668206D01*
X90179038Y-59939434D01*
X90208290Y-60252862D01*
X90393476Y-61557108D01*
X90521898Y-62159788D01*
X90627690Y-62442778D01*
X90741164Y-62617247D01*
X90862050Y-62712254D01*
X90995729Y-62743224D01*
X91168314Y-62716475D01*
X91292032Y-62644252D01*
X91379797Y-62529658D01*
X91436510Y-62363775D01*
X91457836Y-62127732D01*
X91435079Y-61813784D01*
X91345973Y-61260059D01*
X91301542Y-61116441D01*
X91237405Y-61021607D01*
X91152288Y-60964830D01*
X90830132Y-60897053D01*
X90781572Y-60849041D01*
X90744647Y-60683951D01*
X90749043Y-60412841D01*
X91014414Y-60438726D01*
X93029050Y-60496495D01*
X92864720Y-60877219D01*
X92746136Y-61289019D01*
X92673318Y-61737004D01*
X92648276Y-62227260D01*
X92665373Y-62491653D01*
X92535543Y-62624901D01*
X92231109Y-62827487D01*
X91891861Y-63001852D01*
X91488854Y-63161026D01*
X91013558Y-63301929D01*
X90686010Y-63367780D01*
X90408080Y-63388025D01*
X90092585Y-63357600D01*
X89826609Y-63271842D01*
X89601335Y-63135737D01*
X89410028Y-62949642D01*
X89248549Y-62709270D01*
X89115721Y-62406074D01*
X89013427Y-62027872D01*
X88946443Y-61559520D01*
X88922107Y-60983454D01*
X88946700Y-60260057D01*
X89015368Y-59649192D01*
X89121531Y-59135812D01*
X89260215Y-58706387D01*
X89428257Y-58349149D01*
X89624464Y-58054425D01*
X89849701Y-57815014D01*
X90106839Y-57626551D01*
X90400579Y-57487760D01*
X90737188Y-57400544D01*
X91124200Y-57369881D01*
X91643634Y-57400127D01*
X92063741Y-57483046D01*
X92400404Y-57608745D01*
X92667594Y-57770123D01*
X92877002Y-57963315D01*
X93037530Y-58188021D01*
X93154720Y-58447572D01*
X93230307Y-58748632D01*
X93255562Y-58947337D01*
X93263279Y-59113775D01*
G37*
G36*
X97807150Y-58763496D02*
G01*
X97819874Y-58980662D01*
X97808075Y-59141543D01*
X97783482Y-59205366D01*
X97517328Y-59342054D01*
X97410534Y-59436955D01*
X97385610Y-59504258D01*
X97385610Y-59511280D01*
X97393670Y-59866348D01*
X97401974Y-60238818D01*
X97386183Y-60802422D01*
X97342082Y-61281301D01*
X97274031Y-61686046D01*
X97185575Y-62026371D01*
X97362972Y-61936092D01*
X97599078Y-61903028D01*
X97728931Y-61913131D01*
X97849672Y-61942718D01*
X97928318Y-62905340D01*
X97829321Y-62841883D01*
X97690792Y-62798698D01*
X97500648Y-62782302D01*
X97142856Y-62815039D01*
X96712965Y-62922742D01*
X96300052Y-63086371D01*
X96011011Y-63261324D01*
X96091837Y-62723479D01*
X96110174Y-62488906D01*
X96103091Y-62444637D01*
X96070851Y-62470282D01*
X95831773Y-62682211D01*
X95570881Y-62848615D01*
X95285267Y-62970496D01*
X94971270Y-63047001D01*
X94678516Y-63084062D01*
X94456650Y-63094933D01*
X94136612Y-63069217D01*
X93889378Y-62999803D01*
X93700376Y-62895407D01*
X93557836Y-62760321D01*
X93456120Y-62601882D01*
X93379685Y-62402286D01*
X93330137Y-62152308D01*
X93312128Y-61840136D01*
X93323776Y-61510700D01*
X93339595Y-61350123D01*
X94032889Y-61350123D01*
X94058833Y-61448378D01*
X94150734Y-61545959D01*
X94352358Y-61645352D01*
X94658102Y-61719455D01*
X95044298Y-61746713D01*
X95342168Y-61717098D01*
X95633982Y-61628051D01*
X95923084Y-61477130D01*
X96127340Y-61323940D01*
X96246365Y-61193703D01*
X96305819Y-61081777D01*
X96323398Y-60981317D01*
X96304819Y-60906993D01*
X96239717Y-60832017D01*
X96099183Y-60753560D01*
X95838076Y-60680690D01*
X95467815Y-60652505D01*
X95131791Y-60678856D01*
X94805682Y-60757447D01*
X94486936Y-60888810D01*
X94250609Y-61030874D01*
X94116648Y-61152212D01*
X94051713Y-61256342D01*
X94032889Y-61350123D01*
X93339595Y-61350123D01*
X93361221Y-61130610D01*
X93429761Y-60749965D01*
X93526609Y-60414872D01*
X93650250Y-60119811D01*
X93800369Y-59860242D01*
X93974373Y-59643715D01*
X94162866Y-59478970D01*
X94367955Y-59361564D01*
X94592933Y-59289874D01*
X94842065Y-59265205D01*
X95103488Y-59293650D01*
X95363277Y-59379890D01*
X95624907Y-59527727D01*
X95891335Y-59744052D01*
X96164884Y-60038539D01*
X96149505Y-59874455D01*
X96088681Y-59583332D01*
X95993697Y-59270344D01*
X95892065Y-59033175D01*
X96807212Y-58839649D01*
X97404822Y-58675695D01*
X97768094Y-58539193D01*
X97807150Y-58763496D01*
G37*
G36*
X99986552Y-63100123D02*
G01*
X99734118Y-62986636D01*
X99491921Y-62920940D01*
X99257487Y-62899539D01*
X98944790Y-62932231D01*
X98611434Y-63034248D01*
X98252428Y-63214002D01*
X98196252Y-63230488D01*
X98185602Y-63209067D01*
X98189658Y-63155078D01*
X98360004Y-62215959D01*
X98470978Y-61421338D01*
X98531624Y-60753937D01*
X98550160Y-60197602D01*
X98526713Y-59530078D01*
X98457256Y-58887090D01*
X98342554Y-58265642D01*
X98290839Y-58152045D01*
X98194542Y-58075132D01*
X98085505Y-58043205D01*
X97877027Y-58014377D01*
X97826350Y-57918652D01*
X97792375Y-57737741D01*
X97788122Y-57424836D01*
X97891193Y-57435521D01*
X98414000Y-57402114D01*
X99681004Y-57251728D01*
X99783421Y-57800986D01*
X99847071Y-58400857D01*
X99869071Y-59056988D01*
X99845490Y-59796562D01*
X99777155Y-60475576D01*
X99667068Y-61099787D01*
X99517368Y-61674473D01*
X99329295Y-62204363D01*
X99512436Y-62125039D01*
X99708115Y-62098422D01*
X99861632Y-62115580D01*
X99986552Y-62163452D01*
X99986552Y-63100123D01*
G37*
G36*
X102280481Y-63100123D02*
G01*
X102028047Y-62986636D01*
X101785850Y-62920940D01*
X101551416Y-62899539D01*
X101238719Y-62932231D01*
X100905363Y-63034248D01*
X100546357Y-63214002D01*
X100490181Y-63230488D01*
X100479531Y-63209067D01*
X100483586Y-63155078D01*
X100653933Y-62215959D01*
X100764907Y-61421338D01*
X100825553Y-60753937D01*
X100844089Y-60197602D01*
X100820642Y-59530078D01*
X100751185Y-58887090D01*
X100636482Y-58265642D01*
X100584768Y-58152045D01*
X100488471Y-58075132D01*
X100379434Y-58043205D01*
X100170956Y-58014377D01*
X100120279Y-57918652D01*
X100086304Y-57737741D01*
X100082051Y-57424836D01*
X100185122Y-57435521D01*
X100707929Y-57402114D01*
X101974933Y-57251728D01*
X102077349Y-57800986D01*
X102141000Y-58400857D01*
X102163000Y-59056988D01*
X102139418Y-59796562D01*
X102071084Y-60475576D01*
X101960997Y-61099787D01*
X101811297Y-61674473D01*
X101623224Y-62204363D01*
X101806365Y-62125039D01*
X102002044Y-62098422D01*
X102155560Y-62115580D01*
X102280481Y-62163452D01*
X102280481Y-63100123D01*
G37*
G36*
X107072746Y-58763496D02*
G01*
X107085471Y-58980662D01*
X107073672Y-59141543D01*
X107049078Y-59205366D01*
X106782925Y-59342054D01*
X106676130Y-59436955D01*
X106651207Y-59504258D01*
X106651207Y-59511280D01*
X106659267Y-59866348D01*
X106667571Y-60238818D01*
X106651780Y-60802422D01*
X106607679Y-61281301D01*
X106539628Y-61686046D01*
X106451172Y-62026371D01*
X106628569Y-61936092D01*
X106864675Y-61903028D01*
X106994528Y-61913131D01*
X107115268Y-61942718D01*
X107193914Y-62905340D01*
X107094917Y-62841883D01*
X106956389Y-62798698D01*
X106766245Y-62782302D01*
X106408453Y-62815039D01*
X105978562Y-62922742D01*
X105565648Y-63086371D01*
X105276608Y-63261324D01*
X105357434Y-62723479D01*
X105375771Y-62488906D01*
X105368688Y-62444637D01*
X105336448Y-62470282D01*
X105097370Y-62682211D01*
X104836477Y-62848615D01*
X104550864Y-62970496D01*
X104236866Y-63047001D01*
X103944113Y-63084062D01*
X103722247Y-63094933D01*
X103402209Y-63069217D01*
X103154975Y-62999803D01*
X102965972Y-62895407D01*
X102823433Y-62760321D01*
X102721716Y-62601882D01*
X102645282Y-62402286D01*
X102595734Y-62152308D01*
X102577725Y-61840136D01*
X102589372Y-61510700D01*
X102605191Y-61350123D01*
X103298485Y-61350123D01*
X103324430Y-61448378D01*
X103416331Y-61545959D01*
X103617955Y-61645352D01*
X103923699Y-61719455D01*
X104309895Y-61746713D01*
X104607765Y-61717098D01*
X104899579Y-61628051D01*
X105188681Y-61477130D01*
X105392936Y-61323940D01*
X105511962Y-61193703D01*
X105571416Y-61081777D01*
X105588995Y-60981317D01*
X105570416Y-60906993D01*
X105505314Y-60832017D01*
X105364780Y-60753560D01*
X105103673Y-60680690D01*
X104733412Y-60652505D01*
X104397387Y-60678856D01*
X104071279Y-60757447D01*
X103752533Y-60888810D01*
X103516206Y-61030874D01*
X103382245Y-61152212D01*
X103317310Y-61256342D01*
X103298485Y-61350123D01*
X102605191Y-61350123D01*
X102626817Y-61130610D01*
X102695357Y-60749965D01*
X102792205Y-60414872D01*
X102915847Y-60119811D01*
X103065966Y-59860242D01*
X103239970Y-59643715D01*
X103428462Y-59478970D01*
X103633552Y-59361564D01*
X103858529Y-59289874D01*
X104107662Y-59265205D01*
X104369085Y-59293650D01*
X104628873Y-59379890D01*
X104890504Y-59527727D01*
X105156932Y-59744052D01*
X105430481Y-60038539D01*
X105415102Y-59874455D01*
X105354277Y-59583332D01*
X105259294Y-59270344D01*
X105157662Y-59033175D01*
X106072809Y-58839649D01*
X106670418Y-58675695D01*
X107033691Y-58539193D01*
X107072746Y-58763496D01*
G37*
G36*
X110209671Y-59172393D02*
G01*
X110511559Y-59314355D01*
X110794275Y-59395422D01*
X111061500Y-59421521D01*
X111264467Y-59391633D01*
X111401730Y-59313138D01*
X111339448Y-60107843D01*
X111178981Y-60144480D01*
X111010829Y-60111987D01*
X110820188Y-60005261D01*
X111012021Y-60505361D01*
X111149137Y-61029162D01*
X111232315Y-61581074D01*
X111260558Y-62166200D01*
X111252303Y-62453212D01*
X111227829Y-62731011D01*
X111137065Y-63252711D01*
X111015527Y-63650655D01*
X110869162Y-63948714D01*
X110700265Y-64165938D01*
X110516459Y-64317109D01*
X110278274Y-64445345D01*
X109973971Y-64546483D01*
X109589843Y-64613828D01*
X109110488Y-64638548D01*
X108613266Y-64606396D01*
X108211609Y-64518253D01*
X107889550Y-64384278D01*
X107633307Y-64211123D01*
X107448760Y-64020055D01*
X107320287Y-63816834D01*
X107239588Y-63598684D01*
X107185826Y-63342364D01*
X107170711Y-63159658D01*
X107194272Y-62976888D01*
X107264142Y-62819772D01*
X107387199Y-62680723D01*
X107579795Y-62558998D01*
X107865582Y-62460512D01*
X108154851Y-62408487D01*
X108432714Y-62391514D01*
X108695245Y-62409380D01*
X108905597Y-62458204D01*
X109072875Y-62532259D01*
X109214527Y-62646514D01*
X109288632Y-62768233D01*
X109312233Y-62902897D01*
X109292273Y-63088342D01*
X109233586Y-63250922D01*
X109133119Y-63397012D01*
X108981855Y-63529134D01*
X108765861Y-63645701D01*
X108340635Y-63836516D01*
X108241770Y-63926348D01*
X108216559Y-64003517D01*
X108239997Y-64048110D01*
X108347682Y-64089807D01*
X108640565Y-64110983D01*
X108993941Y-64082317D01*
X109297137Y-64001221D01*
X109557941Y-63872847D01*
X109691097Y-63756586D01*
X109812885Y-63572225D01*
X109923155Y-63300649D01*
X110018094Y-62916331D01*
X110088988Y-62392948D01*
X110113593Y-61812048D01*
X110107487Y-61633750D01*
X110034093Y-61770760D01*
X109896847Y-61904946D01*
X109670537Y-62036140D01*
X109344127Y-62140336D01*
X108973712Y-62176580D01*
X108692542Y-62142655D01*
X108451538Y-62045582D01*
X108242632Y-61887567D01*
X108060488Y-61664281D01*
X107918261Y-61401026D01*
X107811538Y-61091667D01*
X107741751Y-60727915D01*
X107727011Y-60594192D01*
X108334040Y-60594192D01*
X108363113Y-60702296D01*
X108471537Y-60829169D01*
X108714815Y-60984980D01*
X108972533Y-61093126D01*
X109239382Y-61158157D01*
X109517641Y-61180069D01*
X109832700Y-61157790D01*
X110048625Y-61100996D01*
X110173874Y-61033452D01*
X110231400Y-60969092D01*
X110247683Y-60905601D01*
X110217550Y-60783059D01*
X110107536Y-60639337D01*
X109866664Y-60462606D01*
X109634162Y-60350091D01*
X109401119Y-60283737D01*
X109165198Y-60261716D01*
X108831912Y-60284307D01*
X108588053Y-60343538D01*
X108429716Y-60423785D01*
X108355627Y-60506682D01*
X108334040Y-60594192D01*
X107727011Y-60594192D01*
X107691946Y-60276093D01*
X107678981Y-60012894D01*
X107701703Y-59722596D01*
X107762679Y-59509302D01*
X107856301Y-59354049D01*
X107961537Y-59255928D01*
X108103607Y-59179372D01*
X108292253Y-59128031D01*
X108539448Y-59108890D01*
X108777791Y-59123334D01*
X109106092Y-59173614D01*
X109404195Y-59247337D01*
X109643388Y-59344765D01*
X109833185Y-59461742D01*
X109981702Y-59595849D01*
X109996113Y-59586385D01*
X109978215Y-59437471D01*
X109884982Y-58961428D01*
X110209671Y-59172393D01*
G37*
G36*
X115706999Y-63175533D02*
G01*
X115605882Y-63526632D01*
X113988018Y-63072341D01*
X114095317Y-62762410D01*
X114176125Y-62402597D01*
X114227672Y-61985274D01*
X114245938Y-61501859D01*
X114228001Y-60962271D01*
X114189030Y-60706238D01*
X114143412Y-60596756D01*
X114081813Y-60536416D01*
X113999741Y-60515729D01*
X113852315Y-60551187D01*
X113694720Y-60667258D01*
X113519316Y-60890947D01*
X113374057Y-61163962D01*
X113260546Y-61476636D01*
X113179574Y-61834945D01*
X113201037Y-62059971D01*
X113277366Y-62457571D01*
X113438960Y-63103176D01*
X113028929Y-62910487D01*
X112635256Y-62799057D01*
X112253649Y-62762763D01*
X111997878Y-62785800D01*
X111793655Y-62849079D01*
X111631074Y-62946556D01*
X111636448Y-62113993D01*
X111739046Y-62073881D01*
X111868478Y-62059344D01*
X112062425Y-62087876D01*
X112265617Y-62177191D01*
X112155357Y-61654262D01*
X112047408Y-60951101D01*
X111945415Y-60029685D01*
X111858680Y-58889602D01*
X111833307Y-58032084D01*
X111808644Y-57878017D01*
X111741228Y-57784178D01*
X111670479Y-57745506D01*
X111520188Y-57703883D01*
X111326015Y-57662667D01*
X111291691Y-57633168D01*
X111264045Y-57544731D01*
X111251277Y-57346678D01*
X111265687Y-57193110D01*
X111552351Y-57232984D01*
X112396287Y-57311568D01*
X113592833Y-57409876D01*
X113409673Y-58055612D01*
X113268125Y-58705601D01*
X113167306Y-59361514D01*
X113106770Y-60025127D01*
X113086517Y-60698300D01*
X113089692Y-61146791D01*
X113240537Y-60606634D01*
X113436777Y-60106893D01*
X113679050Y-59643476D01*
X113903747Y-59304786D01*
X114117144Y-59045867D01*
X114320676Y-58854877D01*
X114472653Y-58751706D01*
X114603690Y-58696108D01*
X114718304Y-58679023D01*
X114857016Y-58709720D01*
X114979106Y-58802465D01*
X115090225Y-58969930D01*
X115190181Y-59238033D01*
X115258049Y-59543455D01*
X115302820Y-59921975D01*
X115319141Y-60387196D01*
X115302777Y-60919951D01*
X115229801Y-61890892D01*
X115212407Y-62354877D01*
X115235150Y-62793089D01*
X115286657Y-63018913D01*
X115489910Y-63108744D01*
X115706999Y-63175533D01*
G37*
G36*
X118474668Y-59041859D02*
G01*
X118836658Y-59124698D01*
X119115314Y-59248527D01*
X119326737Y-59406120D01*
X119483573Y-59594882D01*
X119594124Y-59817194D01*
X119665391Y-60067016D01*
X119711856Y-60374300D01*
X119728702Y-60750507D01*
X119717711Y-61159614D01*
X119708073Y-61196775D01*
X119680586Y-61199303D01*
X119141526Y-61066260D01*
X118159441Y-60857974D01*
X117176852Y-60672044D01*
X117156724Y-60698262D01*
X117134094Y-60848400D01*
X117121898Y-61302496D01*
X117142883Y-61710345D01*
X117200417Y-62036610D01*
X117288440Y-62296239D01*
X117403998Y-62501423D01*
X117559708Y-62669973D01*
X117740443Y-62775841D01*
X117953300Y-62821381D01*
X118137812Y-62809579D01*
X118302812Y-62755130D01*
X118350674Y-62725620D01*
X118360453Y-62706587D01*
X118333586Y-62684300D01*
X118101436Y-62607018D01*
X117907179Y-62494160D01*
X117744961Y-62347245D01*
X117615773Y-62162726D01*
X117541189Y-61962329D01*
X117516106Y-61738775D01*
X117536993Y-61602652D01*
X117600551Y-61483638D01*
X117717117Y-61376074D01*
X117855701Y-61304001D01*
X118034097Y-61256280D01*
X118261779Y-61238688D01*
X118500280Y-61253611D01*
X118760523Y-61300359D01*
X119052941Y-61400546D01*
X119250043Y-61524823D01*
X119376028Y-61667089D01*
X119447606Y-61828106D01*
X119471758Y-62015685D01*
X119455807Y-62166749D01*
X119405324Y-62327095D01*
X119266579Y-62597977D01*
X119114467Y-62800457D01*
X118948346Y-62945029D01*
X118752702Y-63050461D01*
X118496715Y-63134589D01*
X118166858Y-63191208D01*
X117747892Y-63212170D01*
X117382842Y-63176060D01*
X117058296Y-63071818D01*
X116767266Y-62902244D01*
X116504396Y-62665613D01*
X116266315Y-62355793D01*
X116056717Y-61974932D01*
X115909857Y-61577138D01*
X115821800Y-61157404D01*
X115791995Y-60709291D01*
X115816675Y-60369975D01*
X115887142Y-60078781D01*
X115967476Y-59901153D01*
X116960697Y-59901153D01*
X116987388Y-60026121D01*
X117074092Y-60135878D01*
X117250332Y-60233846D01*
X117565016Y-60308916D01*
X118081284Y-60339874D01*
X118332900Y-60317719D01*
X118494910Y-60262270D01*
X118593688Y-60185221D01*
X118648095Y-60090039D01*
X118666489Y-59970762D01*
X118647109Y-59858845D01*
X118586237Y-59756977D01*
X118470118Y-59660573D01*
X118335493Y-59596616D01*
X118164022Y-59554307D01*
X117947438Y-59538757D01*
X117579207Y-59562941D01*
X117285540Y-59628822D01*
X117078323Y-59721182D01*
X116986107Y-59811456D01*
X116960697Y-59901153D01*
X115967476Y-59901153D01*
X116001371Y-59826206D01*
X116161845Y-59605698D01*
X116375314Y-59414300D01*
X116652224Y-59252922D01*
X117006057Y-59126190D01*
X117452776Y-59042036D01*
X118010453Y-59011193D01*
X118474668Y-59041859D01*
G37*
G36*
X124124096Y-60474207D02*
G01*
X124101800Y-60638625D01*
X124033927Y-60788188D01*
X123911352Y-60929195D01*
X123716243Y-61062529D01*
X123424096Y-61184038D01*
X123029076Y-61285731D01*
X122695519Y-61316845D01*
X122440814Y-61292871D01*
X122275000Y-61232449D01*
X122172222Y-61147373D01*
X122114485Y-61040346D01*
X122094682Y-60904075D01*
X122113843Y-60682640D01*
X122170255Y-60481516D01*
X122265197Y-60295483D01*
X122403649Y-60121277D01*
X122575337Y-59971876D01*
X122780505Y-59848907D01*
X123024515Y-59753996D01*
X123044244Y-59738833D01*
X123051137Y-59707590D01*
X123026617Y-59645182D01*
X122919002Y-59555244D01*
X122756368Y-59485268D01*
X122561674Y-59460600D01*
X122322264Y-59489949D01*
X122107912Y-59575506D01*
X121913210Y-59717360D01*
X121763085Y-59891811D01*
X121657224Y-60095196D01*
X121592149Y-60333211D01*
X121569316Y-60614952D01*
X121589988Y-60937102D01*
X121664649Y-61411888D01*
X121815024Y-62085600D01*
X121871191Y-62149871D01*
X122093461Y-62235504D01*
X122403267Y-62300084D01*
X122833517Y-62353351D01*
X122737285Y-62887021D01*
X122416838Y-62880000D01*
X121791161Y-62904461D01*
X121168807Y-62977801D01*
X120548619Y-63100228D01*
X119929469Y-63272315D01*
X119856750Y-63085038D01*
X119788785Y-62774364D01*
X119793762Y-62734702D01*
X119823468Y-62706587D01*
X120157836Y-62528290D01*
X120268349Y-62421211D01*
X120304870Y-62309387D01*
X120375945Y-61598640D01*
X120425458Y-60950919D01*
X120438960Y-60535879D01*
X120426829Y-60260554D01*
X120400001Y-60125590D01*
X120368374Y-60071207D01*
X120267103Y-60011344D01*
X120110697Y-59988164D01*
X119888192Y-60022358D01*
X119845660Y-60020982D01*
X119835191Y-59998850D01*
X119800997Y-59628211D01*
X119766803Y-59270090D01*
X119779925Y-59230006D01*
X119822979Y-59226432D01*
X120055958Y-59284877D01*
X120290949Y-59304284D01*
X120568438Y-59273944D01*
X120861032Y-59179604D01*
X121173198Y-59013742D01*
X121509232Y-58765729D01*
X121419839Y-59463347D01*
X121640869Y-59257753D01*
X121908563Y-59104888D01*
X122232415Y-59007159D01*
X122624445Y-58972114D01*
X122983908Y-59004446D01*
X123280847Y-59094638D01*
X123526274Y-59235770D01*
X123728872Y-59425669D01*
X123894395Y-59667081D01*
X124025177Y-59967404D01*
X124102284Y-60259947D01*
X124124096Y-60474207D01*
G37*
G36*
X93213942Y-70236167D02*
G01*
X93202951Y-70578717D01*
X93166165Y-70778140D01*
X93094878Y-70955137D01*
X92986758Y-71114380D01*
X92835854Y-71258018D01*
X92625065Y-71387273D01*
X92386168Y-71467111D01*
X92113140Y-71494933D01*
X91809057Y-71457940D01*
X91533551Y-71349609D01*
X91047311Y-71107762D01*
X90652943Y-70955098D01*
X90335933Y-70874217D01*
X90082993Y-70850132D01*
X89901914Y-70868250D01*
X89764637Y-70917067D01*
X89661430Y-70991182D01*
X89602458Y-71089049D01*
X89579853Y-71256491D01*
X89600614Y-71454633D01*
X89370174Y-71500444D01*
X89181359Y-71574080D01*
X89027376Y-71672009D01*
X88933112Y-71331243D01*
X88877509Y-70992066D01*
X88859092Y-70651685D01*
X88885040Y-70237571D01*
X88959718Y-69871812D01*
X89080776Y-69546170D01*
X89249148Y-69254310D01*
X89432423Y-69033691D01*
X89640856Y-68859080D01*
X89877783Y-68728284D01*
X90147930Y-68641862D01*
X90457173Y-68603098D01*
X90751679Y-68567255D01*
X90961254Y-68499657D01*
X91106127Y-68409535D01*
X91219668Y-68288777D01*
X91327590Y-68115527D01*
X91429581Y-67877590D01*
X91523782Y-67559876D01*
X91607437Y-67149330D01*
X91630027Y-66881796D01*
X91604544Y-66672698D01*
X91534627Y-66524779D01*
X91418757Y-66422009D01*
X91209257Y-66352862D01*
X90787878Y-66316985D01*
X90505455Y-66335431D01*
X90251521Y-66395143D01*
X90059214Y-66485852D01*
X90022421Y-66545657D01*
X90032379Y-66569179D01*
X90073712Y-66590842D01*
X90363142Y-66692890D01*
X90575585Y-66797836D01*
X90726573Y-66903168D01*
X90870563Y-67050600D01*
X90968609Y-67214529D01*
X91026988Y-67398313D01*
X91047020Y-67608419D01*
X91023936Y-67751161D01*
X90953098Y-67876294D01*
X90821339Y-67989743D01*
X90660858Y-68065101D01*
X90452230Y-68115479D01*
X90184110Y-68134152D01*
X89767676Y-68099958D01*
X89456875Y-68016649D01*
X89246998Y-67897476D01*
X89111759Y-67750913D01*
X89033700Y-67576194D01*
X89006859Y-67363260D01*
X89029373Y-67106671D01*
X89095924Y-66871621D01*
X89208446Y-66652170D01*
X89373224Y-66444602D01*
X89578961Y-66267936D01*
X89834824Y-66121254D01*
X90150301Y-66007833D01*
X90536621Y-65933570D01*
X91006475Y-65906657D01*
X91433579Y-65931560D01*
X91801051Y-66001713D01*
X92116687Y-66111457D01*
X92387424Y-66256840D01*
X92626650Y-66444719D01*
X92802093Y-66655116D01*
X92923861Y-66889345D01*
X92997347Y-67152461D01*
X93022700Y-67452714D01*
X92995404Y-67839974D01*
X92918421Y-68163627D01*
X92795371Y-68436079D01*
X92624706Y-68666033D01*
X92399886Y-68857629D01*
X92110010Y-69010003D01*
X91740620Y-69117409D01*
X91274410Y-69169741D01*
X90860615Y-69214766D01*
X90523267Y-69305128D01*
X90250007Y-69433332D01*
X90030237Y-69594724D01*
X89851350Y-69791720D01*
X89730049Y-70000625D01*
X89658004Y-70224918D01*
X89632121Y-70470945D01*
X89730278Y-70270030D01*
X89871602Y-70109408D01*
X90064570Y-69986019D01*
X90323045Y-69903807D01*
X90665024Y-69873161D01*
X91017096Y-69901505D01*
X91329598Y-69982893D01*
X91608290Y-70113740D01*
X92054521Y-70446215D01*
X92267517Y-70579048D01*
X92421863Y-70615659D01*
X92573326Y-70587662D01*
X92646937Y-70520507D01*
X92670990Y-70415380D01*
X92646206Y-70267246D01*
X92565450Y-70115653D01*
X92408554Y-69953259D01*
X92144159Y-69777601D01*
X92886657Y-69048841D01*
X93023871Y-69264304D01*
X93125589Y-69526975D01*
X93190597Y-69846686D01*
X93213942Y-70236167D01*
G37*
G36*
X96347012Y-66135247D02*
G01*
X96594399Y-66228515D01*
X96800505Y-66377114D01*
X96972427Y-66582893D01*
X97113414Y-66854065D01*
X97222500Y-67204367D01*
X97294631Y-67652001D01*
X97321130Y-68218721D01*
X97299423Y-68814215D01*
X97237125Y-69348083D01*
X97137673Y-69827225D01*
X97003370Y-70257843D01*
X96821398Y-70665731D01*
X96610917Y-70995860D01*
X96371577Y-71258048D01*
X96100686Y-71458605D01*
X95793391Y-71599958D01*
X95629033Y-71637466D01*
X95422386Y-71651249D01*
X95102386Y-71614531D01*
X94793902Y-71504451D01*
X94492139Y-71317492D01*
X94193356Y-71045526D01*
X93969638Y-70773371D01*
X93782511Y-70474186D01*
X93629857Y-70145688D01*
X93510793Y-69784547D01*
X93425701Y-69386507D01*
X93401087Y-69171361D01*
X93392728Y-68944733D01*
X93396563Y-68880924D01*
X93979399Y-68880924D01*
X94005272Y-69097231D01*
X94084966Y-69306926D01*
X94227988Y-69516880D01*
X94451277Y-69730584D01*
X94756486Y-69932691D01*
X95059333Y-70049636D01*
X95364989Y-70088094D01*
X95647979Y-70063423D01*
X95914501Y-69990643D01*
X96167612Y-69870084D01*
X96409860Y-69700054D01*
X96629648Y-69488207D01*
X96768280Y-69287597D01*
X96844109Y-69094333D01*
X96868304Y-68901685D01*
X96843450Y-68698754D01*
X96766879Y-68502911D01*
X96629131Y-68307511D01*
X96413279Y-68109422D01*
X96181015Y-67959842D01*
X95930874Y-67851883D01*
X95659991Y-67785646D01*
X95364989Y-67762903D01*
X95083674Y-67798515D01*
X94787255Y-67909656D01*
X94470083Y-68106674D01*
X94231286Y-68317758D01*
X94083551Y-68513899D01*
X94004323Y-68699179D01*
X93979399Y-68880924D01*
X93396563Y-68880924D01*
X93416319Y-68552187D01*
X93486475Y-68176606D01*
X93603876Y-67813654D01*
X93771304Y-67459736D01*
X93998303Y-67110388D01*
X94263652Y-66815577D01*
X94570880Y-66571891D01*
X94925352Y-66378656D01*
X95358656Y-66217609D01*
X95729959Y-66129285D01*
X96048136Y-66102051D01*
X96347012Y-66135247D01*
G37*
G36*
X101850369Y-70236167D02*
G01*
X101839378Y-70578717D01*
X101802592Y-70778140D01*
X101731305Y-70955137D01*
X101623185Y-71114380D01*
X101472281Y-71258018D01*
X101261492Y-71387273D01*
X101022595Y-71467111D01*
X100749567Y-71494933D01*
X100445484Y-71457940D01*
X100169979Y-71349609D01*
X99683738Y-71107762D01*
X99289370Y-70955098D01*
X98972360Y-70874217D01*
X98719420Y-70850132D01*
X98538341Y-70868250D01*
X98401064Y-70917067D01*
X98297857Y-70991182D01*
X98238885Y-71089049D01*
X98216280Y-71256491D01*
X98237041Y-71454633D01*
X98006602Y-71500444D01*
X97817786Y-71574080D01*
X97663803Y-71672009D01*
X97569539Y-71331243D01*
X97513936Y-70992066D01*
X97495519Y-70651685D01*
X97521467Y-70237571D01*
X97596145Y-69871812D01*
X97717203Y-69546170D01*
X97885575Y-69254310D01*
X98068850Y-69033691D01*
X98277284Y-68859080D01*
X98514210Y-68728284D01*
X98784357Y-68641862D01*
X99093600Y-68603098D01*
X99388106Y-68567255D01*
X99597681Y-68499657D01*
X99742554Y-68409535D01*
X99856095Y-68288777D01*
X99964017Y-68115527D01*
X100066008Y-67877590D01*
X100160209Y-67559876D01*
X100243864Y-67149330D01*
X100266454Y-66881796D01*
X100240971Y-66672698D01*
X100171054Y-66524779D01*
X100055184Y-66422009D01*
X99845684Y-66352862D01*
X99424305Y-66316985D01*
X99141882Y-66335431D01*
X98887948Y-66395143D01*
X98695641Y-66485852D01*
X98658848Y-66545657D01*
X98668806Y-66569179D01*
X98710139Y-66590842D01*
X98999569Y-66692890D01*
X99212012Y-66797836D01*
X99363000Y-66903168D01*
X99506990Y-67050600D01*
X99605036Y-67214529D01*
X99663415Y-67398313D01*
X99683447Y-67608419D01*
X99660363Y-67751161D01*
X99589525Y-67876294D01*
X99457766Y-67989743D01*
X99297285Y-68065101D01*
X99088657Y-68115479D01*
X98820537Y-68134152D01*
X98404103Y-68099958D01*
X98093302Y-68016649D01*
X97883425Y-67897476D01*
X97748186Y-67750913D01*
X97670127Y-67576194D01*
X97643286Y-67363260D01*
X97665800Y-67106671D01*
X97732351Y-66871621D01*
X97844873Y-66652170D01*
X98009651Y-66444602D01*
X98215388Y-66267936D01*
X98471251Y-66121254D01*
X98786728Y-66007833D01*
X99173048Y-65933570D01*
X99642903Y-65906657D01*
X100070006Y-65931560D01*
X100437478Y-66001713D01*
X100753114Y-66111457D01*
X101023852Y-66256840D01*
X101263077Y-66444719D01*
X101438520Y-66655116D01*
X101560288Y-66889345D01*
X101633774Y-67152461D01*
X101659127Y-67452714D01*
X101631832Y-67839974D01*
X101554848Y-68163627D01*
X101431798Y-68436079D01*
X101261133Y-68666033D01*
X101036313Y-68857629D01*
X100746437Y-69010003D01*
X100377047Y-69117409D01*
X99910837Y-69169741D01*
X99497042Y-69214766D01*
X99159694Y-69305128D01*
X98886434Y-69433332D01*
X98666664Y-69594724D01*
X98487777Y-69791720D01*
X98366476Y-70000625D01*
X98294431Y-70224918D01*
X98268548Y-70470945D01*
X98366705Y-70270030D01*
X98508029Y-70109408D01*
X98700997Y-69986019D01*
X98959472Y-69903807D01*
X99301451Y-69873161D01*
X99653523Y-69901505D01*
X99966025Y-69982893D01*
X100244717Y-70113740D01*
X100690949Y-70446215D01*
X100903944Y-70579048D01*
X101058290Y-70615659D01*
X101209753Y-70587662D01*
X101283364Y-70520507D01*
X101307418Y-70415380D01*
X101282633Y-70267246D01*
X101201877Y-70115653D01*
X101044981Y-69953259D01*
X100780586Y-69777601D01*
X101523084Y-69048841D01*
X101660298Y-69264304D01*
X101762017Y-69526975D01*
X101827024Y-69846686D01*
X101850369Y-70236167D01*
G37*
G36*
X105001855Y-65949332D02*
G01*
X105389938Y-66012663D01*
X105701455Y-66108220D01*
X105948843Y-66229775D01*
X106142937Y-66373161D01*
X106299584Y-66544589D01*
X106404994Y-66726265D01*
X106466737Y-66921321D01*
X106487564Y-67135504D01*
X106464638Y-67347146D01*
X106397616Y-67529810D01*
X106283424Y-67691147D01*
X106111919Y-67834038D01*
X105875927Y-67950410D01*
X105572953Y-68027560D01*
X105187459Y-68055994D01*
X104894193Y-68036699D01*
X104653677Y-67983442D01*
X104457418Y-67901816D01*
X104291854Y-67781980D01*
X104209885Y-67663966D01*
X104185087Y-67542473D01*
X104207444Y-67341133D01*
X104274148Y-67158782D01*
X104389966Y-66989047D01*
X104566106Y-66829284D01*
X105152288Y-66532529D01*
X105242920Y-66481543D01*
X105264396Y-66431168D01*
X105242018Y-66381717D01*
X105146659Y-66338422D01*
X104897787Y-66316985D01*
X104505606Y-66354589D01*
X104126957Y-66466889D01*
X103841043Y-66617836D01*
X103648676Y-66785976D01*
X103527585Y-66969113D01*
X103341315Y-67427226D01*
X103205745Y-67897661D01*
X103119109Y-68383707D01*
X103081109Y-68889167D01*
X103223850Y-68724904D01*
X103402116Y-68573037D01*
X103621374Y-68434265D01*
X103875952Y-68321870D01*
X104138530Y-68254502D01*
X104411500Y-68231849D01*
X104751933Y-68267019D01*
X105050629Y-68368103D01*
X105315020Y-68532094D01*
X105550648Y-68760940D01*
X105743164Y-69032215D01*
X105884716Y-69326169D01*
X105979050Y-69646931D01*
X106089714Y-70271743D01*
X106118757Y-70650464D01*
X106100077Y-70896152D01*
X106047963Y-71094685D01*
X105965215Y-71255901D01*
X105850334Y-71386245D01*
X105697064Y-71489679D01*
X105487138Y-71573003D01*
X105205575Y-71629886D01*
X104835017Y-71651249D01*
X104243366Y-71620982D01*
X103761930Y-71537966D01*
X103373828Y-71412302D01*
X103063959Y-71251705D01*
X102819281Y-71061097D01*
X102611935Y-70820859D01*
X102437479Y-70526909D01*
X102295197Y-70171446D01*
X102196783Y-69782791D01*
X102962896Y-69782791D01*
X102980542Y-69888600D01*
X103039143Y-70002760D01*
X103154379Y-70131438D01*
X103349532Y-70278299D01*
X103622090Y-70423295D01*
X103898454Y-70508962D01*
X104181912Y-70537501D01*
X104529924Y-70520549D01*
X104810701Y-70474281D01*
X105034808Y-70404694D01*
X105220128Y-70308662D01*
X105331469Y-70207182D01*
X105390403Y-70101361D01*
X105409232Y-69986428D01*
X105389131Y-69876340D01*
X105322084Y-69760299D01*
X105188284Y-69631984D01*
X104957871Y-69489089D01*
X104666931Y-69363699D01*
X104388253Y-69291084D01*
X104119141Y-69267438D01*
X103738681Y-69300151D01*
X103380795Y-69396582D01*
X103166147Y-69495860D01*
X103042962Y-69593229D01*
X102981520Y-69687379D01*
X102962896Y-69782791D01*
X102196783Y-69782791D01*
X102186942Y-69743926D01*
X102117014Y-69231536D01*
X102091926Y-68619584D01*
X102109943Y-67999448D01*
X102157725Y-67530261D01*
X102227039Y-67183263D01*
X102311500Y-66933087D01*
X102452307Y-66673149D01*
X102631783Y-66453889D01*
X102854460Y-66272270D01*
X103127515Y-66128613D01*
X103461666Y-66025032D01*
X103917195Y-65953324D01*
X104523363Y-65926196D01*
X105001855Y-65949332D01*
G37*
D11*
X127351905Y-97904819D02*
X127351905Y-96904819D01*
X127351905Y-96904819D02*
X127590000Y-96904819D01*
X127590000Y-96904819D02*
X127732857Y-96952438D01*
X127732857Y-96952438D02*
X127828095Y-97047676D01*
X127828095Y-97047676D02*
X127875714Y-97142914D01*
X127875714Y-97142914D02*
X127923333Y-97333390D01*
X127923333Y-97333390D02*
X127923333Y-97476247D01*
X127923333Y-97476247D02*
X127875714Y-97666723D01*
X127875714Y-97666723D02*
X127828095Y-97761961D01*
X127828095Y-97761961D02*
X127732857Y-97857200D01*
X127732857Y-97857200D02*
X127590000Y-97904819D01*
X127590000Y-97904819D02*
X127351905Y-97904819D01*
X128875714Y-97904819D02*
X128304286Y-97904819D01*
X128590000Y-97904819D02*
X128590000Y-96904819D01*
X128590000Y-96904819D02*
X128494762Y-97047676D01*
X128494762Y-97047676D02*
X128399524Y-97142914D01*
X128399524Y-97142914D02*
X128304286Y-97190533D01*
X124018095Y-98224819D02*
X124018095Y-97224819D01*
X124589523Y-98224819D02*
X124160952Y-97653390D01*
X124589523Y-97224819D02*
X124018095Y-97796247D01*
X60560476Y-95403200D02*
X60703333Y-95450819D01*
X60703333Y-95450819D02*
X60941428Y-95450819D01*
X60941428Y-95450819D02*
X61036666Y-95403200D01*
X61036666Y-95403200D02*
X61084285Y-95355580D01*
X61084285Y-95355580D02*
X61131904Y-95260342D01*
X61131904Y-95260342D02*
X61131904Y-95165104D01*
X61131904Y-95165104D02*
X61084285Y-95069866D01*
X61084285Y-95069866D02*
X61036666Y-95022247D01*
X61036666Y-95022247D02*
X60941428Y-94974628D01*
X60941428Y-94974628D02*
X60750952Y-94927009D01*
X60750952Y-94927009D02*
X60655714Y-94879390D01*
X60655714Y-94879390D02*
X60608095Y-94831771D01*
X60608095Y-94831771D02*
X60560476Y-94736533D01*
X60560476Y-94736533D02*
X60560476Y-94641295D01*
X60560476Y-94641295D02*
X60608095Y-94546057D01*
X60608095Y-94546057D02*
X60655714Y-94498438D01*
X60655714Y-94498438D02*
X60750952Y-94450819D01*
X60750952Y-94450819D02*
X60989047Y-94450819D01*
X60989047Y-94450819D02*
X61131904Y-94498438D01*
X61465238Y-94450819D02*
X61703333Y-95450819D01*
X61703333Y-95450819D02*
X61893809Y-94736533D01*
X61893809Y-94736533D02*
X62084285Y-95450819D01*
X62084285Y-95450819D02*
X62322381Y-94450819D01*
X63227142Y-95450819D02*
X62655714Y-95450819D01*
X62941428Y-95450819D02*
X62941428Y-94450819D01*
X62941428Y-94450819D02*
X62846190Y-94593676D01*
X62846190Y-94593676D02*
X62750952Y-94688914D01*
X62750952Y-94688914D02*
X62655714Y-94736533D01*
X63846190Y-94450819D02*
X63941428Y-94450819D01*
X63941428Y-94450819D02*
X64036666Y-94498438D01*
X64036666Y-94498438D02*
X64084285Y-94546057D01*
X64084285Y-94546057D02*
X64131904Y-94641295D01*
X64131904Y-94641295D02*
X64179523Y-94831771D01*
X64179523Y-94831771D02*
X64179523Y-95069866D01*
X64179523Y-95069866D02*
X64131904Y-95260342D01*
X64131904Y-95260342D02*
X64084285Y-95355580D01*
X64084285Y-95355580D02*
X64036666Y-95403200D01*
X64036666Y-95403200D02*
X63941428Y-95450819D01*
X63941428Y-95450819D02*
X63846190Y-95450819D01*
X63846190Y-95450819D02*
X63750952Y-95403200D01*
X63750952Y-95403200D02*
X63703333Y-95355580D01*
X63703333Y-95355580D02*
X63655714Y-95260342D01*
X63655714Y-95260342D02*
X63608095Y-95069866D01*
X63608095Y-95069866D02*
X63608095Y-94831771D01*
X63608095Y-94831771D02*
X63655714Y-94641295D01*
X63655714Y-94641295D02*
X63703333Y-94546057D01*
X63703333Y-94546057D02*
X63750952Y-94498438D01*
X63750952Y-94498438D02*
X63846190Y-94450819D01*
X61036667Y-76353200D02*
X61179524Y-76400819D01*
X61179524Y-76400819D02*
X61417619Y-76400819D01*
X61417619Y-76400819D02*
X61512857Y-76353200D01*
X61512857Y-76353200D02*
X61560476Y-76305580D01*
X61560476Y-76305580D02*
X61608095Y-76210342D01*
X61608095Y-76210342D02*
X61608095Y-76115104D01*
X61608095Y-76115104D02*
X61560476Y-76019866D01*
X61560476Y-76019866D02*
X61512857Y-75972247D01*
X61512857Y-75972247D02*
X61417619Y-75924628D01*
X61417619Y-75924628D02*
X61227143Y-75877009D01*
X61227143Y-75877009D02*
X61131905Y-75829390D01*
X61131905Y-75829390D02*
X61084286Y-75781771D01*
X61084286Y-75781771D02*
X61036667Y-75686533D01*
X61036667Y-75686533D02*
X61036667Y-75591295D01*
X61036667Y-75591295D02*
X61084286Y-75496057D01*
X61084286Y-75496057D02*
X61131905Y-75448438D01*
X61131905Y-75448438D02*
X61227143Y-75400819D01*
X61227143Y-75400819D02*
X61465238Y-75400819D01*
X61465238Y-75400819D02*
X61608095Y-75448438D01*
X61941429Y-75400819D02*
X62179524Y-76400819D01*
X62179524Y-76400819D02*
X62370000Y-75686533D01*
X62370000Y-75686533D02*
X62560476Y-76400819D01*
X62560476Y-76400819D02*
X62798572Y-75400819D01*
X63084286Y-75400819D02*
X63750952Y-75400819D01*
X63750952Y-75400819D02*
X63322381Y-76400819D01*
X116071905Y-109784819D02*
X116071905Y-108784819D01*
X116071905Y-108784819D02*
X116310000Y-108784819D01*
X116310000Y-108784819D02*
X116452857Y-108832438D01*
X116452857Y-108832438D02*
X116548095Y-108927676D01*
X116548095Y-108927676D02*
X116595714Y-109022914D01*
X116595714Y-109022914D02*
X116643333Y-109213390D01*
X116643333Y-109213390D02*
X116643333Y-109356247D01*
X116643333Y-109356247D02*
X116595714Y-109546723D01*
X116595714Y-109546723D02*
X116548095Y-109641961D01*
X116548095Y-109641961D02*
X116452857Y-109737200D01*
X116452857Y-109737200D02*
X116310000Y-109784819D01*
X116310000Y-109784819D02*
X116071905Y-109784819D01*
X117500476Y-108784819D02*
X117310000Y-108784819D01*
X117310000Y-108784819D02*
X117214762Y-108832438D01*
X117214762Y-108832438D02*
X117167143Y-108880057D01*
X117167143Y-108880057D02*
X117071905Y-109022914D01*
X117071905Y-109022914D02*
X117024286Y-109213390D01*
X117024286Y-109213390D02*
X117024286Y-109594342D01*
X117024286Y-109594342D02*
X117071905Y-109689580D01*
X117071905Y-109689580D02*
X117119524Y-109737200D01*
X117119524Y-109737200D02*
X117214762Y-109784819D01*
X117214762Y-109784819D02*
X117405238Y-109784819D01*
X117405238Y-109784819D02*
X117500476Y-109737200D01*
X117500476Y-109737200D02*
X117548095Y-109689580D01*
X117548095Y-109689580D02*
X117595714Y-109594342D01*
X117595714Y-109594342D02*
X117595714Y-109356247D01*
X117595714Y-109356247D02*
X117548095Y-109261009D01*
X117548095Y-109261009D02*
X117500476Y-109213390D01*
X117500476Y-109213390D02*
X117405238Y-109165771D01*
X117405238Y-109165771D02*
X117214762Y-109165771D01*
X117214762Y-109165771D02*
X117119524Y-109213390D01*
X117119524Y-109213390D02*
X117071905Y-109261009D01*
X117071905Y-109261009D02*
X117024286Y-109356247D01*
X112738095Y-110104819D02*
X112738095Y-109104819D01*
X113309523Y-110104819D02*
X112880952Y-109533390D01*
X113309523Y-109104819D02*
X112738095Y-109676247D01*
X116071905Y-103854819D02*
X116071905Y-102854819D01*
X116071905Y-102854819D02*
X116310000Y-102854819D01*
X116310000Y-102854819D02*
X116452857Y-102902438D01*
X116452857Y-102902438D02*
X116548095Y-102997676D01*
X116548095Y-102997676D02*
X116595714Y-103092914D01*
X116595714Y-103092914D02*
X116643333Y-103283390D01*
X116643333Y-103283390D02*
X116643333Y-103426247D01*
X116643333Y-103426247D02*
X116595714Y-103616723D01*
X116595714Y-103616723D02*
X116548095Y-103711961D01*
X116548095Y-103711961D02*
X116452857Y-103807200D01*
X116452857Y-103807200D02*
X116310000Y-103854819D01*
X116310000Y-103854819D02*
X116071905Y-103854819D01*
X117548095Y-102854819D02*
X117071905Y-102854819D01*
X117071905Y-102854819D02*
X117024286Y-103331009D01*
X117024286Y-103331009D02*
X117071905Y-103283390D01*
X117071905Y-103283390D02*
X117167143Y-103235771D01*
X117167143Y-103235771D02*
X117405238Y-103235771D01*
X117405238Y-103235771D02*
X117500476Y-103283390D01*
X117500476Y-103283390D02*
X117548095Y-103331009D01*
X117548095Y-103331009D02*
X117595714Y-103426247D01*
X117595714Y-103426247D02*
X117595714Y-103664342D01*
X117595714Y-103664342D02*
X117548095Y-103759580D01*
X117548095Y-103759580D02*
X117500476Y-103807200D01*
X117500476Y-103807200D02*
X117405238Y-103854819D01*
X117405238Y-103854819D02*
X117167143Y-103854819D01*
X117167143Y-103854819D02*
X117071905Y-103807200D01*
X117071905Y-103807200D02*
X117024286Y-103759580D01*
X112738095Y-104174819D02*
X112738095Y-103174819D01*
X113309523Y-104174819D02*
X112880952Y-103603390D01*
X113309523Y-103174819D02*
X112738095Y-103746247D01*
X127351905Y-103854819D02*
X127351905Y-102854819D01*
X127351905Y-102854819D02*
X127590000Y-102854819D01*
X127590000Y-102854819D02*
X127732857Y-102902438D01*
X127732857Y-102902438D02*
X127828095Y-102997676D01*
X127828095Y-102997676D02*
X127875714Y-103092914D01*
X127875714Y-103092914D02*
X127923333Y-103283390D01*
X127923333Y-103283390D02*
X127923333Y-103426247D01*
X127923333Y-103426247D02*
X127875714Y-103616723D01*
X127875714Y-103616723D02*
X127828095Y-103711961D01*
X127828095Y-103711961D02*
X127732857Y-103807200D01*
X127732857Y-103807200D02*
X127590000Y-103854819D01*
X127590000Y-103854819D02*
X127351905Y-103854819D01*
X128304286Y-102950057D02*
X128351905Y-102902438D01*
X128351905Y-102902438D02*
X128447143Y-102854819D01*
X128447143Y-102854819D02*
X128685238Y-102854819D01*
X128685238Y-102854819D02*
X128780476Y-102902438D01*
X128780476Y-102902438D02*
X128828095Y-102950057D01*
X128828095Y-102950057D02*
X128875714Y-103045295D01*
X128875714Y-103045295D02*
X128875714Y-103140533D01*
X128875714Y-103140533D02*
X128828095Y-103283390D01*
X128828095Y-103283390D02*
X128256667Y-103854819D01*
X128256667Y-103854819D02*
X128875714Y-103854819D01*
X124018095Y-104174819D02*
X124018095Y-103174819D01*
X124589523Y-104174819D02*
X124160952Y-103603390D01*
X124589523Y-103174819D02*
X124018095Y-103746247D01*
X80086667Y-76353200D02*
X80229524Y-76400819D01*
X80229524Y-76400819D02*
X80467619Y-76400819D01*
X80467619Y-76400819D02*
X80562857Y-76353200D01*
X80562857Y-76353200D02*
X80610476Y-76305580D01*
X80610476Y-76305580D02*
X80658095Y-76210342D01*
X80658095Y-76210342D02*
X80658095Y-76115104D01*
X80658095Y-76115104D02*
X80610476Y-76019866D01*
X80610476Y-76019866D02*
X80562857Y-75972247D01*
X80562857Y-75972247D02*
X80467619Y-75924628D01*
X80467619Y-75924628D02*
X80277143Y-75877009D01*
X80277143Y-75877009D02*
X80181905Y-75829390D01*
X80181905Y-75829390D02*
X80134286Y-75781771D01*
X80134286Y-75781771D02*
X80086667Y-75686533D01*
X80086667Y-75686533D02*
X80086667Y-75591295D01*
X80086667Y-75591295D02*
X80134286Y-75496057D01*
X80134286Y-75496057D02*
X80181905Y-75448438D01*
X80181905Y-75448438D02*
X80277143Y-75400819D01*
X80277143Y-75400819D02*
X80515238Y-75400819D01*
X80515238Y-75400819D02*
X80658095Y-75448438D01*
X80991429Y-75400819D02*
X81229524Y-76400819D01*
X81229524Y-76400819D02*
X81420000Y-75686533D01*
X81420000Y-75686533D02*
X81610476Y-76400819D01*
X81610476Y-76400819D02*
X81848572Y-75400819D01*
X82658095Y-75734152D02*
X82658095Y-76400819D01*
X82420000Y-75353200D02*
X82181905Y-76067485D01*
X82181905Y-76067485D02*
X82800952Y-76067485D01*
X81086666Y-50404819D02*
X81086666Y-51119104D01*
X81086666Y-51119104D02*
X81039047Y-51261961D01*
X81039047Y-51261961D02*
X80943809Y-51357200D01*
X80943809Y-51357200D02*
X80800952Y-51404819D01*
X80800952Y-51404819D02*
X80705714Y-51404819D01*
X82086666Y-51404819D02*
X81515238Y-51404819D01*
X81800952Y-51404819D02*
X81800952Y-50404819D01*
X81800952Y-50404819D02*
X81705714Y-50547676D01*
X81705714Y-50547676D02*
X81610476Y-50642914D01*
X81610476Y-50642914D02*
X81515238Y-50690533D01*
X113226667Y-76872200D02*
X113369524Y-76919819D01*
X113369524Y-76919819D02*
X113607619Y-76919819D01*
X113607619Y-76919819D02*
X113702857Y-76872200D01*
X113702857Y-76872200D02*
X113750476Y-76824580D01*
X113750476Y-76824580D02*
X113798095Y-76729342D01*
X113798095Y-76729342D02*
X113798095Y-76634104D01*
X113798095Y-76634104D02*
X113750476Y-76538866D01*
X113750476Y-76538866D02*
X113702857Y-76491247D01*
X113702857Y-76491247D02*
X113607619Y-76443628D01*
X113607619Y-76443628D02*
X113417143Y-76396009D01*
X113417143Y-76396009D02*
X113321905Y-76348390D01*
X113321905Y-76348390D02*
X113274286Y-76300771D01*
X113274286Y-76300771D02*
X113226667Y-76205533D01*
X113226667Y-76205533D02*
X113226667Y-76110295D01*
X113226667Y-76110295D02*
X113274286Y-76015057D01*
X113274286Y-76015057D02*
X113321905Y-75967438D01*
X113321905Y-75967438D02*
X113417143Y-75919819D01*
X113417143Y-75919819D02*
X113655238Y-75919819D01*
X113655238Y-75919819D02*
X113798095Y-75967438D01*
X114131429Y-75919819D02*
X114369524Y-76919819D01*
X114369524Y-76919819D02*
X114560000Y-76205533D01*
X114560000Y-76205533D02*
X114750476Y-76919819D01*
X114750476Y-76919819D02*
X114988572Y-75919819D01*
X115893333Y-76919819D02*
X115321905Y-76919819D01*
X115607619Y-76919819D02*
X115607619Y-75919819D01*
X115607619Y-75919819D02*
X115512381Y-76062676D01*
X115512381Y-76062676D02*
X115417143Y-76157914D01*
X115417143Y-76157914D02*
X115321905Y-76205533D01*
X116071905Y-98204819D02*
X116071905Y-97204819D01*
X116071905Y-97204819D02*
X116310000Y-97204819D01*
X116310000Y-97204819D02*
X116452857Y-97252438D01*
X116452857Y-97252438D02*
X116548095Y-97347676D01*
X116548095Y-97347676D02*
X116595714Y-97442914D01*
X116595714Y-97442914D02*
X116643333Y-97633390D01*
X116643333Y-97633390D02*
X116643333Y-97776247D01*
X116643333Y-97776247D02*
X116595714Y-97966723D01*
X116595714Y-97966723D02*
X116548095Y-98061961D01*
X116548095Y-98061961D02*
X116452857Y-98157200D01*
X116452857Y-98157200D02*
X116310000Y-98204819D01*
X116310000Y-98204819D02*
X116071905Y-98204819D01*
X117500476Y-97538152D02*
X117500476Y-98204819D01*
X117262381Y-97157200D02*
X117024286Y-97871485D01*
X117024286Y-97871485D02*
X117643333Y-97871485D01*
X112738095Y-98524819D02*
X112738095Y-97524819D01*
X113309523Y-98524819D02*
X112880952Y-97953390D01*
X113309523Y-97524819D02*
X112738095Y-98096247D01*
X99136667Y-95403200D02*
X99279524Y-95450819D01*
X99279524Y-95450819D02*
X99517619Y-95450819D01*
X99517619Y-95450819D02*
X99612857Y-95403200D01*
X99612857Y-95403200D02*
X99660476Y-95355580D01*
X99660476Y-95355580D02*
X99708095Y-95260342D01*
X99708095Y-95260342D02*
X99708095Y-95165104D01*
X99708095Y-95165104D02*
X99660476Y-95069866D01*
X99660476Y-95069866D02*
X99612857Y-95022247D01*
X99612857Y-95022247D02*
X99517619Y-94974628D01*
X99517619Y-94974628D02*
X99327143Y-94927009D01*
X99327143Y-94927009D02*
X99231905Y-94879390D01*
X99231905Y-94879390D02*
X99184286Y-94831771D01*
X99184286Y-94831771D02*
X99136667Y-94736533D01*
X99136667Y-94736533D02*
X99136667Y-94641295D01*
X99136667Y-94641295D02*
X99184286Y-94546057D01*
X99184286Y-94546057D02*
X99231905Y-94498438D01*
X99231905Y-94498438D02*
X99327143Y-94450819D01*
X99327143Y-94450819D02*
X99565238Y-94450819D01*
X99565238Y-94450819D02*
X99708095Y-94498438D01*
X100041429Y-94450819D02*
X100279524Y-95450819D01*
X100279524Y-95450819D02*
X100470000Y-94736533D01*
X100470000Y-94736533D02*
X100660476Y-95450819D01*
X100660476Y-95450819D02*
X100898572Y-94450819D01*
X101327143Y-95450819D02*
X101517619Y-95450819D01*
X101517619Y-95450819D02*
X101612857Y-95403200D01*
X101612857Y-95403200D02*
X101660476Y-95355580D01*
X101660476Y-95355580D02*
X101755714Y-95212723D01*
X101755714Y-95212723D02*
X101803333Y-95022247D01*
X101803333Y-95022247D02*
X101803333Y-94641295D01*
X101803333Y-94641295D02*
X101755714Y-94546057D01*
X101755714Y-94546057D02*
X101708095Y-94498438D01*
X101708095Y-94498438D02*
X101612857Y-94450819D01*
X101612857Y-94450819D02*
X101422381Y-94450819D01*
X101422381Y-94450819D02*
X101327143Y-94498438D01*
X101327143Y-94498438D02*
X101279524Y-94546057D01*
X101279524Y-94546057D02*
X101231905Y-94641295D01*
X101231905Y-94641295D02*
X101231905Y-94879390D01*
X101231905Y-94879390D02*
X101279524Y-94974628D01*
X101279524Y-94974628D02*
X101327143Y-95022247D01*
X101327143Y-95022247D02*
X101422381Y-95069866D01*
X101422381Y-95069866D02*
X101612857Y-95069866D01*
X101612857Y-95069866D02*
X101708095Y-95022247D01*
X101708095Y-95022247D02*
X101755714Y-94974628D01*
X101755714Y-94974628D02*
X101803333Y-94879390D01*
X99136667Y-76353200D02*
X99279524Y-76400819D01*
X99279524Y-76400819D02*
X99517619Y-76400819D01*
X99517619Y-76400819D02*
X99612857Y-76353200D01*
X99612857Y-76353200D02*
X99660476Y-76305580D01*
X99660476Y-76305580D02*
X99708095Y-76210342D01*
X99708095Y-76210342D02*
X99708095Y-76115104D01*
X99708095Y-76115104D02*
X99660476Y-76019866D01*
X99660476Y-76019866D02*
X99612857Y-75972247D01*
X99612857Y-75972247D02*
X99517619Y-75924628D01*
X99517619Y-75924628D02*
X99327143Y-75877009D01*
X99327143Y-75877009D02*
X99231905Y-75829390D01*
X99231905Y-75829390D02*
X99184286Y-75781771D01*
X99184286Y-75781771D02*
X99136667Y-75686533D01*
X99136667Y-75686533D02*
X99136667Y-75591295D01*
X99136667Y-75591295D02*
X99184286Y-75496057D01*
X99184286Y-75496057D02*
X99231905Y-75448438D01*
X99231905Y-75448438D02*
X99327143Y-75400819D01*
X99327143Y-75400819D02*
X99565238Y-75400819D01*
X99565238Y-75400819D02*
X99708095Y-75448438D01*
X100041429Y-75400819D02*
X100279524Y-76400819D01*
X100279524Y-76400819D02*
X100470000Y-75686533D01*
X100470000Y-75686533D02*
X100660476Y-76400819D01*
X100660476Y-76400819D02*
X100898572Y-75400819D01*
X101708095Y-75400819D02*
X101517619Y-75400819D01*
X101517619Y-75400819D02*
X101422381Y-75448438D01*
X101422381Y-75448438D02*
X101374762Y-75496057D01*
X101374762Y-75496057D02*
X101279524Y-75638914D01*
X101279524Y-75638914D02*
X101231905Y-75829390D01*
X101231905Y-75829390D02*
X101231905Y-76210342D01*
X101231905Y-76210342D02*
X101279524Y-76305580D01*
X101279524Y-76305580D02*
X101327143Y-76353200D01*
X101327143Y-76353200D02*
X101422381Y-76400819D01*
X101422381Y-76400819D02*
X101612857Y-76400819D01*
X101612857Y-76400819D02*
X101708095Y-76353200D01*
X101708095Y-76353200D02*
X101755714Y-76305580D01*
X101755714Y-76305580D02*
X101803333Y-76210342D01*
X101803333Y-76210342D02*
X101803333Y-75972247D01*
X101803333Y-75972247D02*
X101755714Y-75877009D01*
X101755714Y-75877009D02*
X101708095Y-75829390D01*
X101708095Y-75829390D02*
X101612857Y-75781771D01*
X101612857Y-75781771D02*
X101422381Y-75781771D01*
X101422381Y-75781771D02*
X101327143Y-75829390D01*
X101327143Y-75829390D02*
X101279524Y-75877009D01*
X101279524Y-75877009D02*
X101231905Y-75972247D01*
X80086667Y-95403200D02*
X80229524Y-95450819D01*
X80229524Y-95450819D02*
X80467619Y-95450819D01*
X80467619Y-95450819D02*
X80562857Y-95403200D01*
X80562857Y-95403200D02*
X80610476Y-95355580D01*
X80610476Y-95355580D02*
X80658095Y-95260342D01*
X80658095Y-95260342D02*
X80658095Y-95165104D01*
X80658095Y-95165104D02*
X80610476Y-95069866D01*
X80610476Y-95069866D02*
X80562857Y-95022247D01*
X80562857Y-95022247D02*
X80467619Y-94974628D01*
X80467619Y-94974628D02*
X80277143Y-94927009D01*
X80277143Y-94927009D02*
X80181905Y-94879390D01*
X80181905Y-94879390D02*
X80134286Y-94831771D01*
X80134286Y-94831771D02*
X80086667Y-94736533D01*
X80086667Y-94736533D02*
X80086667Y-94641295D01*
X80086667Y-94641295D02*
X80134286Y-94546057D01*
X80134286Y-94546057D02*
X80181905Y-94498438D01*
X80181905Y-94498438D02*
X80277143Y-94450819D01*
X80277143Y-94450819D02*
X80515238Y-94450819D01*
X80515238Y-94450819D02*
X80658095Y-94498438D01*
X80991429Y-94450819D02*
X81229524Y-95450819D01*
X81229524Y-95450819D02*
X81420000Y-94736533D01*
X81420000Y-94736533D02*
X81610476Y-95450819D01*
X81610476Y-95450819D02*
X81848572Y-94450819D01*
X82372381Y-94879390D02*
X82277143Y-94831771D01*
X82277143Y-94831771D02*
X82229524Y-94784152D01*
X82229524Y-94784152D02*
X82181905Y-94688914D01*
X82181905Y-94688914D02*
X82181905Y-94641295D01*
X82181905Y-94641295D02*
X82229524Y-94546057D01*
X82229524Y-94546057D02*
X82277143Y-94498438D01*
X82277143Y-94498438D02*
X82372381Y-94450819D01*
X82372381Y-94450819D02*
X82562857Y-94450819D01*
X82562857Y-94450819D02*
X82658095Y-94498438D01*
X82658095Y-94498438D02*
X82705714Y-94546057D01*
X82705714Y-94546057D02*
X82753333Y-94641295D01*
X82753333Y-94641295D02*
X82753333Y-94688914D01*
X82753333Y-94688914D02*
X82705714Y-94784152D01*
X82705714Y-94784152D02*
X82658095Y-94831771D01*
X82658095Y-94831771D02*
X82562857Y-94879390D01*
X82562857Y-94879390D02*
X82372381Y-94879390D01*
X82372381Y-94879390D02*
X82277143Y-94927009D01*
X82277143Y-94927009D02*
X82229524Y-94974628D01*
X82229524Y-94974628D02*
X82181905Y-95069866D01*
X82181905Y-95069866D02*
X82181905Y-95260342D01*
X82181905Y-95260342D02*
X82229524Y-95355580D01*
X82229524Y-95355580D02*
X82277143Y-95403200D01*
X82277143Y-95403200D02*
X82372381Y-95450819D01*
X82372381Y-95450819D02*
X82562857Y-95450819D01*
X82562857Y-95450819D02*
X82658095Y-95403200D01*
X82658095Y-95403200D02*
X82705714Y-95355580D01*
X82705714Y-95355580D02*
X82753333Y-95260342D01*
X82753333Y-95260342D02*
X82753333Y-95069866D01*
X82753333Y-95069866D02*
X82705714Y-94974628D01*
X82705714Y-94974628D02*
X82658095Y-94927009D01*
X82658095Y-94927009D02*
X82562857Y-94879390D01*
X127351905Y-109784819D02*
X127351905Y-108784819D01*
X127351905Y-108784819D02*
X127590000Y-108784819D01*
X127590000Y-108784819D02*
X127732857Y-108832438D01*
X127732857Y-108832438D02*
X127828095Y-108927676D01*
X127828095Y-108927676D02*
X127875714Y-109022914D01*
X127875714Y-109022914D02*
X127923333Y-109213390D01*
X127923333Y-109213390D02*
X127923333Y-109356247D01*
X127923333Y-109356247D02*
X127875714Y-109546723D01*
X127875714Y-109546723D02*
X127828095Y-109641961D01*
X127828095Y-109641961D02*
X127732857Y-109737200D01*
X127732857Y-109737200D02*
X127590000Y-109784819D01*
X127590000Y-109784819D02*
X127351905Y-109784819D01*
X128256667Y-108784819D02*
X128875714Y-108784819D01*
X128875714Y-108784819D02*
X128542381Y-109165771D01*
X128542381Y-109165771D02*
X128685238Y-109165771D01*
X128685238Y-109165771D02*
X128780476Y-109213390D01*
X128780476Y-109213390D02*
X128828095Y-109261009D01*
X128828095Y-109261009D02*
X128875714Y-109356247D01*
X128875714Y-109356247D02*
X128875714Y-109594342D01*
X128875714Y-109594342D02*
X128828095Y-109689580D01*
X128828095Y-109689580D02*
X128780476Y-109737200D01*
X128780476Y-109737200D02*
X128685238Y-109784819D01*
X128685238Y-109784819D02*
X128399524Y-109784819D01*
X128399524Y-109784819D02*
X128304286Y-109737200D01*
X128304286Y-109737200D02*
X128256667Y-109689580D01*
X124018095Y-110104819D02*
X124018095Y-109104819D01*
X124589523Y-110104819D02*
X124160952Y-109533390D01*
X124589523Y-109104819D02*
X124018095Y-109676247D01*
%TO.C,D1*%
D12*
X125320000Y-99570000D02*
X125970000Y-99570000D01*
X126570000Y-98450000D02*
X126570000Y-100690000D01*
X126690000Y-98450000D02*
X126690000Y-100690000D01*
X126810000Y-98450000D02*
X126810000Y-100690000D01*
X130860000Y-99570000D02*
X130210000Y-99570000D01*
X125970000Y-98450000D02*
X130210000Y-98450000D01*
X130210000Y-100690000D01*
X125970000Y-100690000D01*
X125970000Y-98450000D01*
%TO.C,SW10*%
X55385000Y-95885000D02*
X69355000Y-95885000D01*
X55385000Y-109855000D02*
X55385000Y-95885000D01*
X69355000Y-95885000D02*
X69355000Y-109855000D01*
X69355000Y-109855000D02*
X55385000Y-109855000D01*
%TO.C,SW7*%
X55385000Y-76835000D02*
X69355000Y-76835000D01*
X55385000Y-90805000D02*
X55385000Y-76835000D01*
X69355000Y-76835000D02*
X69355000Y-90805000D01*
X69355000Y-90805000D02*
X55385000Y-90805000D01*
%TO.C,D6*%
X114040000Y-111450000D02*
X114690000Y-111450000D01*
X115290000Y-110330000D02*
X115290000Y-112570000D01*
X115410000Y-110330000D02*
X115410000Y-112570000D01*
X115530000Y-110330000D02*
X115530000Y-112570000D01*
X119580000Y-111450000D02*
X118930000Y-111450000D01*
X114690000Y-110330000D02*
X118930000Y-110330000D01*
X118930000Y-112570000D01*
X114690000Y-112570000D01*
X114690000Y-110330000D01*
%TO.C,D5*%
X114040000Y-105520000D02*
X114690000Y-105520000D01*
X115290000Y-104400000D02*
X115290000Y-106640000D01*
X115410000Y-104400000D02*
X115410000Y-106640000D01*
X115530000Y-104400000D02*
X115530000Y-106640000D01*
X119580000Y-105520000D02*
X118930000Y-105520000D01*
X114690000Y-104400000D02*
X118930000Y-104400000D01*
X118930000Y-106640000D01*
X114690000Y-106640000D01*
X114690000Y-104400000D01*
%TO.C,D2*%
X125320000Y-105520000D02*
X125970000Y-105520000D01*
X126570000Y-104400000D02*
X126570000Y-106640000D01*
X126690000Y-104400000D02*
X126690000Y-106640000D01*
X126810000Y-104400000D02*
X126810000Y-106640000D01*
X130860000Y-105520000D02*
X130210000Y-105520000D01*
X125970000Y-104400000D02*
X130210000Y-104400000D01*
X130210000Y-106640000D01*
X125970000Y-106640000D01*
X125970000Y-104400000D01*
D13*
%TO.C,G\u002A\u002A\u002A*%
G36*
X125974642Y-65410407D02*
G01*
X125932308Y-65452741D01*
X125889975Y-65410407D01*
X125932308Y-65368074D01*
X125974642Y-65410407D01*
G37*
G36*
X126838164Y-66860895D02*
G01*
X126969743Y-67102602D01*
X127075308Y-67315407D01*
X127204740Y-67599756D01*
X127290696Y-67821954D01*
X127318120Y-67942050D01*
X127314793Y-67950811D01*
X127261836Y-67901618D01*
X127162000Y-67730275D01*
X127034402Y-67470578D01*
X126998705Y-67392010D01*
X126848982Y-67041099D01*
X126774504Y-66833423D01*
X126771991Y-66772262D01*
X126838164Y-66860895D01*
G37*
G36*
X134057909Y-76159050D02*
G01*
X134170375Y-76222341D01*
X134261897Y-76396444D01*
X134258190Y-76591974D01*
X134178515Y-76755432D01*
X134042136Y-76833319D01*
X133954475Y-76821983D01*
X133855374Y-76736566D01*
X133888527Y-76650273D01*
X133975642Y-76628741D01*
X134089763Y-76595738D01*
X134055786Y-76494023D01*
X133872328Y-76319531D01*
X133869808Y-76317466D01*
X133636975Y-76126830D01*
X133852875Y-76123785D01*
X134057909Y-76159050D01*
G37*
G36*
X133230575Y-74409983D02*
G01*
X133383926Y-74568061D01*
X133490994Y-74751496D01*
X133509975Y-74840374D01*
X133460330Y-75028188D01*
X133343445Y-75124538D01*
X133207400Y-75097674D01*
X133172175Y-75063451D01*
X133118265Y-74967755D01*
X133201095Y-74935174D01*
X133266775Y-74932725D01*
X133467642Y-74930043D01*
X133234808Y-74756330D01*
X133077418Y-74601289D01*
X133003342Y-74454221D01*
X133028013Y-74358203D01*
X133086642Y-74342741D01*
X133230575Y-74409983D01*
G37*
G36*
X124939092Y-63044126D02*
G01*
X125172490Y-63102901D01*
X125306071Y-63182377D01*
X125320675Y-63232586D01*
X125361892Y-63345877D01*
X125487924Y-63519349D01*
X125541716Y-63579806D01*
X125728116Y-63815839D01*
X125873726Y-64061340D01*
X125888901Y-64095482D01*
X126045140Y-64313683D01*
X126257304Y-64415514D01*
X126476377Y-64382544D01*
X126540118Y-64340362D01*
X126632120Y-64278391D01*
X126649462Y-64331115D01*
X126618114Y-64479074D01*
X126538591Y-64699084D01*
X126446908Y-64844879D01*
X126401384Y-65007327D01*
X126487180Y-65252428D01*
X126696909Y-65565708D01*
X126978765Y-65886967D01*
X127221765Y-66140254D01*
X127459610Y-66388671D01*
X127576538Y-66511074D01*
X127777386Y-66742239D01*
X127993863Y-67023969D01*
X128203221Y-67321937D01*
X128382712Y-67601820D01*
X128509589Y-67829293D01*
X128561103Y-67970030D01*
X128557702Y-67991564D01*
X128479331Y-68065101D01*
X128377108Y-68038426D01*
X128230110Y-67896998D01*
X128017413Y-67626273D01*
X128001781Y-67605161D01*
X127792247Y-67339368D01*
X127659163Y-67206021D01*
X127609894Y-67205001D01*
X127651807Y-67336187D01*
X127792264Y-67599459D01*
X127797548Y-67608494D01*
X128066144Y-67954098D01*
X128351267Y-68165114D01*
X128621390Y-68379725D01*
X128778145Y-68665540D01*
X128801974Y-68975731D01*
X128754996Y-69131877D01*
X128719788Y-69374653D01*
X128816153Y-69581596D01*
X129016128Y-69696976D01*
X129040713Y-69701328D01*
X129244889Y-69805389D01*
X129428145Y-70020869D01*
X129555121Y-70290469D01*
X129590459Y-70556889D01*
X129586810Y-70586251D01*
X129594220Y-70831326D01*
X129687251Y-70997057D01*
X129801575Y-71040741D01*
X129849151Y-70967101D01*
X129869304Y-70789697D01*
X129869308Y-70786741D01*
X129846724Y-70608370D01*
X129792312Y-70532759D01*
X129791369Y-70532740D01*
X129720618Y-70459793D01*
X129658811Y-70284038D01*
X129658128Y-70280957D01*
X129573148Y-70087875D01*
X129406235Y-69833464D01*
X129215919Y-69598838D01*
X128999678Y-69338141D01*
X128905275Y-69168640D01*
X128908420Y-69148756D01*
X129086249Y-69148756D01*
X129100477Y-69228149D01*
X129209289Y-69390280D01*
X129359593Y-69567020D01*
X129560130Y-69819886D01*
X129710932Y-70074389D01*
X129763612Y-70215757D01*
X129805467Y-70381581D01*
X129832734Y-70391934D01*
X129852189Y-70298067D01*
X129824012Y-70115275D01*
X129715746Y-69853086D01*
X129610343Y-69663067D01*
X129411155Y-69357252D01*
X129265474Y-69185619D01*
X129154162Y-69129388D01*
X129086249Y-69148756D01*
X128908420Y-69148756D01*
X128919628Y-69077888D01*
X129090542Y-69009363D01*
X129299262Y-69096554D01*
X129535566Y-69332797D01*
X129723597Y-69601939D01*
X129891922Y-69885153D01*
X129981524Y-70089080D01*
X130009373Y-70274135D01*
X129992437Y-70500737D01*
X129987257Y-70540732D01*
X129963102Y-70809652D01*
X129992193Y-70984045D01*
X130091623Y-71134812D01*
X130144622Y-71193430D01*
X130308447Y-71408308D01*
X130416646Y-71620636D01*
X130420658Y-71633407D01*
X130479358Y-71771063D01*
X130606364Y-72030512D01*
X130788108Y-72385324D01*
X131011021Y-72809067D01*
X131261536Y-73275312D01*
X131298003Y-73342410D01*
X131582779Y-73860343D01*
X131799835Y-74241314D01*
X131958357Y-74499228D01*
X132067526Y-74647987D01*
X132136526Y-74701495D01*
X132174540Y-74673654D01*
X132175561Y-74671005D01*
X132186569Y-74469945D01*
X132119930Y-74219329D01*
X132119493Y-74218282D01*
X131922428Y-73609077D01*
X131788320Y-72906119D01*
X131721434Y-72165664D01*
X131724078Y-71750767D01*
X131828855Y-71750767D01*
X131831263Y-72169771D01*
X131834503Y-72234514D01*
X131863606Y-72539380D01*
X131915004Y-72884763D01*
X131981749Y-73242159D01*
X132056896Y-73583066D01*
X132133496Y-73878979D01*
X132204604Y-74101396D01*
X132263270Y-74221812D01*
X132302550Y-74211726D01*
X132309106Y-74181775D01*
X132306791Y-74121529D01*
X132607137Y-74121529D01*
X132636699Y-74145217D01*
X132810363Y-74126463D01*
X132832642Y-74123296D01*
X133166965Y-74143322D01*
X133382975Y-74247973D01*
X133593351Y-74378857D01*
X133669691Y-74406276D01*
X133621928Y-74342741D01*
X133808443Y-74342741D01*
X133817366Y-74412711D01*
X133882701Y-74595061D01*
X133976709Y-74818942D01*
X134087486Y-75076339D01*
X134163771Y-75266806D01*
X134187308Y-75341053D01*
X134227422Y-75346716D01*
X134230738Y-75343533D01*
X134221999Y-75249730D01*
X134155850Y-75048895D01*
X134062472Y-74821422D01*
X133945622Y-74571394D01*
X133852673Y-74398173D01*
X133808443Y-74342741D01*
X133621928Y-74342741D01*
X133612269Y-74329893D01*
X133445139Y-74170925D01*
X133178472Y-73976658D01*
X132949595Y-73930000D01*
X132724682Y-74025119D01*
X132700657Y-74042541D01*
X132607137Y-74121529D01*
X132306791Y-74121529D01*
X132301879Y-73993726D01*
X132299471Y-73980200D01*
X132524612Y-73980200D01*
X132557921Y-73968858D01*
X132714192Y-73901599D01*
X132948077Y-73838030D01*
X132985245Y-73830428D01*
X133171935Y-73792407D01*
X133298308Y-73792407D01*
X133503567Y-74025241D01*
X133669041Y-74202167D01*
X133749389Y-74257100D01*
X133763975Y-74230499D01*
X133707179Y-74162431D01*
X133566980Y-74029588D01*
X133531142Y-73997666D01*
X133298308Y-73792407D01*
X133171935Y-73792407D01*
X133181259Y-73790508D01*
X133218322Y-73771530D01*
X133103784Y-73762520D01*
X133032521Y-73759810D01*
X132786792Y-73799705D01*
X132605198Y-73898241D01*
X132524612Y-73980200D01*
X132299471Y-73980200D01*
X132251893Y-73712926D01*
X132187374Y-73462108D01*
X132104915Y-73063874D01*
X132052303Y-72563828D01*
X132045546Y-72395407D01*
X132283386Y-72395407D01*
X132289168Y-72793051D01*
X132305613Y-73150227D01*
X132329908Y-73418350D01*
X132348629Y-73522051D01*
X132417039Y-73685566D01*
X132522342Y-73715960D01*
X132602629Y-73693264D01*
X132815506Y-73652605D01*
X133081532Y-73642893D01*
X133104892Y-73643963D01*
X133307711Y-73647442D01*
X133378489Y-73606428D01*
X133354005Y-73489664D01*
X133337726Y-73446071D01*
X133292656Y-73230186D01*
X133265606Y-72904098D01*
X133257581Y-72526079D01*
X133260170Y-72445923D01*
X133346518Y-72445923D01*
X133360254Y-72931392D01*
X133454466Y-73413400D01*
X133629742Y-73853520D01*
X133741200Y-74036276D01*
X133911622Y-74316269D01*
X134126754Y-74727492D01*
X134373020Y-75242188D01*
X134636845Y-75832600D01*
X134754786Y-76108725D01*
X134842495Y-76282199D01*
X134908569Y-76353074D01*
X134917722Y-76349883D01*
X134905081Y-76259254D01*
X134839366Y-76043060D01*
X134731024Y-75732705D01*
X134590501Y-75359591D01*
X134575424Y-75320915D01*
X134324078Y-74652457D01*
X134142249Y-74103573D01*
X134021896Y-73643309D01*
X133954983Y-73240709D01*
X133933470Y-72864820D01*
X133933440Y-72848853D01*
X133984022Y-72345586D01*
X134141627Y-71962550D01*
X134415491Y-71681729D01*
X134583086Y-71581897D01*
X134936530Y-71403387D01*
X134474202Y-71292476D01*
X134200806Y-71233810D01*
X134027960Y-71226722D01*
X133893286Y-71276665D01*
X133782280Y-71352983D01*
X133558119Y-71618293D01*
X133412669Y-71995415D01*
X133346518Y-72445923D01*
X133260170Y-72445923D01*
X133269588Y-72154404D01*
X133302631Y-71847345D01*
X133309496Y-71810301D01*
X133405028Y-71566919D01*
X133568257Y-71324106D01*
X133592208Y-71297345D01*
X133821399Y-71051996D01*
X133390520Y-70869556D01*
X133134536Y-70761219D01*
X132938233Y-70678232D01*
X132869018Y-70649040D01*
X132783962Y-70696616D01*
X132654134Y-70858661D01*
X132531429Y-71058685D01*
X132419073Y-71275481D01*
X132347003Y-71466695D01*
X132306311Y-71680334D01*
X132288089Y-71964407D01*
X132283428Y-72366922D01*
X132283386Y-72395407D01*
X132045546Y-72395407D01*
X132030358Y-72016847D01*
X132039899Y-71477810D01*
X132081746Y-71001594D01*
X132145825Y-70678479D01*
X132202806Y-70434276D01*
X132217699Y-70260524D01*
X132204721Y-70215265D01*
X132121566Y-70213123D01*
X132039693Y-70351957D01*
X131964295Y-70603452D01*
X131900562Y-70939294D01*
X131853685Y-71331170D01*
X131828855Y-71750767D01*
X131724078Y-71750767D01*
X131726033Y-71443962D01*
X131806382Y-70797267D01*
X131846899Y-70622479D01*
X131990718Y-70077217D01*
X131784656Y-69902812D01*
X131538099Y-69641848D01*
X131485918Y-69503673D01*
X131601395Y-69503673D01*
X131738813Y-69705675D01*
X132000514Y-69939863D01*
X132368697Y-70194435D01*
X132825565Y-70457590D01*
X133353317Y-70717526D01*
X133934156Y-70962442D01*
X134187308Y-71057144D01*
X134661185Y-71206564D01*
X135127660Y-71316057D01*
X135553149Y-71381245D01*
X135904069Y-71397750D01*
X136146837Y-71361194D01*
X136217053Y-71321755D01*
X136223899Y-71212332D01*
X136111395Y-71036438D01*
X135902555Y-70819295D01*
X135620388Y-70586124D01*
X135413792Y-70441340D01*
X134878104Y-70122444D01*
X134307434Y-69838692D01*
X133734070Y-69601588D01*
X133190303Y-69422632D01*
X132708423Y-69313326D01*
X132320720Y-69285172D01*
X132204501Y-69298201D01*
X131972495Y-69377154D01*
X131888393Y-69484620D01*
X131937616Y-69601435D01*
X132105586Y-69708436D01*
X132377723Y-69786459D01*
X132595443Y-69812069D01*
X133109243Y-69897654D01*
X133687114Y-70081244D01*
X134275131Y-70339390D01*
X134819371Y-70648645D01*
X135239017Y-70961615D01*
X135470004Y-71125527D01*
X135670410Y-71204610D01*
X135812428Y-71204172D01*
X135868252Y-71129526D01*
X135810079Y-70985982D01*
X135711308Y-70871407D01*
X135616795Y-70752229D01*
X135626021Y-70702078D01*
X135626642Y-70702074D01*
X135758476Y-70762054D01*
X135904606Y-70900762D01*
X136009904Y-71056352D01*
X136027555Y-71151866D01*
X135929449Y-71224183D01*
X135729815Y-71273706D01*
X135683523Y-71278689D01*
X135347843Y-71265849D01*
X134934560Y-71186298D01*
X134468213Y-71051674D01*
X133973339Y-70873617D01*
X133474479Y-70663765D01*
X132996170Y-70433756D01*
X132562953Y-70195229D01*
X132199365Y-69959823D01*
X131929947Y-69739176D01*
X131779236Y-69544928D01*
X131760216Y-69417890D01*
X131752435Y-69284701D01*
X131669896Y-69276075D01*
X131606056Y-69345657D01*
X131601395Y-69503673D01*
X131485918Y-69503673D01*
X131452174Y-69414318D01*
X131528472Y-69224650D01*
X131532572Y-69220407D01*
X131901308Y-69220407D01*
X131943642Y-69262741D01*
X131985975Y-69220407D01*
X131943642Y-69178074D01*
X131901308Y-69220407D01*
X131532572Y-69220407D01*
X131537386Y-69215425D01*
X131732966Y-69127625D01*
X132053797Y-69108132D01*
X132473063Y-69150764D01*
X132963947Y-69249339D01*
X133499629Y-69397674D01*
X134053295Y-69589587D01*
X134598125Y-69818895D01*
X134979888Y-70009048D01*
X135444637Y-70287937D01*
X135829801Y-70576998D01*
X136113805Y-70856248D01*
X136275079Y-71105706D01*
X136303975Y-71235545D01*
X136281794Y-71377387D01*
X136194054Y-71469031D01*
X136008961Y-71525231D01*
X135694720Y-71560741D01*
X135586418Y-71568507D01*
X135360386Y-71603430D01*
X135212160Y-71700374D01*
X135074150Y-71905423D01*
X135062873Y-71925466D01*
X134901634Y-72318052D01*
X134826680Y-72776226D01*
X134839666Y-73314148D01*
X134942245Y-73945981D01*
X135136070Y-74685885D01*
X135422795Y-75548022D01*
X135515340Y-75800873D01*
X135695656Y-76290059D01*
X135824380Y-76659846D01*
X135910336Y-76949023D01*
X135962346Y-77196380D01*
X135989235Y-77440706D01*
X135999826Y-77720792D01*
X136002153Y-77941074D01*
X135999965Y-78349101D01*
X135981440Y-78638198D01*
X135938053Y-78858588D01*
X135861280Y-79060495D01*
X135786587Y-79211074D01*
X135443290Y-79689921D01*
X134971757Y-80060681D01*
X134375872Y-80321182D01*
X133659523Y-80469249D01*
X133509975Y-80484504D01*
X133087814Y-80482307D01*
X132686838Y-80381955D01*
X132599109Y-80348677D01*
X132269918Y-80176837D01*
X131923856Y-79931611D01*
X131746040Y-79775107D01*
X131527900Y-79566858D01*
X131394291Y-79462700D01*
X131309347Y-79447653D01*
X131237201Y-79506737D01*
X131203354Y-79548451D01*
X131048464Y-79660520D01*
X130893991Y-79603784D01*
X130739668Y-79378047D01*
X130722904Y-79338074D01*
X130885308Y-79338074D01*
X130938248Y-79475978D01*
X131012308Y-79507407D01*
X131115736Y-79436821D01*
X131139308Y-79338074D01*
X131086369Y-79200170D01*
X131012308Y-79168741D01*
X130908880Y-79239327D01*
X130885308Y-79338074D01*
X130722904Y-79338074D01*
X130634133Y-79126407D01*
X130480679Y-78735189D01*
X130306608Y-78340629D01*
X130138141Y-77999417D01*
X130112326Y-77955056D01*
X130320119Y-77955056D01*
X130320681Y-77983407D01*
X130402529Y-78219404D01*
X130513103Y-78492022D01*
X130631740Y-78755983D01*
X130737778Y-78966010D01*
X130810551Y-79076825D01*
X130822944Y-79083956D01*
X130836986Y-79016448D01*
X130788865Y-78849807D01*
X130772473Y-78808907D01*
X130682155Y-78609619D01*
X130665442Y-78576074D01*
X130838626Y-78576074D01*
X130844077Y-78641207D01*
X130912843Y-78800917D01*
X130927642Y-78830074D01*
X131027458Y-79001506D01*
X131096870Y-79082999D01*
X131101323Y-79084074D01*
X131095873Y-79018941D01*
X131027107Y-78859231D01*
X131012308Y-78830074D01*
X130912492Y-78658642D01*
X130843079Y-78577149D01*
X130838626Y-78576074D01*
X130665442Y-78576074D01*
X130571745Y-78388017D01*
X130524192Y-78298778D01*
X130869332Y-78298778D01*
X130930544Y-78468225D01*
X131075281Y-78723750D01*
X131291097Y-79043357D01*
X131562878Y-79401705D01*
X131971188Y-79820141D01*
X132425300Y-80125467D01*
X132898324Y-80308969D01*
X133363368Y-80361932D01*
X133793541Y-80275642D01*
X133883327Y-80230752D01*
X134187308Y-80230752D01*
X134254018Y-80236407D01*
X134423661Y-80180439D01*
X134650509Y-80082301D01*
X134888833Y-79961447D01*
X135060082Y-79859476D01*
X135309723Y-79646718D01*
X135537457Y-79375453D01*
X135589238Y-79294967D01*
X135787728Y-78859573D01*
X135889593Y-78381435D01*
X135893694Y-77841149D01*
X135798891Y-77219311D01*
X135604045Y-76496517D01*
X135387987Y-75866741D01*
X135218484Y-75386130D01*
X135057488Y-74894337D01*
X134921945Y-74445397D01*
X134828800Y-74093347D01*
X134820880Y-74058380D01*
X134727212Y-73459942D01*
X134707435Y-72882962D01*
X134759471Y-72367829D01*
X134881242Y-71954932D01*
X134934457Y-71851231D01*
X135037864Y-71665227D01*
X135052490Y-71595369D01*
X134982102Y-71616000D01*
X134967923Y-71623445D01*
X134742968Y-71776564D01*
X134594503Y-71973414D01*
X134505979Y-72251669D01*
X134460850Y-72649005D01*
X134453388Y-72794947D01*
X134449116Y-73174963D01*
X134473974Y-73543207D01*
X134534628Y-73929069D01*
X134637748Y-74361938D01*
X134790000Y-74871204D01*
X134998052Y-75486254D01*
X135177910Y-75988456D01*
X135455911Y-76827755D01*
X135630706Y-77545228D01*
X135700436Y-78154704D01*
X135663242Y-78670014D01*
X135517263Y-79104987D01*
X135260641Y-79473454D01*
X134891516Y-79789244D01*
X134646379Y-79941821D01*
X134407445Y-80081058D01*
X134241412Y-80186203D01*
X134187308Y-80230752D01*
X133883327Y-80230752D01*
X133976853Y-80183992D01*
X134242096Y-79940690D01*
X134388431Y-79638843D01*
X134423338Y-79313898D01*
X134354297Y-79001299D01*
X134188787Y-78736495D01*
X133934287Y-78554930D01*
X133619792Y-78491828D01*
X133229502Y-78554820D01*
X132938185Y-78751511D01*
X132777111Y-78988200D01*
X132673858Y-79189863D01*
X132607117Y-79317048D01*
X132598540Y-79332287D01*
X132528259Y-79309097D01*
X132384829Y-79185593D01*
X132199384Y-78994871D01*
X132003060Y-78770027D01*
X131826991Y-78544158D01*
X131747894Y-78428059D01*
X131597230Y-78220706D01*
X131465293Y-78090656D01*
X131414475Y-78068225D01*
X131324354Y-78091248D01*
X131328716Y-78186229D01*
X131403922Y-78348807D01*
X131586055Y-78645895D01*
X131825837Y-78960153D01*
X132093099Y-79260203D01*
X132357672Y-79514668D01*
X132589386Y-79692171D01*
X132758073Y-79761334D01*
X132762134Y-79761407D01*
X132777894Y-79687722D01*
X132768713Y-79507084D01*
X132765150Y-79474545D01*
X132774179Y-79382919D01*
X132832642Y-79382919D01*
X132897672Y-79669984D01*
X133066636Y-79901832D01*
X133300339Y-80058671D01*
X133559589Y-80120706D01*
X133805192Y-80068145D01*
X133951701Y-79948072D01*
X134013620Y-79855930D01*
X133947904Y-79864115D01*
X133890975Y-79887875D01*
X133591914Y-79964009D01*
X133333304Y-79936694D01*
X133147873Y-79823938D01*
X133068353Y-79643752D01*
X133106158Y-79456050D01*
X133185989Y-79318417D01*
X133268868Y-79321857D01*
X133339997Y-79379824D01*
X133509826Y-79483629D01*
X133612108Y-79507407D01*
X133769371Y-79450640D01*
X133883362Y-79322695D01*
X133900749Y-79187107D01*
X133893267Y-79172449D01*
X133893775Y-79091663D01*
X133923315Y-79084074D01*
X134043642Y-79142293D01*
X134048576Y-79295856D01*
X133964477Y-79470231D01*
X133824424Y-79625687D01*
X133643869Y-79666867D01*
X133536180Y-79658788D01*
X133342189Y-79657818D01*
X133280810Y-79709297D01*
X133282226Y-79714740D01*
X133390431Y-79817897D01*
X133575910Y-79828816D01*
X133779009Y-79754874D01*
X133916731Y-79636251D01*
X134036698Y-79498850D01*
X134097580Y-79489724D01*
X134128400Y-79568075D01*
X134155711Y-79597113D01*
X134174833Y-79481784D01*
X134177487Y-79428197D01*
X134120673Y-79109759D01*
X133951878Y-78882833D01*
X133709970Y-78762001D01*
X133433817Y-78761845D01*
X133162286Y-78896945D01*
X133051834Y-79005903D01*
X132911456Y-79199939D01*
X132836508Y-79356545D01*
X132832642Y-79382919D01*
X132774179Y-79382919D01*
X132798557Y-79135544D01*
X132960636Y-78864244D01*
X133216409Y-78684838D01*
X133530899Y-78621516D01*
X133869131Y-78698470D01*
X133879940Y-78703512D01*
X134161039Y-78916223D01*
X134309445Y-79200918D01*
X134322060Y-79520590D01*
X134195787Y-79838235D01*
X133993895Y-80065010D01*
X133820486Y-80193902D01*
X133658530Y-80250888D01*
X133438737Y-80251929D01*
X133261702Y-80233689D01*
X132706880Y-80085412D01*
X132182815Y-79782976D01*
X131708219Y-79341129D01*
X131301804Y-78774617D01*
X131216650Y-78622047D01*
X131080876Y-78402829D01*
X130957170Y-78263542D01*
X130904092Y-78237407D01*
X130869332Y-78298778D01*
X130524192Y-78298778D01*
X130461258Y-78180675D01*
X130394301Y-78064939D01*
X131662691Y-78064939D01*
X131714075Y-78204381D01*
X131861420Y-78431099D01*
X131909594Y-78499871D01*
X132157813Y-78825456D01*
X132358757Y-79034464D01*
X132500173Y-79116261D01*
X132567042Y-79070423D01*
X132638730Y-78924060D01*
X132761041Y-78730951D01*
X132761436Y-78730387D01*
X132863619Y-78573317D01*
X132865880Y-78499629D01*
X132767030Y-78455136D01*
X132755311Y-78451402D01*
X132600132Y-78361273D01*
X132591505Y-78354166D01*
X133785679Y-78354166D01*
X134049994Y-78486287D01*
X134265514Y-78654168D01*
X134447591Y-78893831D01*
X134467295Y-78931400D01*
X134597317Y-79136102D01*
X134726663Y-79191205D01*
X134872289Y-79093009D01*
X135051154Y-78837813D01*
X135074178Y-78798988D01*
X135280348Y-78334674D01*
X135348792Y-77856762D01*
X135284024Y-77322071D01*
X135244971Y-77164905D01*
X135152900Y-76863910D01*
X135081348Y-76721998D01*
X135026008Y-76730750D01*
X135024317Y-76733672D01*
X134998746Y-76895655D01*
X135030267Y-77122693D01*
X135036457Y-77145395D01*
X135083804Y-77397338D01*
X135110001Y-77712570D01*
X135114286Y-78033432D01*
X135095898Y-78302265D01*
X135054075Y-78461409D01*
X135053845Y-78461771D01*
X135026048Y-78429322D01*
X135004660Y-78259768D01*
X134992918Y-77985307D01*
X134991642Y-77843060D01*
X134987784Y-77488781D01*
X134969465Y-77261764D01*
X134926562Y-77119993D01*
X134848953Y-77021452D01*
X134779975Y-76964412D01*
X134613222Y-76849874D01*
X134505803Y-76800004D01*
X134504808Y-76799956D01*
X134468712Y-76875027D01*
X134445708Y-77069178D01*
X134441308Y-77224686D01*
X134426818Y-77492254D01*
X134362464Y-77688778D01*
X134216924Y-77888599D01*
X134113494Y-78002732D01*
X133785679Y-78354166D01*
X132591505Y-78354166D01*
X132395671Y-78192827D01*
X132298302Y-78098234D01*
X132111272Y-77920904D01*
X131982679Y-77853521D01*
X131863799Y-77874919D01*
X131826687Y-77893364D01*
X131701988Y-77974143D01*
X131662691Y-78064939D01*
X130394301Y-78064939D01*
X130370711Y-78024164D01*
X130349299Y-77994915D01*
X130546642Y-77994915D01*
X130618786Y-78050380D01*
X130806734Y-78053525D01*
X131067762Y-78011544D01*
X131359142Y-77931629D01*
X131638149Y-77820976D01*
X131668746Y-77805986D01*
X132033176Y-77601853D01*
X132066027Y-77578856D01*
X132616331Y-77578856D01*
X132616413Y-77699040D01*
X132763538Y-77978614D01*
X133011767Y-78163026D01*
X133314697Y-78240279D01*
X133625929Y-78198375D01*
X133894823Y-78029589D01*
X134013818Y-77855275D01*
X134088345Y-77644278D01*
X134109331Y-77449903D01*
X134067702Y-77325456D01*
X134017975Y-77306074D01*
X133955861Y-77378950D01*
X133933308Y-77532240D01*
X133860079Y-77814889D01*
X133660923Y-78003434D01*
X133382975Y-78068074D01*
X133098447Y-78000708D01*
X132897852Y-77826819D01*
X132803965Y-77588724D01*
X132837446Y-77344214D01*
X133037795Y-77344214D01*
X133042317Y-77580112D01*
X133143739Y-77802878D01*
X133306227Y-77952966D01*
X133422459Y-77983407D01*
X133590364Y-77918600D01*
X133716841Y-77795235D01*
X133829294Y-77604397D01*
X133838854Y-77466475D01*
X133727769Y-77356697D01*
X133478288Y-77250289D01*
X133279962Y-77185569D01*
X133132568Y-77172649D01*
X133055270Y-77282700D01*
X133037795Y-77344214D01*
X132837446Y-77344214D01*
X132839565Y-77328737D01*
X132915825Y-77200190D01*
X133053748Y-77004353D01*
X133076253Y-76905681D01*
X133010338Y-76882741D01*
X132901851Y-76955312D01*
X132781321Y-77134273D01*
X132676797Y-77361497D01*
X132616331Y-77578856D01*
X132066027Y-77578856D01*
X132325351Y-77397321D01*
X132516566Y-77215079D01*
X132578642Y-77086800D01*
X132549309Y-77026067D01*
X132446337Y-77089896D01*
X132388142Y-77143477D01*
X132182655Y-77297173D01*
X131882858Y-77470998D01*
X131539012Y-77641317D01*
X131201379Y-77784499D01*
X130920224Y-77876909D01*
X130781863Y-77898741D01*
X130611871Y-77928610D01*
X130546642Y-77994915D01*
X130349299Y-77994915D01*
X130320119Y-77955056D01*
X130112326Y-77955056D01*
X130014882Y-77787603D01*
X129974436Y-77687074D01*
X130123308Y-77687074D01*
X130191081Y-77799322D01*
X130250308Y-77814074D01*
X130362557Y-77746301D01*
X130377308Y-77687074D01*
X130309535Y-77574825D01*
X130250308Y-77560074D01*
X130138060Y-77627847D01*
X130123308Y-77687074D01*
X129974436Y-77687074D01*
X129961157Y-77654070D01*
X130033956Y-77536210D01*
X130087671Y-77489416D01*
X130263700Y-77344699D01*
X129835102Y-76352278D01*
X129647350Y-75929074D01*
X129506956Y-75643925D01*
X129401648Y-75476400D01*
X129319155Y-75406069D01*
X129265828Y-75404506D01*
X129087855Y-75385583D01*
X128941999Y-75249777D01*
X128892998Y-75107097D01*
X129028080Y-75107097D01*
X129082013Y-75220556D01*
X129221895Y-75263873D01*
X129283220Y-75233391D01*
X129543272Y-75233391D01*
X129597730Y-75422793D01*
X129713245Y-75720969D01*
X129895663Y-76146889D01*
X129960534Y-76293899D01*
X130137719Y-76694710D01*
X130300565Y-77065030D01*
X130430788Y-77363160D01*
X130509093Y-77545001D01*
X130606935Y-77715033D01*
X130698083Y-77778163D01*
X130713444Y-77773304D01*
X130747201Y-77656027D01*
X130684711Y-77449711D01*
X130446445Y-76893608D01*
X130219066Y-76376786D01*
X130012424Y-75920426D01*
X129836369Y-75545705D01*
X129700753Y-75273803D01*
X129615426Y-75125899D01*
X129594142Y-75105022D01*
X129544025Y-75133791D01*
X129543272Y-75233391D01*
X129283220Y-75233391D01*
X129365869Y-75192310D01*
X129432167Y-75071580D01*
X129398368Y-74897420D01*
X129258277Y-74810857D01*
X129136153Y-74825299D01*
X129042473Y-74936605D01*
X129028080Y-75107097D01*
X128892998Y-75107097D01*
X128873068Y-75049064D01*
X128878366Y-74955058D01*
X128859858Y-74782556D01*
X128768950Y-74468921D01*
X128609063Y-74024433D01*
X128509957Y-73776031D01*
X128683975Y-73776031D01*
X128713670Y-73901934D01*
X128787770Y-74102371D01*
X128883796Y-74326644D01*
X128979271Y-74524054D01*
X129051714Y-74643905D01*
X129074792Y-74657478D01*
X129061133Y-74573411D01*
X129004701Y-74377685D01*
X128944271Y-74192005D01*
X128899019Y-74069154D01*
X129052209Y-74069154D01*
X129082022Y-74234861D01*
X129176710Y-74456895D01*
X129245076Y-74575574D01*
X129375018Y-74733351D01*
X129461161Y-74757957D01*
X129474893Y-74653258D01*
X129443808Y-74548708D01*
X129292086Y-74205593D01*
X129161429Y-74029509D01*
X129098624Y-74004074D01*
X129052209Y-74069154D01*
X128899019Y-74069154D01*
X128827526Y-73875061D01*
X128791031Y-73801953D01*
X128966129Y-73801953D01*
X128978637Y-73853950D01*
X129112506Y-73824676D01*
X129445975Y-73824676D01*
X129478057Y-73919633D01*
X129566805Y-74143297D01*
X129700970Y-74469260D01*
X129869303Y-74871110D01*
X130060557Y-75322440D01*
X130263481Y-75796838D01*
X130466829Y-76267895D01*
X130659351Y-76709202D01*
X130829799Y-77094348D01*
X130966924Y-77396924D01*
X130973861Y-77411907D01*
X131084694Y-77577324D01*
X131196368Y-77644741D01*
X131258438Y-77615804D01*
X131245122Y-77504354D01*
X131177125Y-77327241D01*
X131080486Y-77097718D01*
X130944089Y-76773537D01*
X130793785Y-76416147D01*
X130758577Y-76332407D01*
X130419469Y-75539205D01*
X130369336Y-75426786D01*
X130475268Y-75426786D01*
X130484391Y-75454038D01*
X130538955Y-75581376D01*
X130642375Y-75820215D01*
X130775722Y-76126881D01*
X130828396Y-76247741D01*
X130982284Y-76602774D01*
X131126704Y-76939674D01*
X131235616Y-77197604D01*
X131254279Y-77242703D01*
X131345684Y-77441491D01*
X131428431Y-77511589D01*
X131552090Y-77483315D01*
X131607622Y-77458796D01*
X131754241Y-77383316D01*
X131756310Y-77336221D01*
X131663281Y-77295413D01*
X131413270Y-77122697D01*
X131322146Y-76954463D01*
X131615117Y-76954463D01*
X131688960Y-77019712D01*
X131959107Y-77128711D01*
X132225464Y-77076600D01*
X132339141Y-76996618D01*
X132430280Y-76860632D01*
X132488004Y-76682857D01*
X132499170Y-76527670D01*
X132450634Y-76459443D01*
X132448827Y-76459407D01*
X132354721Y-76494740D01*
X132157943Y-76586148D01*
X131966297Y-76681045D01*
X131725818Y-76808207D01*
X131616184Y-76890277D01*
X131615117Y-76954463D01*
X131322146Y-76954463D01*
X131270096Y-76858369D01*
X131244981Y-76550574D01*
X131258682Y-76510705D01*
X131406197Y-76510705D01*
X131408169Y-76610377D01*
X131536505Y-76609733D01*
X131796687Y-76510578D01*
X131937200Y-76444565D01*
X132179936Y-76304957D01*
X132224496Y-76247741D01*
X132578102Y-76247741D01*
X132632411Y-76501741D01*
X132700893Y-76757503D01*
X132762954Y-76865603D01*
X132811173Y-76820146D01*
X132795669Y-76684456D01*
X132729315Y-76527892D01*
X133086642Y-76527892D01*
X133157116Y-76831711D01*
X133341571Y-77049412D01*
X133599551Y-77164330D01*
X133890601Y-77159800D01*
X134174267Y-77019157D01*
X134208475Y-76990022D01*
X134328676Y-76780581D01*
X134333946Y-76713407D01*
X134737642Y-76713407D01*
X134744354Y-76791426D01*
X134774978Y-76798074D01*
X134861196Y-76736613D01*
X134864642Y-76713407D01*
X134835755Y-76630942D01*
X134827305Y-76628741D01*
X134755019Y-76688069D01*
X134737642Y-76713407D01*
X134333946Y-76713407D01*
X134350128Y-76507141D01*
X134349320Y-76504306D01*
X134547873Y-76504306D01*
X134564827Y-76538441D01*
X134645559Y-76625974D01*
X134660411Y-76564244D01*
X134639858Y-76498089D01*
X134585090Y-76417074D01*
X134695308Y-76417074D01*
X134737642Y-76459407D01*
X134779975Y-76417074D01*
X134737642Y-76374741D01*
X134695308Y-76417074D01*
X134585090Y-76417074D01*
X134577525Y-76405883D01*
X134549370Y-76407789D01*
X134547873Y-76504306D01*
X134349320Y-76504306D01*
X134276231Y-76247741D01*
X134441308Y-76247741D01*
X134483642Y-76290074D01*
X134525975Y-76247741D01*
X134483642Y-76205407D01*
X134441308Y-76247741D01*
X134276231Y-76247741D01*
X134274590Y-76241980D01*
X134187308Y-76120741D01*
X134116628Y-76078407D01*
X134356642Y-76078407D01*
X134398975Y-76120741D01*
X134441308Y-76078407D01*
X134398975Y-76036074D01*
X134356642Y-76078407D01*
X134116628Y-76078407D01*
X133939595Y-75972373D01*
X133660470Y-75949695D01*
X133395475Y-76035861D01*
X133190151Y-76214025D01*
X133090037Y-76467341D01*
X133086642Y-76527892D01*
X132729315Y-76527892D01*
X132713626Y-76490872D01*
X132710735Y-76485650D01*
X132578102Y-76247741D01*
X132224496Y-76247741D01*
X132259442Y-76202869D01*
X132175674Y-76140685D01*
X131943446Y-76120741D01*
X131673641Y-76175271D01*
X131525109Y-76308913D01*
X131406197Y-76510705D01*
X131258682Y-76510705D01*
X131349149Y-76247454D01*
X131401413Y-76172000D01*
X131515120Y-76005702D01*
X131523387Y-75884162D01*
X131448849Y-75748015D01*
X131296343Y-75600955D01*
X131102234Y-75591013D01*
X130853810Y-75571647D01*
X130660697Y-75485044D01*
X130510823Y-75401574D01*
X130475268Y-75426786D01*
X130369336Y-75426786D01*
X130282355Y-75231741D01*
X130377308Y-75231741D01*
X130419642Y-75274074D01*
X130461975Y-75231741D01*
X130448447Y-75218213D01*
X130646520Y-75218213D01*
X130669223Y-75266925D01*
X130843995Y-75408323D01*
X131086475Y-75446786D01*
X131336473Y-75390356D01*
X131533800Y-75247076D01*
X131580305Y-75167834D01*
X131731975Y-75167834D01*
X131773605Y-75275187D01*
X131877542Y-75462823D01*
X132012358Y-75681118D01*
X132146624Y-75880449D01*
X132248911Y-76011193D01*
X132281870Y-76036074D01*
X132272393Y-75968359D01*
X132200339Y-75793467D01*
X132116011Y-75618732D01*
X132114867Y-75616684D01*
X132458216Y-75616684D01*
X132524638Y-75803241D01*
X132679951Y-76156819D01*
X132787161Y-76372704D01*
X132858557Y-76471397D01*
X132906429Y-76473404D01*
X132917613Y-76458913D01*
X132913479Y-76338835D01*
X132843961Y-76124886D01*
X132765143Y-75948511D01*
X132713448Y-75855981D01*
X132842957Y-75855981D01*
X132884033Y-75986816D01*
X132967448Y-76106479D01*
X133085004Y-76076464D01*
X133196236Y-75970640D01*
X133227150Y-75909074D01*
X134271975Y-75909074D01*
X134314308Y-75951407D01*
X134356642Y-75909074D01*
X134314308Y-75866741D01*
X134271975Y-75909074D01*
X133227150Y-75909074D01*
X133281572Y-75800692D01*
X133225848Y-75682859D01*
X133054331Y-75660542D01*
X133020112Y-75668132D01*
X132867326Y-75735345D01*
X132842957Y-75855981D01*
X132713448Y-75855981D01*
X132631618Y-75709514D01*
X132523921Y-75567275D01*
X132460103Y-75532697D01*
X132458216Y-75616684D01*
X132114867Y-75616684D01*
X131966219Y-75350513D01*
X131840705Y-75175604D01*
X131757047Y-75114640D01*
X131731975Y-75167834D01*
X131580305Y-75167834D01*
X131594715Y-75143281D01*
X131641406Y-74936108D01*
X131647308Y-74848220D01*
X131632469Y-74777242D01*
X131832940Y-74777242D01*
X131903525Y-74956216D01*
X132049475Y-75252750D01*
X132174308Y-75467399D01*
X132268419Y-75582868D01*
X132308253Y-75579018D01*
X132280062Y-75445220D01*
X132180091Y-75227126D01*
X132077028Y-75048667D01*
X131920721Y-74815842D01*
X131884462Y-74776819D01*
X132265079Y-74776819D01*
X132274695Y-74819097D01*
X132320353Y-75009613D01*
X132324642Y-75069332D01*
X132398278Y-75253018D01*
X132579705Y-75417879D01*
X132809693Y-75517169D01*
X132905890Y-75528074D01*
X133146413Y-75475137D01*
X133371557Y-75352595D01*
X133513471Y-75170509D01*
X133688911Y-75170509D01*
X133700728Y-75345636D01*
X133798254Y-75596858D01*
X133808482Y-75616945D01*
X133919495Y-75780254D01*
X134028598Y-75869865D01*
X134096130Y-75858172D01*
X134102642Y-75821688D01*
X134072914Y-75721655D01*
X133999143Y-75529707D01*
X133975642Y-75472681D01*
X133879462Y-75224912D01*
X133858844Y-75128197D01*
X133910850Y-75183552D01*
X134032538Y-75391994D01*
X134060308Y-75443407D01*
X134191179Y-75676520D01*
X134254741Y-75766100D01*
X134253039Y-75723093D01*
X134216742Y-75631035D01*
X134360383Y-75631035D01*
X134389540Y-75743104D01*
X134465054Y-75918727D01*
X134557711Y-76099858D01*
X134638296Y-76228452D01*
X134674271Y-76254667D01*
X134658941Y-76167072D01*
X134581231Y-75985577D01*
X134535838Y-75895897D01*
X134432475Y-75713481D01*
X134369209Y-75627728D01*
X134360383Y-75631035D01*
X134216742Y-75631035D01*
X134188120Y-75558443D01*
X134154827Y-75485741D01*
X134271975Y-75485741D01*
X134314308Y-75528074D01*
X134356642Y-75485741D01*
X134314308Y-75443407D01*
X134271975Y-75485741D01*
X134154827Y-75485741D01*
X134062029Y-75283096D01*
X134010289Y-75175843D01*
X133892582Y-74949629D01*
X133816783Y-74834495D01*
X133796151Y-74849623D01*
X133800236Y-74871907D01*
X133812146Y-75044385D01*
X133765588Y-75104741D01*
X133688911Y-75170509D01*
X133513471Y-75170509D01*
X133550051Y-75123574D01*
X133593804Y-74859518D01*
X133519134Y-74601910D01*
X133342356Y-74392234D01*
X133079789Y-74271973D01*
X132941034Y-74258074D01*
X132701904Y-74309271D01*
X132479802Y-74437827D01*
X132319327Y-74606194D01*
X132265079Y-74776819D01*
X131884462Y-74776819D01*
X131839016Y-74727909D01*
X131832940Y-74777242D01*
X131632469Y-74777242D01*
X131625721Y-74744964D01*
X131529174Y-74736548D01*
X131403684Y-74775144D01*
X131165341Y-74901780D01*
X130968043Y-75064463D01*
X130814640Y-75189217D01*
X130697896Y-75219571D01*
X130690586Y-75216049D01*
X130646520Y-75218213D01*
X130448447Y-75218213D01*
X130419642Y-75189407D01*
X130377308Y-75231741D01*
X130282355Y-75231741D01*
X130128062Y-74885756D01*
X129886056Y-74375303D01*
X129695148Y-74011091D01*
X129587479Y-73843693D01*
X129794888Y-73843693D01*
X129806985Y-73906059D01*
X129869438Y-74062431D01*
X129989274Y-74336779D01*
X130080975Y-74543897D01*
X130334975Y-75117363D01*
X130385102Y-74814996D01*
X130385264Y-74814455D01*
X130546642Y-74814455D01*
X130581521Y-74985466D01*
X130679178Y-75000851D01*
X130805275Y-74887491D01*
X130980203Y-74734801D01*
X131199975Y-74613222D01*
X131401591Y-74552123D01*
X131501628Y-74562874D01*
X131535619Y-74560579D01*
X131530678Y-74554407D01*
X131731975Y-74554407D01*
X131774308Y-74596741D01*
X131816642Y-74554407D01*
X131774308Y-74512074D01*
X131731975Y-74554407D01*
X131530678Y-74554407D01*
X131477975Y-74488577D01*
X131238159Y-74355102D01*
X130912522Y-74332991D01*
X130733729Y-74423800D01*
X130594783Y-74615287D01*
X130546642Y-74814455D01*
X130385264Y-74814455D01*
X130461121Y-74560563D01*
X130577034Y-74356222D01*
X130584290Y-74347917D01*
X130699634Y-74161120D01*
X130660881Y-74037468D01*
X130474704Y-73986925D01*
X130345144Y-73990641D01*
X130093971Y-73979424D01*
X129905757Y-73914194D01*
X129893637Y-73905092D01*
X129826115Y-73851361D01*
X129794888Y-73843693D01*
X129587479Y-73843693D01*
X129557036Y-73796361D01*
X129473416Y-73734359D01*
X129445975Y-73824676D01*
X129112506Y-73824676D01*
X129115259Y-73824074D01*
X129267449Y-73754763D01*
X129475569Y-73623280D01*
X129490597Y-73607877D01*
X130006102Y-73607877D01*
X130049307Y-73720592D01*
X130231349Y-73822025D01*
X130467533Y-73809284D01*
X130692142Y-73687810D01*
X130715975Y-73665407D01*
X130823329Y-73501286D01*
X130870664Y-73338383D01*
X131065575Y-73338383D01*
X131086038Y-73467921D01*
X131177973Y-73681124D01*
X131313566Y-73930821D01*
X131465005Y-74169846D01*
X131604476Y-74351029D01*
X131704165Y-74427201D01*
X131707726Y-74427407D01*
X131686436Y-74359334D01*
X131599622Y-74178451D01*
X131464371Y-73919761D01*
X131419437Y-73836851D01*
X131267124Y-73574881D01*
X131145191Y-73396735D01*
X131074107Y-73331244D01*
X131065575Y-73338383D01*
X130870664Y-73338383D01*
X130879274Y-73308751D01*
X130875725Y-73146452D01*
X130804599Y-73073039D01*
X130797663Y-73072741D01*
X130658189Y-73120019D01*
X130443431Y-73239471D01*
X130210356Y-73397522D01*
X130102440Y-73482466D01*
X130006102Y-73607877D01*
X129490597Y-73607877D01*
X129599852Y-73495892D01*
X129615308Y-73450787D01*
X129585394Y-73389542D01*
X129476098Y-73420591D01*
X129302860Y-73522019D01*
X129075087Y-73685503D01*
X128966129Y-73801953D01*
X128791031Y-73801953D01*
X128743021Y-73705777D01*
X128694509Y-73690153D01*
X128683975Y-73776031D01*
X128509957Y-73776031D01*
X128383617Y-73459369D01*
X128368661Y-73423255D01*
X127968043Y-72458860D01*
X127566032Y-71493362D01*
X127170873Y-70546423D01*
X126790808Y-69637706D01*
X126434082Y-68786872D01*
X126108939Y-68013583D01*
X125823622Y-67337501D01*
X125586374Y-66778289D01*
X125499496Y-66575331D01*
X125651636Y-66575331D01*
X125659829Y-66608173D01*
X125705718Y-66707044D01*
X125805477Y-66937037D01*
X125948315Y-67272772D01*
X126123440Y-67688870D01*
X126320061Y-68159951D01*
X126339473Y-68206657D01*
X126573104Y-68768261D01*
X126850023Y-69432734D01*
X127147998Y-70146798D01*
X127444795Y-70857179D01*
X127718182Y-71510601D01*
X127743168Y-71570259D01*
X127960883Y-72093483D01*
X128154798Y-72566098D01*
X128315778Y-72965298D01*
X128434687Y-73268271D01*
X128502389Y-73452210D01*
X128514642Y-73496426D01*
X128579082Y-73578293D01*
X128599308Y-73580741D01*
X128681699Y-73538095D01*
X128683975Y-73525352D01*
X128652234Y-73437225D01*
X128561916Y-73210956D01*
X128420380Y-72864372D01*
X128234985Y-72415302D01*
X128013090Y-71881571D01*
X127762054Y-71281008D01*
X127497972Y-70652195D01*
X127213196Y-69974008D01*
X126939572Y-69319373D01*
X126686528Y-68711064D01*
X126463490Y-68171858D01*
X126279886Y-67724532D01*
X126145141Y-67391861D01*
X126078089Y-67221567D01*
X125952496Y-66924729D01*
X125832546Y-66695795D01*
X125823535Y-66684108D01*
X126054542Y-66684108D01*
X126060040Y-66732858D01*
X126123851Y-66919032D01*
X126238475Y-67224035D01*
X126396410Y-67629271D01*
X126590152Y-68116145D01*
X126812201Y-68666062D01*
X127055054Y-69260426D01*
X127311210Y-69880641D01*
X127573166Y-70508114D01*
X127833420Y-71124247D01*
X128051249Y-71633407D01*
X128250009Y-72095602D01*
X128434868Y-72526862D01*
X128591222Y-72893013D01*
X128704467Y-73159881D01*
X128747760Y-73263241D01*
X128852513Y-73466715D01*
X128949197Y-73577039D01*
X129011954Y-73571087D01*
X129022642Y-73509084D01*
X128988835Y-73410967D01*
X128895641Y-73187836D01*
X128755400Y-72868070D01*
X128580450Y-72480048D01*
X128479638Y-72260251D01*
X128293421Y-71848275D01*
X128059152Y-71317149D01*
X127793048Y-70704387D01*
X127511324Y-70047502D01*
X127230196Y-69384010D01*
X127038679Y-68926682D01*
X126800288Y-68358434D01*
X126579444Y-67840041D01*
X126385387Y-67392558D01*
X126227358Y-67037043D01*
X126114596Y-66794549D01*
X126056343Y-66686134D01*
X126054542Y-66684108D01*
X125823535Y-66684108D01*
X125740817Y-66576822D01*
X125728306Y-66570073D01*
X125651636Y-66575331D01*
X125499496Y-66575331D01*
X125422962Y-66396539D01*
X126189326Y-66396539D01*
X126194630Y-66547832D01*
X126271370Y-66804109D01*
X126389395Y-67085388D01*
X126505513Y-67342696D01*
X126670173Y-67719722D01*
X126867530Y-68179572D01*
X127081735Y-68685349D01*
X127274971Y-69147257D01*
X127530681Y-69761540D01*
X127736285Y-70252336D01*
X127906274Y-70652688D01*
X128055138Y-70995637D01*
X128197369Y-71314226D01*
X128347456Y-71641497D01*
X128519889Y-72010491D01*
X128674461Y-72338443D01*
X128842945Y-72701463D01*
X128980791Y-73010269D01*
X129073684Y-73231955D01*
X129107308Y-73333277D01*
X129175982Y-73402624D01*
X129234308Y-73411407D01*
X129346558Y-73354598D01*
X129360918Y-73305574D01*
X129331638Y-73212863D01*
X129784642Y-73212863D01*
X129816869Y-73378197D01*
X129914637Y-73388371D01*
X130073973Y-73249810D01*
X130260839Y-73098735D01*
X130472806Y-72983587D01*
X130632023Y-72880338D01*
X130634013Y-72786285D01*
X130490301Y-72724657D01*
X130338519Y-72712907D01*
X130077347Y-72781414D01*
X129875587Y-72955487D01*
X129785497Y-73187955D01*
X129784642Y-73212863D01*
X129331638Y-73212863D01*
X129326868Y-73197758D01*
X129232541Y-72963062D01*
X129089275Y-72628048D01*
X128912488Y-72228494D01*
X129286293Y-72228494D01*
X129417577Y-72544784D01*
X129529111Y-72803530D01*
X129603392Y-72925902D01*
X129665751Y-72932875D01*
X129741516Y-72845420D01*
X129755949Y-72824959D01*
X129894660Y-72690057D01*
X130001109Y-72649407D01*
X130108795Y-72581402D01*
X130123308Y-72520794D01*
X130077856Y-72433433D01*
X129919838Y-72443285D01*
X129911025Y-72445461D01*
X129640947Y-72433466D01*
X129492517Y-72363617D01*
X129286293Y-72228494D01*
X128912488Y-72228494D01*
X128908410Y-72219278D01*
X128829933Y-72046336D01*
X129473083Y-72046336D01*
X129517692Y-72157452D01*
X129626226Y-72213543D01*
X129917784Y-72251262D01*
X130159159Y-72147871D01*
X130187660Y-72119006D01*
X130399632Y-72119006D01*
X130422818Y-72236199D01*
X130510895Y-72417307D01*
X130626154Y-72598985D01*
X130730884Y-72717890D01*
X130765794Y-72734074D01*
X130753627Y-72667038D01*
X130679919Y-72496257D01*
X130619664Y-72374241D01*
X130507820Y-72187466D01*
X130424626Y-72105520D01*
X130399632Y-72119006D01*
X130187660Y-72119006D01*
X130211319Y-72095044D01*
X130273346Y-71929088D01*
X130277593Y-71763207D01*
X130250308Y-71544101D01*
X129873539Y-71736921D01*
X129591172Y-71907174D01*
X129473083Y-72046336D01*
X128829933Y-72046336D01*
X128719395Y-71802741D01*
X128452185Y-71215096D01*
X128214828Y-70686249D01*
X128590424Y-70686249D01*
X128711332Y-70969328D01*
X128830821Y-71242379D01*
X128945927Y-71495984D01*
X129059612Y-71739561D01*
X129107492Y-71554788D01*
X129276642Y-71554788D01*
X129279272Y-71659364D01*
X129311508Y-71702336D01*
X129409866Y-71682393D01*
X129610864Y-71598219D01*
X129747174Y-71537866D01*
X129978179Y-71429908D01*
X130075139Y-71358258D01*
X130060943Y-71295626D01*
X129995754Y-71241532D01*
X129752127Y-71144257D01*
X129518841Y-71178678D01*
X129344236Y-71323736D01*
X129276642Y-71554788D01*
X129107492Y-71554788D01*
X129127134Y-71478986D01*
X129198806Y-71280848D01*
X129277154Y-71167434D01*
X129277982Y-71166912D01*
X129360880Y-71062559D01*
X129297562Y-70979342D01*
X129168480Y-70956074D01*
X128951515Y-70907601D01*
X128783038Y-70821161D01*
X128609128Y-70699350D01*
X128895143Y-70699350D01*
X128899860Y-70708900D01*
X129028278Y-70779898D01*
X129218103Y-70773655D01*
X129385417Y-70699843D01*
X129430697Y-70647715D01*
X129477739Y-70447700D01*
X129467891Y-70353405D01*
X129402868Y-70247222D01*
X129273898Y-70280209D01*
X129065264Y-70423569D01*
X128926484Y-70577641D01*
X128895143Y-70699350D01*
X128609128Y-70699350D01*
X128590424Y-70686249D01*
X128214828Y-70686249D01*
X128164930Y-70575074D01*
X128514642Y-70575074D01*
X128556975Y-70617407D01*
X128599308Y-70575074D01*
X128556975Y-70532741D01*
X128514642Y-70575074D01*
X128164930Y-70575074D01*
X128149401Y-70540474D01*
X128089559Y-70405741D01*
X128429975Y-70405741D01*
X128472308Y-70448074D01*
X128514642Y-70405741D01*
X128472308Y-70363407D01*
X128429975Y-70405741D01*
X128089559Y-70405741D01*
X127841716Y-69847733D01*
X127559807Y-69205730D01*
X127455875Y-68966407D01*
X127137108Y-68231731D01*
X127115125Y-68181632D01*
X127339909Y-68181632D01*
X127863775Y-69234462D01*
X128071769Y-69649914D01*
X128218829Y-69931500D01*
X128318669Y-70097346D01*
X128385002Y-70165579D01*
X128431543Y-70154326D01*
X128453392Y-70115113D01*
X128683975Y-70115113D01*
X128695282Y-70299108D01*
X128754140Y-70349910D01*
X128897954Y-70281460D01*
X128983287Y-70226670D01*
X129149607Y-70062920D01*
X129183911Y-69909388D01*
X129099273Y-69807406D01*
X128908764Y-69798307D01*
X128852551Y-69813314D01*
X128717886Y-69925032D01*
X128683975Y-70115113D01*
X128453392Y-70115113D01*
X128472004Y-70081711D01*
X128483694Y-70053866D01*
X128534179Y-69777858D01*
X128494237Y-69632769D01*
X128347478Y-69464572D01*
X128205255Y-69394030D01*
X128009073Y-69262436D01*
X127866456Y-69027684D01*
X127818821Y-68921416D01*
X128148146Y-68921416D01*
X128157531Y-69024616D01*
X128185696Y-69062788D01*
X128356598Y-69167474D01*
X128531080Y-69134195D01*
X128650365Y-68982417D01*
X128668432Y-68902907D01*
X128649560Y-68719278D01*
X128535157Y-68675130D01*
X128325977Y-68770652D01*
X128275444Y-68804702D01*
X128148146Y-68921416D01*
X127818821Y-68921416D01*
X127745660Y-68758205D01*
X127687992Y-68638187D01*
X127956601Y-68638187D01*
X128009334Y-68731024D01*
X128089603Y-68702765D01*
X128163240Y-68639265D01*
X128324946Y-68530679D01*
X128425842Y-68500741D01*
X128492472Y-68475818D01*
X128431827Y-68375977D01*
X128429975Y-68373741D01*
X128291301Y-68266427D01*
X128218308Y-68246741D01*
X128059240Y-68318304D01*
X127957099Y-68480703D01*
X127956601Y-68638187D01*
X127687992Y-68638187D01*
X127627983Y-68513298D01*
X127614886Y-68487677D01*
X127522035Y-68293811D01*
X127522284Y-68213246D01*
X127626984Y-68210988D01*
X127700384Y-68224121D01*
X127895166Y-68221588D01*
X127952350Y-68123280D01*
X127872751Y-67955302D01*
X127784174Y-67852394D01*
X127702438Y-67854889D01*
X127566540Y-67968754D01*
X127546892Y-67987181D01*
X127339909Y-68181632D01*
X127115125Y-68181632D01*
X126877551Y-67640205D01*
X126670818Y-67178865D01*
X126510520Y-66834751D01*
X126390269Y-66594900D01*
X126303676Y-66446352D01*
X126244354Y-66376144D01*
X126205915Y-66371314D01*
X126189326Y-66396539D01*
X125422962Y-66396539D01*
X125405441Y-66355607D01*
X125403166Y-66350333D01*
X125390477Y-66320574D01*
X125721302Y-66320574D01*
X125782381Y-66380698D01*
X125930766Y-66358030D01*
X126106493Y-66263996D01*
X126214263Y-66155741D01*
X126222340Y-66095551D01*
X126120158Y-66092864D01*
X125952682Y-66151522D01*
X125794805Y-66237889D01*
X125721420Y-66318329D01*
X125721302Y-66320574D01*
X125390477Y-66320574D01*
X125217494Y-65914876D01*
X125094301Y-65607920D01*
X125026426Y-65403611D01*
X125006711Y-65276099D01*
X125007818Y-65272117D01*
X125127975Y-65272117D01*
X125157171Y-65400326D01*
X125230392Y-65597661D01*
X125326086Y-65817217D01*
X125422699Y-66012087D01*
X125498680Y-66135366D01*
X125530887Y-66149004D01*
X125515681Y-66017463D01*
X125437811Y-65818191D01*
X125425088Y-65792915D01*
X125345888Y-65566976D01*
X125337957Y-65374749D01*
X125340985Y-65363842D01*
X125344105Y-65228856D01*
X125260680Y-65198741D01*
X125144311Y-65236955D01*
X125127975Y-65272117D01*
X125007818Y-65272117D01*
X125027998Y-65199532D01*
X125072337Y-65155666D01*
X125185725Y-65042741D01*
X125186907Y-64923065D01*
X125066528Y-64760318D01*
X124937475Y-64632023D01*
X124624456Y-64393922D01*
X124321399Y-64297861D01*
X124009001Y-64347062D01*
X123667964Y-64544748D01*
X123278985Y-64894142D01*
X123261632Y-64911856D01*
X122957237Y-65207355D01*
X122593868Y-65536425D01*
X122247511Y-65830367D01*
X122230689Y-65843969D01*
X121923540Y-66099529D01*
X121627936Y-66358942D01*
X121399670Y-66572993D01*
X121368577Y-66604410D01*
X121190639Y-66744565D01*
X120909804Y-66919319D01*
X120568232Y-67107424D01*
X120208083Y-67287629D01*
X119871519Y-67438685D01*
X119600699Y-67539344D01*
X119453945Y-67569407D01*
X119376025Y-67519349D01*
X119415764Y-67365625D01*
X119575170Y-67102911D01*
X119690643Y-66942101D01*
X119886064Y-66673678D01*
X120059863Y-66426132D01*
X120068119Y-66413741D01*
X120259671Y-66413741D01*
X120328041Y-66608734D01*
X120474743Y-66801365D01*
X120547704Y-66863399D01*
X120695899Y-66937708D01*
X120747390Y-66901696D01*
X120689384Y-66792127D01*
X120601145Y-66709845D01*
X120449486Y-66537500D01*
X120386642Y-66360995D01*
X120364696Y-66242545D01*
X120294131Y-66273384D01*
X120259671Y-66413741D01*
X120068119Y-66413741D01*
X120149751Y-66291229D01*
X120240291Y-66175386D01*
X120555975Y-66175386D01*
X120607882Y-66365721D01*
X120731966Y-66560766D01*
X120880766Y-66696460D01*
X120961471Y-66722741D01*
X121030303Y-66698568D01*
X120981261Y-66607265D01*
X120909400Y-66526784D01*
X120778549Y-66344925D01*
X120725308Y-66188117D01*
X120684030Y-66065707D01*
X120640642Y-66045407D01*
X120566012Y-66114188D01*
X120555975Y-66175386D01*
X120240291Y-66175386D01*
X120250284Y-66162600D01*
X120390027Y-66058103D01*
X120604930Y-65959305D01*
X120906990Y-65855971D01*
X121288066Y-65855971D01*
X121295590Y-65957766D01*
X121364056Y-66105022D01*
X121455144Y-66233930D01*
X121530537Y-66280683D01*
X121539792Y-66275146D01*
X121530036Y-66184175D01*
X121457601Y-66013658D01*
X121455383Y-66009365D01*
X121429500Y-65972079D01*
X121561730Y-65972079D01*
X121567595Y-65990228D01*
X121662478Y-65966335D01*
X121863931Y-65813197D01*
X122170557Y-65532015D01*
X122580958Y-65123990D01*
X122606911Y-65097486D01*
X122970992Y-64727548D01*
X123247989Y-64459571D01*
X123468935Y-64274180D01*
X123664863Y-64152002D01*
X123866806Y-64073663D01*
X124008913Y-64041629D01*
X124563530Y-64041629D01*
X124575153Y-64091964D01*
X124619975Y-64098074D01*
X124689665Y-64067096D01*
X124676419Y-64041629D01*
X124575940Y-64031496D01*
X124563530Y-64041629D01*
X124008913Y-64041629D01*
X124105798Y-64019789D01*
X124410844Y-63971312D01*
X124653012Y-63956465D01*
X124853702Y-64014489D01*
X125088177Y-64163808D01*
X125357612Y-64421073D01*
X125602670Y-64762711D01*
X125660117Y-64866603D01*
X125764358Y-65076688D01*
X125809736Y-65183688D01*
X125787117Y-65165341D01*
X125472366Y-64729518D01*
X125195124Y-64401717D01*
X124973365Y-64203024D01*
X124958642Y-64193389D01*
X124867200Y-64147486D01*
X124891625Y-64201791D01*
X125035673Y-64363507D01*
X125061655Y-64390978D01*
X125254176Y-64637982D01*
X125462013Y-64973211D01*
X125641622Y-65326113D01*
X125648784Y-65342281D01*
X125794793Y-65657177D01*
X125903091Y-65839160D01*
X125993447Y-65914596D01*
X126076646Y-65912904D01*
X126195679Y-65917915D01*
X126297319Y-66040629D01*
X126364717Y-66187326D01*
X126458306Y-66404218D01*
X126601528Y-66722799D01*
X126771200Y-67091879D01*
X126873549Y-67310942D01*
X127249724Y-68110809D01*
X127466947Y-67893586D01*
X127684170Y-67676364D01*
X127464406Y-67328235D01*
X127335281Y-67106697D01*
X127256255Y-66938367D01*
X127244642Y-66891661D01*
X127178232Y-66807407D01*
X127329308Y-66807407D01*
X127360286Y-66877097D01*
X127385753Y-66863852D01*
X127395886Y-66763372D01*
X127385753Y-66750963D01*
X127335418Y-66762585D01*
X127329308Y-66807407D01*
X127178232Y-66807407D01*
X127173924Y-66801941D01*
X127065984Y-66744785D01*
X127605907Y-66744785D01*
X127619386Y-66791385D01*
X127627965Y-66807407D01*
X127736775Y-66988550D01*
X127890680Y-67224060D01*
X128061690Y-67473814D01*
X128221817Y-67697693D01*
X128343071Y-67855572D01*
X128395793Y-67908074D01*
X128400477Y-67851206D01*
X128375862Y-67802241D01*
X128247056Y-67600918D01*
X128091560Y-67373869D01*
X127929535Y-67147913D01*
X127781143Y-66949868D01*
X127666546Y-66806552D01*
X127605907Y-66744785D01*
X127065984Y-66744785D01*
X127012954Y-66716705D01*
X126838501Y-66668307D01*
X126739363Y-66678725D01*
X126659384Y-66650392D01*
X126583396Y-66506237D01*
X126527913Y-66299308D01*
X126513821Y-66133940D01*
X126571454Y-66133940D01*
X126643561Y-66319311D01*
X126707430Y-66398574D01*
X126851808Y-66521263D01*
X126960555Y-66553388D01*
X126990642Y-66506869D01*
X126949861Y-66368913D01*
X126854108Y-66199874D01*
X126743269Y-66058199D01*
X126657227Y-66002336D01*
X126648369Y-66005302D01*
X126571454Y-66133940D01*
X126513821Y-66133940D01*
X126509451Y-66082653D01*
X126521193Y-65977958D01*
X126521402Y-65953604D01*
X126904255Y-65953604D01*
X126947823Y-66076827D01*
X127014293Y-66205738D01*
X127142096Y-66413092D01*
X127241357Y-66529777D01*
X127291161Y-66544183D01*
X127270592Y-66444699D01*
X127210065Y-66314407D01*
X127079960Y-66107635D01*
X126956376Y-65967436D01*
X126904255Y-65953604D01*
X126521402Y-65953604D01*
X126523210Y-65743455D01*
X126455145Y-65487378D01*
X126341133Y-65264802D01*
X126205311Y-65130804D01*
X126142600Y-65114074D01*
X125993659Y-65040538D01*
X125876498Y-64864382D01*
X125826448Y-64652281D01*
X125829668Y-64627447D01*
X125934473Y-64627447D01*
X125979777Y-64784936D01*
X125983353Y-64791684D01*
X126101266Y-64914685D01*
X126240000Y-64873714D01*
X126379889Y-64707267D01*
X126453285Y-64576717D01*
X126409231Y-64528278D01*
X126253080Y-64521407D01*
X126020043Y-64545146D01*
X125934473Y-64627447D01*
X125829668Y-64627447D01*
X125840500Y-64543907D01*
X125812983Y-64378649D01*
X125670139Y-64173592D01*
X125449339Y-63962137D01*
X125187952Y-63777682D01*
X124923349Y-63653626D01*
X124814077Y-63626547D01*
X124596965Y-63591830D01*
X124463014Y-63570410D01*
X124450642Y-63568432D01*
X124348607Y-63576588D01*
X124140438Y-63605053D01*
X124032110Y-63621819D01*
X123888562Y-63652672D01*
X123752179Y-63707503D01*
X123601161Y-63803787D01*
X123413710Y-63958997D01*
X123168027Y-64190609D01*
X122842312Y-64516097D01*
X122569735Y-64794082D01*
X122131919Y-65251565D01*
X121817236Y-65601279D01*
X121626802Y-65841895D01*
X121561730Y-65972079D01*
X121429500Y-65972079D01*
X121360298Y-65872390D01*
X121291198Y-65851689D01*
X121288066Y-65855971D01*
X120906990Y-65855971D01*
X120930945Y-65847776D01*
X121140004Y-65783540D01*
X121380836Y-65679523D01*
X121643541Y-65517421D01*
X121898804Y-65323224D01*
X122117310Y-65122922D01*
X122269743Y-64942507D01*
X122326787Y-64807967D01*
X122297956Y-64756933D01*
X122195372Y-64668742D01*
X122193805Y-64648407D01*
X122418642Y-64648407D01*
X122460975Y-64690741D01*
X122503308Y-64648407D01*
X122460975Y-64606074D01*
X122418642Y-64648407D01*
X122193805Y-64648407D01*
X122190117Y-64600561D01*
X122270067Y-64600561D01*
X122281648Y-64606074D01*
X122358913Y-64546470D01*
X122376308Y-64521407D01*
X122391405Y-64466019D01*
X122587975Y-64466019D01*
X122643738Y-64451680D01*
X122791978Y-64340978D01*
X123004126Y-64155961D01*
X123074808Y-64090345D01*
X123293929Y-63873986D01*
X123444648Y-63704996D01*
X123501796Y-63612330D01*
X123497614Y-63604009D01*
X123475116Y-63528626D01*
X125172245Y-63528626D01*
X125227101Y-63607578D01*
X125339642Y-63708165D01*
X125536449Y-63867790D01*
X125619456Y-63913568D01*
X125598750Y-63847091D01*
X125530353Y-63738241D01*
X125378130Y-63583787D01*
X125244859Y-63520710D01*
X125172245Y-63528626D01*
X123475116Y-63528626D01*
X123472537Y-63519983D01*
X123490022Y-63477009D01*
X123506477Y-63419962D01*
X123483493Y-63434852D01*
X123421013Y-63551531D01*
X123420386Y-63561852D01*
X123360336Y-63701517D01*
X123233649Y-63819496D01*
X123159908Y-63844074D01*
X123136862Y-63790568D01*
X123191441Y-63695907D01*
X123264643Y-63595639D01*
X123221034Y-63616450D01*
X123160407Y-63663167D01*
X123059165Y-63778196D01*
X123051563Y-63840711D01*
X123020597Y-63931909D01*
X122896760Y-64085154D01*
X122838964Y-64143291D01*
X122681029Y-64313052D01*
X122593925Y-64442527D01*
X122587975Y-64466019D01*
X122391405Y-64466019D01*
X122397883Y-64442253D01*
X122386302Y-64436741D01*
X122309036Y-64496344D01*
X122291642Y-64521407D01*
X122270067Y-64600561D01*
X122190117Y-64600561D01*
X122186465Y-64553172D01*
X122281841Y-64388802D01*
X122492104Y-64154206D01*
X122695517Y-63953808D01*
X123194196Y-63523773D01*
X123426087Y-63378407D01*
X123603975Y-63378407D01*
X123646308Y-63420741D01*
X123667475Y-63399574D01*
X123998057Y-63399574D01*
X124051725Y-63434333D01*
X124231347Y-63457398D01*
X124416393Y-63463074D01*
X124958642Y-63463074D01*
X125000975Y-63505407D01*
X125043308Y-63463074D01*
X125000975Y-63420741D01*
X124958642Y-63463074D01*
X124416393Y-63463074D01*
X124668917Y-63452457D01*
X124835105Y-63425114D01*
X124873975Y-63399574D01*
X124797848Y-63363161D01*
X124603436Y-63340190D01*
X124455638Y-63336074D01*
X124206310Y-63347861D01*
X124036694Y-63377901D01*
X123998057Y-63399574D01*
X123667475Y-63399574D01*
X123688642Y-63378407D01*
X123646308Y-63336074D01*
X123603975Y-63378407D01*
X123426087Y-63378407D01*
X123561148Y-63293741D01*
X123773308Y-63293741D01*
X123815642Y-63336074D01*
X123857975Y-63293741D01*
X123815642Y-63251407D01*
X123773308Y-63293741D01*
X123561148Y-63293741D01*
X123656447Y-63234001D01*
X123763607Y-63194963D01*
X124055530Y-63194963D01*
X124067153Y-63245297D01*
X124111975Y-63251407D01*
X124168599Y-63226237D01*
X124842172Y-63226237D01*
X124958642Y-63238039D01*
X125078837Y-63224733D01*
X125064475Y-63195334D01*
X124891133Y-63184151D01*
X124852808Y-63195334D01*
X124842172Y-63226237D01*
X124168599Y-63226237D01*
X124181665Y-63220429D01*
X124168419Y-63194963D01*
X124067940Y-63184830D01*
X124055530Y-63194963D01*
X123763607Y-63194963D01*
X124110933Y-63068433D01*
X124350599Y-63026452D01*
X124650315Y-63015496D01*
X124939092Y-63044126D01*
G37*
%TO.C,SW4*%
D12*
X74435000Y-76835000D02*
X88405000Y-76835000D01*
X74435000Y-90805000D02*
X74435000Y-76835000D01*
X88405000Y-76835000D02*
X88405000Y-90805000D01*
X88405000Y-90805000D02*
X74435000Y-90805000D01*
%TO.C,J1*%
X76070000Y-51900000D02*
X81820000Y-51900000D01*
X76070000Y-57900000D02*
X76070000Y-51900000D01*
X77420000Y-56790000D02*
X82500000Y-56790000D01*
X77420000Y-57800000D02*
X77420000Y-56790000D01*
X82500000Y-56790000D02*
X82500000Y-57800000D01*
X83170000Y-51950000D02*
X86370000Y-51950000D01*
X86370000Y-51950000D02*
X86370000Y-57900000D01*
X86370000Y-57900000D02*
X76070000Y-57900000D01*
%TO.C,SW1*%
X111460000Y-79565000D02*
X112060000Y-79565000D01*
X111760000Y-79865000D02*
X111460000Y-79565000D01*
X112060000Y-79565000D02*
X111760000Y-79865000D01*
X113160000Y-77765000D02*
X113160000Y-89565000D01*
X117260000Y-77765000D02*
X113160000Y-77765000D01*
X117260000Y-89565000D02*
X113160000Y-89565000D01*
X118760000Y-83665000D02*
X119760000Y-83665000D01*
X119260000Y-83165000D02*
X119260000Y-84165000D01*
X121260000Y-77765000D02*
X125360000Y-77765000D01*
X125360000Y-77765000D02*
X125360000Y-80165000D01*
X125360000Y-82365000D02*
X125360000Y-84965000D01*
X125360000Y-87165000D02*
X125360000Y-89565000D01*
X125360000Y-89565000D02*
X121260000Y-89565000D01*
X122260000Y-83665000D02*
G75*
G02*
X116260000Y-83665000I-3000000J0D01*
G01*
X116260000Y-83665000D02*
G75*
G02*
X122260000Y-83665000I3000000J0D01*
G01*
%TO.C,D4*%
X114040000Y-99870000D02*
X114690000Y-99870000D01*
X115290000Y-98750000D02*
X115290000Y-100990000D01*
X115410000Y-98750000D02*
X115410000Y-100990000D01*
X115530000Y-98750000D02*
X115530000Y-100990000D01*
X119580000Y-99870000D02*
X118930000Y-99870000D01*
X114690000Y-98750000D02*
X118930000Y-98750000D01*
X118930000Y-100990000D01*
X114690000Y-100990000D01*
X114690000Y-98750000D01*
%TO.C,SW9*%
X93485000Y-95885000D02*
X107455000Y-95885000D01*
X93485000Y-109855000D02*
X93485000Y-95885000D01*
X107455000Y-95885000D02*
X107455000Y-109855000D01*
X107455000Y-109855000D02*
X93485000Y-109855000D01*
%TO.C,SW6*%
X93485000Y-76835000D02*
X107455000Y-76835000D01*
X93485000Y-90805000D02*
X93485000Y-76835000D01*
X107455000Y-76835000D02*
X107455000Y-90805000D01*
X107455000Y-90805000D02*
X93485000Y-90805000D01*
%TO.C,SW8*%
X74435000Y-95885000D02*
X88405000Y-95885000D01*
X74435000Y-109855000D02*
X74435000Y-95885000D01*
X88405000Y-95885000D02*
X88405000Y-109855000D01*
X88405000Y-109855000D02*
X74435000Y-109855000D01*
%TO.C,D3*%
X125320000Y-111450000D02*
X125970000Y-111450000D01*
X126570000Y-110330000D02*
X126570000Y-112570000D01*
X126690000Y-110330000D02*
X126690000Y-112570000D01*
X126810000Y-110330000D02*
X126810000Y-112570000D01*
X130860000Y-111450000D02*
X130210000Y-111450000D01*
X125970000Y-110330000D02*
X130210000Y-110330000D01*
X130210000Y-112570000D01*
X125970000Y-112570000D01*
X125970000Y-110330000D01*
%TD*%
M02*
