%TF.GenerationSoftware,KiCad,Pcbnew,10.0.3*%
%TF.CreationDate,2026-07-21T15:32:11-07:00*%
%TF.ProjectId,Hack_Pad_Gallagher,4861636b-5f50-4616-945f-47616c6c6167,rev?*%
%TF.SameCoordinates,Original*%
%TF.FileFunction,Copper,L2,Bot*%
%TF.FilePolarity,Positive*%
%FSLAX46Y46*%
G04 Gerber Fmt 4.6, Leading zero omitted, Abs format (unit mm)*
G04 Created by KiCad (PCBNEW 10.0.3) date 2026-07-21 15:32:11*
%MOMM*%
%LPD*%
G01*
G04 APERTURE LIST*
G04 Aperture macros list*
%AMRoundRect*
0 Rectangle with rounded corners*
0 $1 Rounding radius*
0 $2 $3 $4 $5 $6 $7 $8 $9 X,Y pos of 4 corners*
0 Add a 4 corners polygon primitive as box body*
4,1,4,$2,$3,$4,$5,$6,$7,$8,$9,$2,$3,0*
0 Add four circle primitives for the rounded corners*
1,1,$1+$1,$2,$3*
1,1,$1+$1,$4,$5*
1,1,$1+$1,$6,$7*
1,1,$1+$1,$8,$9*
0 Add four rect primitives between the rounded corners*
20,1,$1+$1,$2,$3,$4,$5,0*
20,1,$1+$1,$4,$5,$6,$7,0*
20,1,$1+$1,$6,$7,$8,$9,0*
20,1,$1+$1,$8,$9,$2,$3,0*%
G04 Aperture macros list end*
%TA.AperFunction,ComponentPad*%
%ADD10RoundRect,0.250000X-0.550000X-0.550000X0.550000X-0.550000X0.550000X0.550000X-0.550000X0.550000X0*%
%TD*%
%TA.AperFunction,ComponentPad*%
%ADD11C,1.600000*%
%TD*%
%TA.AperFunction,ComponentPad*%
%ADD12C,2.200000*%
%TD*%
%TA.AperFunction,ComponentPad*%
%ADD13R,1.730000X2.030000*%
%TD*%
%TA.AperFunction,ComponentPad*%
%ADD14O,1.730000X2.030000*%
%TD*%
%TA.AperFunction,ComponentPad*%
%ADD15R,2.000000X2.000000*%
%TD*%
%TA.AperFunction,ComponentPad*%
%ADD16C,2.000000*%
%TD*%
%TA.AperFunction,ComponentPad*%
%ADD17R,3.200000X2.000000*%
%TD*%
%TA.AperFunction,ComponentPad*%
%ADD18R,3.500000X1.700000*%
%TD*%
%TA.AperFunction,ComponentPad*%
%ADD19O,3.600000X1.700000*%
%TD*%
%TA.AperFunction,ComponentPad*%
%ADD20O,3.700000X1.700000*%
%TD*%
%TA.AperFunction,Conductor*%
%ADD21C,0.200000*%
%TD*%
G04 APERTURE END LIST*
D10*
%TO.P,D1,1,K_1*%
%TO.N,Net-(D1-K)*%
X124280000Y-99570000D03*
D11*
%TO.P,D1,2,A_2*%
%TO.N,Net-(D1-A)*%
X131900000Y-99570000D03*
%TD*%
D12*
%TO.P,SW10,1,1_1*%
%TO.N,Net-(U1-PA11_A3_D3)*%
X64910000Y-97790000D03*
%TO.P,SW10,2,2_2*%
%TO.N,Net-(D5-A)*%
X58560000Y-100330000D03*
%TD*%
%TO.P,SW7,1,1_1*%
%TO.N,Net-(U1-PB08_A6_D6_TX)*%
X64910000Y-78740000D03*
%TO.P,SW7,2,2_2*%
%TO.N,Net-(D4-A)*%
X58560000Y-81280000D03*
%TD*%
D10*
%TO.P,D6,1,K_1*%
%TO.N,Net-(D5-K)*%
X113000000Y-111450000D03*
D11*
%TO.P,D6,2,A_2*%
%TO.N,Net-(D6-A)*%
X120620000Y-111450000D03*
%TD*%
D10*
%TO.P,D5,1,K_1*%
%TO.N,Net-(D5-K)*%
X113000000Y-105520000D03*
D11*
%TO.P,D5,2,A_2*%
%TO.N,Net-(D5-A)*%
X120620000Y-105520000D03*
%TD*%
D10*
%TO.P,D2,1,K_1*%
%TO.N,Net-(D1-K)*%
X124280000Y-105520000D03*
D11*
%TO.P,D2,2,A_2*%
%TO.N,Net-(D2-A)*%
X131900000Y-105520000D03*
%TD*%
D12*
%TO.P,SW4,1,1_1*%
%TO.N,Net-(U1-PA11_A3_D3)*%
X83960000Y-78740000D03*
%TO.P,SW4,2,2_2*%
%TO.N,Net-(D1-A)*%
X77610000Y-81280000D03*
%TD*%
D13*
%TO.P,J1,1,Pin_1_1*%
%TO.N,GND*%
X77420000Y-54500000D03*
D14*
%TO.P,J1,2,Pin_2_2*%
%TO.N,Net-(J1-Pin_2)*%
X79960000Y-54500000D03*
%TO.P,J1,3,Pin_3_3*%
%TO.N,Net-(J1-Pin_3)*%
X82500000Y-54500000D03*
%TO.P,J1,4,Pin_4_4*%
%TO.N,Net-(J1-Pin_4)*%
X85040000Y-54500000D03*
%TD*%
D15*
%TO.P,SW1,A,A_A*%
%TO.N,Net-(U1-PA5_A9_D9_MISO)*%
X111760000Y-81165000D03*
D16*
%TO.P,SW1,B,B_B*%
%TO.N,Net-(U1-PA7_A8_D8_SCK)*%
X111760000Y-86165000D03*
%TO.P,SW1,C,C_C*%
%TO.N,GND*%
X111760000Y-83665000D03*
D17*
%TO.P,SW1,MP*%
%TO.N,N/C*%
X119260000Y-78065000D03*
X119260000Y-89265000D03*
D16*
%TO.P,SW1,S1,S1_S1*%
%TO.N,GND*%
X126260000Y-86165000D03*
%TO.P,SW1,S2,S2_S2*%
%TO.N,Net-(U1-PA6_A10_D10_MOSI)*%
X126260000Y-81165000D03*
%TD*%
D10*
%TO.P,D4,1,K_1*%
%TO.N,Net-(D3-K)*%
X113000000Y-99870000D03*
D11*
%TO.P,D4,2,A_2*%
%TO.N,Net-(D4-A)*%
X120620000Y-99870000D03*
%TD*%
D12*
%TO.P,SW9,1,1_1*%
%TO.N,Net-(U1-PB08_A6_D6_TX)*%
X103010000Y-97790000D03*
%TO.P,SW9,2,2_2*%
%TO.N,Net-(D6-A)*%
X96660000Y-100330000D03*
%TD*%
%TO.P,SW6,1,1_1*%
%TO.N,Net-(U1-PB08_A6_D6_TX)*%
X103010000Y-78740000D03*
%TO.P,SW6,2,2_2*%
%TO.N,Net-(D2-A)*%
X96660000Y-81280000D03*
%TD*%
%TO.P,SW8,1,1_1*%
%TO.N,Net-(U1-PA11_A3_D3)*%
X83960000Y-97790000D03*
%TO.P,SW8,2,2_2*%
%TO.N,Net-(D3-A)*%
X77610000Y-100330000D03*
%TD*%
D10*
%TO.P,D3,1,K_1*%
%TO.N,Net-(D3-K)*%
X124280000Y-111450000D03*
D11*
%TO.P,D3,2,A_2*%
%TO.N,Net-(D3-A)*%
X131900000Y-111450000D03*
%TD*%
D18*
%TO.P,U1,1,PA02_A0_D0_1*%
%TO.N,Net-(D1-K)*%
X71625000Y-54380000D03*
D19*
%TO.P,U1,2,PA4_A1_D1_2*%
%TO.N,Net-(D3-K)*%
X71625000Y-56920000D03*
%TO.P,U1,3,PA10_A2_D2_3*%
%TO.N,Net-(D5-K)*%
X71625000Y-59460000D03*
%TO.P,U1,4,PA11_A3_D3_4*%
%TO.N,Net-(U1-PA11_A3_D3)*%
X71625000Y-62000000D03*
%TO.P,U1,5,PA8_A4_D4_SDA_5*%
%TO.N,Net-(J1-Pin_4)*%
X71625000Y-64540000D03*
%TO.P,U1,6,PA9_A5_D5_SCL_6*%
%TO.N,Net-(J1-Pin_3)*%
X71625000Y-67080000D03*
%TO.P,U1,7,PB08_A6_D6_TX_7*%
%TO.N,Net-(U1-PB08_A6_D6_TX)*%
X71625000Y-69620000D03*
%TO.P,U1,8,PB09_A7_D7_RX_8*%
%TO.N,unconnected-(U1-PB09_A7_D7_RX-Pad8)*%
X54375000Y-69620000D03*
%TO.P,U1,9,PA7_A8_D8_SCK_9*%
%TO.N,Net-(U1-PA7_A8_D8_SCK)*%
X54375000Y-67080000D03*
%TO.P,U1,10,PA5_A9_D9_MISO_10*%
%TO.N,Net-(U1-PA5_A9_D9_MISO)*%
X54375000Y-64540000D03*
D20*
%TO.P,U1,11,PA6_A10_D10_MOSI_11*%
%TO.N,Net-(U1-PA6_A10_D10_MOSI)*%
X54375000Y-62000000D03*
%TO.P,U1,12,3V3_12*%
%TO.N,Net-(J1-Pin_2)*%
X54375000Y-59460000D03*
%TO.P,U1,13,GND_13*%
%TO.N,GND*%
X54375000Y-56920000D03*
%TO.P,U1,14,5V_14*%
%TO.N,unconnected-(U1-5V-Pad14)*%
X54375000Y-54380000D03*
%TD*%
%TO.N,GND*%
D21*
X59465000Y-52830000D02*
X55375000Y-56920000D01*
X75750000Y-52830000D02*
X59465000Y-52830000D01*
X77420000Y-54500000D02*
X75750000Y-52830000D01*
%TO.N,Net-(J1-Pin_2)*%
X52225000Y-57396346D02*
X54288654Y-59460000D01*
X77890000Y-52430000D02*
X59191346Y-52430000D01*
X79960000Y-54500000D02*
X77890000Y-52430000D01*
X59191346Y-52430000D02*
X55851346Y-55770000D01*
X52225000Y-56443654D02*
X52225000Y-57396346D01*
X54288654Y-59460000D02*
X55375000Y-59460000D01*
X55851346Y-55770000D02*
X52898654Y-55770000D01*
X52898654Y-55770000D02*
X52225000Y-56443654D01*
%TO.N,Net-(J1-Pin_3)*%
X69525000Y-68180000D02*
X70625000Y-67080000D01*
X85360000Y-57210000D02*
X85360000Y-79319899D01*
X82650000Y-54500000D02*
X85360000Y-57210000D01*
X69525000Y-70096346D02*
X69525000Y-68180000D01*
X85360000Y-79319899D02*
X84539899Y-80140000D01*
X79568654Y-80140000D02*
X69525000Y-70096346D01*
X82500000Y-54500000D02*
X82650000Y-54500000D01*
X84539899Y-80140000D02*
X79568654Y-80140000D01*
%TO.N,Net-(J1-Pin_4)*%
X99484517Y-79719899D02*
X85525686Y-79719899D01*
X84705584Y-80540000D02*
X79402968Y-80540000D01*
X85040000Y-54500000D02*
X104810000Y-74270000D01*
X104810000Y-74270000D02*
X104810000Y-74394416D01*
X69125000Y-66040000D02*
X70625000Y-64540000D01*
X85525686Y-79719899D02*
X84705584Y-80540000D01*
X104810000Y-74394416D02*
X99484517Y-79719899D01*
X69125000Y-70262031D02*
X69125000Y-66040000D01*
X79402968Y-80540000D02*
X69125000Y-70262031D01*
%TO.N,Net-(U1-PA11_A3_D3)*%
X71661346Y-62000000D02*
X70625000Y-62000000D01*
X83960000Y-78740000D02*
X83960000Y-74298654D01*
X83960000Y-74298654D02*
X71661346Y-62000000D01*
%TO.N,Net-(D1-K)*%
X102264415Y-99590000D02*
X101044314Y-98369899D01*
X89192843Y-98369899D02*
X68725000Y-77902056D01*
X104975685Y-98369899D02*
X103755584Y-99590000D01*
X103755584Y-99590000D02*
X102264415Y-99590000D01*
X124280000Y-99570000D02*
X123079899Y-98369899D01*
X124280000Y-105520000D02*
X124280000Y-99570000D01*
X101044314Y-98369899D02*
X89192843Y-98369899D01*
X68725000Y-77902056D02*
X68725000Y-55714314D01*
X123079899Y-98369899D02*
X104975685Y-98369899D01*
X68725000Y-55714314D02*
X70342157Y-54097157D01*
%TO.N,Net-(D1-A)*%
X90607056Y-96390000D02*
X77610000Y-83392944D01*
X103589899Y-99190000D02*
X102430101Y-99190000D01*
X105925685Y-91580000D02*
X104410000Y-90064315D01*
X104410000Y-90064315D02*
X104410000Y-98369899D01*
X123910000Y-91580000D02*
X105925685Y-91580000D01*
X104410000Y-98369899D02*
X103589899Y-99190000D01*
X131900000Y-99570000D02*
X123910000Y-91580000D01*
X99630101Y-96390000D02*
X90607056Y-96390000D01*
X77610000Y-83392944D02*
X77610000Y-81280000D01*
X102430101Y-99190000D02*
X99630101Y-96390000D01*
%TO.N,Net-(D2-A)*%
X121350635Y-87465000D02*
X105906370Y-87465000D01*
X104340000Y-79389899D02*
X104410000Y-79319899D01*
X96670964Y-82846598D02*
X96660000Y-82835634D01*
X133000000Y-104420000D02*
X133000000Y-99114365D01*
X102430101Y-77340000D02*
X96923503Y-82846598D01*
X104340000Y-85898630D02*
X104340000Y-79389899D01*
X103589899Y-77340000D02*
X102430101Y-77340000D01*
X105906370Y-87465000D02*
X104340000Y-85898630D01*
X133000000Y-99114365D02*
X121350635Y-87465000D01*
X96660000Y-82835634D02*
X96660000Y-81280000D01*
X104410000Y-79319899D02*
X104410000Y-78160101D01*
X104410000Y-78160101D02*
X103589899Y-77340000D01*
X131900000Y-105520000D02*
X133000000Y-104420000D01*
X96923503Y-82846598D02*
X96670964Y-82846598D01*
%TO.N,Net-(D3-K)*%
X125380000Y-112550000D02*
X132355635Y-112550000D01*
X82127208Y-51440000D02*
X81125000Y-52442208D01*
X132355635Y-112550000D02*
X133400000Y-111505635D01*
X78461213Y-57796346D02*
X71501346Y-57796346D01*
X133000000Y-110994365D02*
X130795635Y-108790000D01*
X124280000Y-111450000D02*
X125380000Y-112550000D01*
X81125000Y-55132559D02*
X78461213Y-57796346D01*
X133400000Y-111505635D02*
X133400000Y-98948679D01*
X121920000Y-108790000D02*
X113000000Y-99870000D01*
X85891321Y-51440000D02*
X82127208Y-51440000D01*
X133000000Y-111905635D02*
X133000000Y-110994365D01*
X133400000Y-98948679D02*
X85891321Y-51440000D01*
X132355635Y-112550000D02*
X133000000Y-111905635D01*
X71501346Y-57796346D02*
X70625000Y-56920000D01*
X130795635Y-108790000D02*
X121920000Y-108790000D01*
X81125000Y-52442208D02*
X81125000Y-55132559D01*
%TO.N,Net-(D3-A)*%
X130790000Y-110340000D02*
X85566598Y-110340000D01*
X131900000Y-111450000D02*
X130790000Y-110340000D01*
X85566598Y-110340000D02*
X77610000Y-102383402D01*
X77610000Y-102383402D02*
X77610000Y-100330000D01*
%TO.N,Net-(D4-A)*%
X86919798Y-98769899D02*
X69429899Y-81280000D01*
X119520000Y-98770000D02*
X105141270Y-98770000D01*
X100878629Y-98769899D02*
X86919798Y-98769899D01*
X103921269Y-99990000D02*
X102098729Y-99990000D01*
X120620000Y-99870000D02*
X119520000Y-98770000D01*
X105141270Y-98770000D02*
X103921269Y-99990000D01*
X69429899Y-81280000D02*
X58560000Y-81280000D01*
X102098729Y-99990000D02*
X100878629Y-98769899D01*
%TO.N,Net-(U1-PA6_A10_D10_MOSI)*%
X53390000Y-62000000D02*
X55375000Y-62000000D01*
X55088654Y-51040000D02*
X51430000Y-54698654D01*
X51430000Y-54698654D02*
X51430000Y-60040000D01*
X96135000Y-51040000D02*
X55088654Y-51040000D01*
X51430000Y-60040000D02*
X53390000Y-62000000D01*
X126260000Y-81165000D02*
X96135000Y-51040000D01*
%TO.N,Net-(U1-PB08_A6_D6_TX)*%
X103010000Y-97790000D02*
X103010000Y-78740000D01*
%TD*%
M02*
