%TF.GenerationSoftware,KiCad,Pcbnew,10.0.3*%
%TF.CreationDate,2026-07-21T13:27:25-07:00*%
%TF.ProjectId,Hack_Pad_Gallagher,4861636b-5f50-4616-945f-47616c6c6167,rev?*%
%TF.SameCoordinates,Original*%
%TF.FileFunction,Legend,Bot*%
%TF.FilePolarity,Positive*%
%FSLAX46Y46*%
G04 Gerber Fmt 4.6, Leading zero omitted, Abs format (unit mm)*
G04 Created by KiCad (PCBNEW 10.0.3) date 2026-07-21 13:27:25*
%MOMM*%
%LPD*%
G01*
G04 APERTURE LIST*
%ADD10C,0.101600*%
%ADD11C,0.150000*%
%ADD12C,0.127000*%
%ADD13C,0.120000*%
%ADD14C,0.254000*%
%ADD15C,0.025400*%
G04 APERTURE END LIST*
D10*
X63677333Y-64056985D02*
X63677333Y-64776652D01*
X63677333Y-64776652D02*
X63635000Y-64861318D01*
X63635000Y-64861318D02*
X63592666Y-64903652D01*
X63592666Y-64903652D02*
X63508000Y-64945985D01*
X63508000Y-64945985D02*
X63338666Y-64945985D01*
X63338666Y-64945985D02*
X63254000Y-64903652D01*
X63254000Y-64903652D02*
X63211666Y-64861318D01*
X63211666Y-64861318D02*
X63169333Y-64776652D01*
X63169333Y-64776652D02*
X63169333Y-64056985D01*
X62280333Y-64945985D02*
X62788333Y-64945985D01*
X62534333Y-64945985D02*
X62534333Y-64056985D01*
X62534333Y-64056985D02*
X62619000Y-64183985D01*
X62619000Y-64183985D02*
X62703667Y-64268652D01*
X62703667Y-64268652D02*
X62788333Y-64310985D01*
D11*
X67761904Y-60907200D02*
X67619047Y-60954819D01*
X67619047Y-60954819D02*
X67380952Y-60954819D01*
X67380952Y-60954819D02*
X67285714Y-60907200D01*
X67285714Y-60907200D02*
X67238095Y-60859580D01*
X67238095Y-60859580D02*
X67190476Y-60764342D01*
X67190476Y-60764342D02*
X67190476Y-60669104D01*
X67190476Y-60669104D02*
X67238095Y-60573866D01*
X67238095Y-60573866D02*
X67285714Y-60526247D01*
X67285714Y-60526247D02*
X67380952Y-60478628D01*
X67380952Y-60478628D02*
X67571428Y-60431009D01*
X67571428Y-60431009D02*
X67666666Y-60383390D01*
X67666666Y-60383390D02*
X67714285Y-60335771D01*
X67714285Y-60335771D02*
X67761904Y-60240533D01*
X67761904Y-60240533D02*
X67761904Y-60145295D01*
X67761904Y-60145295D02*
X67714285Y-60050057D01*
X67714285Y-60050057D02*
X67666666Y-60002438D01*
X67666666Y-60002438D02*
X67571428Y-59954819D01*
X67571428Y-59954819D02*
X67333333Y-59954819D01*
X67333333Y-59954819D02*
X67190476Y-60002438D01*
X66380952Y-60907200D02*
X66476190Y-60954819D01*
X66476190Y-60954819D02*
X66666666Y-60954819D01*
X66666666Y-60954819D02*
X66761904Y-60907200D01*
X66761904Y-60907200D02*
X66809523Y-60811961D01*
X66809523Y-60811961D02*
X66809523Y-60431009D01*
X66809523Y-60431009D02*
X66761904Y-60335771D01*
X66761904Y-60335771D02*
X66666666Y-60288152D01*
X66666666Y-60288152D02*
X66476190Y-60288152D01*
X66476190Y-60288152D02*
X66380952Y-60335771D01*
X66380952Y-60335771D02*
X66333333Y-60431009D01*
X66333333Y-60431009D02*
X66333333Y-60526247D01*
X66333333Y-60526247D02*
X66809523Y-60621485D01*
X65523809Y-60907200D02*
X65619047Y-60954819D01*
X65619047Y-60954819D02*
X65809523Y-60954819D01*
X65809523Y-60954819D02*
X65904761Y-60907200D01*
X65904761Y-60907200D02*
X65952380Y-60811961D01*
X65952380Y-60811961D02*
X65952380Y-60431009D01*
X65952380Y-60431009D02*
X65904761Y-60335771D01*
X65904761Y-60335771D02*
X65809523Y-60288152D01*
X65809523Y-60288152D02*
X65619047Y-60288152D01*
X65619047Y-60288152D02*
X65523809Y-60335771D01*
X65523809Y-60335771D02*
X65476190Y-60431009D01*
X65476190Y-60431009D02*
X65476190Y-60526247D01*
X65476190Y-60526247D02*
X65952380Y-60621485D01*
X64666666Y-60907200D02*
X64761904Y-60954819D01*
X64761904Y-60954819D02*
X64952380Y-60954819D01*
X64952380Y-60954819D02*
X65047618Y-60907200D01*
X65047618Y-60907200D02*
X65095237Y-60811961D01*
X65095237Y-60811961D02*
X65095237Y-60431009D01*
X65095237Y-60431009D02*
X65047618Y-60335771D01*
X65047618Y-60335771D02*
X64952380Y-60288152D01*
X64952380Y-60288152D02*
X64761904Y-60288152D01*
X64761904Y-60288152D02*
X64666666Y-60335771D01*
X64666666Y-60335771D02*
X64619047Y-60431009D01*
X64619047Y-60431009D02*
X64619047Y-60526247D01*
X64619047Y-60526247D02*
X65095237Y-60621485D01*
X63761904Y-60954819D02*
X63761904Y-59954819D01*
X63761904Y-60907200D02*
X63857142Y-60954819D01*
X63857142Y-60954819D02*
X64047618Y-60954819D01*
X64047618Y-60954819D02*
X64142856Y-60907200D01*
X64142856Y-60907200D02*
X64190475Y-60859580D01*
X64190475Y-60859580D02*
X64238094Y-60764342D01*
X64238094Y-60764342D02*
X64238094Y-60478628D01*
X64238094Y-60478628D02*
X64190475Y-60383390D01*
X64190475Y-60383390D02*
X64142856Y-60335771D01*
X64142856Y-60335771D02*
X64047618Y-60288152D01*
X64047618Y-60288152D02*
X63857142Y-60288152D01*
X63857142Y-60288152D02*
X63761904Y-60335771D01*
X62571427Y-60907200D02*
X62428570Y-60954819D01*
X62428570Y-60954819D02*
X62190475Y-60954819D01*
X62190475Y-60954819D02*
X62095237Y-60907200D01*
X62095237Y-60907200D02*
X62047618Y-60859580D01*
X62047618Y-60859580D02*
X61999999Y-60764342D01*
X61999999Y-60764342D02*
X61999999Y-60669104D01*
X61999999Y-60669104D02*
X62047618Y-60573866D01*
X62047618Y-60573866D02*
X62095237Y-60526247D01*
X62095237Y-60526247D02*
X62190475Y-60478628D01*
X62190475Y-60478628D02*
X62380951Y-60431009D01*
X62380951Y-60431009D02*
X62476189Y-60383390D01*
X62476189Y-60383390D02*
X62523808Y-60335771D01*
X62523808Y-60335771D02*
X62571427Y-60240533D01*
X62571427Y-60240533D02*
X62571427Y-60145295D01*
X62571427Y-60145295D02*
X62523808Y-60050057D01*
X62523808Y-60050057D02*
X62476189Y-60002438D01*
X62476189Y-60002438D02*
X62380951Y-59954819D01*
X62380951Y-59954819D02*
X62142856Y-59954819D01*
X62142856Y-59954819D02*
X61999999Y-60002438D01*
X61714284Y-60288152D02*
X61333332Y-60288152D01*
X61571427Y-59954819D02*
X61571427Y-60811961D01*
X61571427Y-60811961D02*
X61523808Y-60907200D01*
X61523808Y-60907200D02*
X61428570Y-60954819D01*
X61428570Y-60954819D02*
X61333332Y-60954819D01*
X60571427Y-60288152D02*
X60571427Y-60954819D01*
X60999998Y-60288152D02*
X60999998Y-60811961D01*
X60999998Y-60811961D02*
X60952379Y-60907200D01*
X60952379Y-60907200D02*
X60857141Y-60954819D01*
X60857141Y-60954819D02*
X60714284Y-60954819D01*
X60714284Y-60954819D02*
X60619046Y-60907200D01*
X60619046Y-60907200D02*
X60571427Y-60859580D01*
X59666665Y-60954819D02*
X59666665Y-59954819D01*
X59666665Y-60907200D02*
X59761903Y-60954819D01*
X59761903Y-60954819D02*
X59952379Y-60954819D01*
X59952379Y-60954819D02*
X60047617Y-60907200D01*
X60047617Y-60907200D02*
X60095236Y-60859580D01*
X60095236Y-60859580D02*
X60142855Y-60764342D01*
X60142855Y-60764342D02*
X60142855Y-60478628D01*
X60142855Y-60478628D02*
X60095236Y-60383390D01*
X60095236Y-60383390D02*
X60047617Y-60335771D01*
X60047617Y-60335771D02*
X59952379Y-60288152D01*
X59952379Y-60288152D02*
X59761903Y-60288152D01*
X59761903Y-60288152D02*
X59666665Y-60335771D01*
X59190474Y-60954819D02*
X59190474Y-60288152D01*
X59190474Y-59954819D02*
X59238093Y-60002438D01*
X59238093Y-60002438D02*
X59190474Y-60050057D01*
X59190474Y-60050057D02*
X59142855Y-60002438D01*
X59142855Y-60002438D02*
X59190474Y-59954819D01*
X59190474Y-59954819D02*
X59190474Y-60050057D01*
X58571427Y-60954819D02*
X58666665Y-60907200D01*
X58666665Y-60907200D02*
X58714284Y-60859580D01*
X58714284Y-60859580D02*
X58761903Y-60764342D01*
X58761903Y-60764342D02*
X58761903Y-60478628D01*
X58761903Y-60478628D02*
X58714284Y-60383390D01*
X58714284Y-60383390D02*
X58666665Y-60335771D01*
X58666665Y-60335771D02*
X58571427Y-60288152D01*
X58571427Y-60288152D02*
X58428570Y-60288152D01*
X58428570Y-60288152D02*
X58333332Y-60335771D01*
X58333332Y-60335771D02*
X58285713Y-60383390D01*
X58285713Y-60383390D02*
X58238094Y-60478628D01*
X58238094Y-60478628D02*
X58238094Y-60764342D01*
X58238094Y-60764342D02*
X58285713Y-60859580D01*
X58285713Y-60859580D02*
X58333332Y-60907200D01*
X58333332Y-60907200D02*
X58428570Y-60954819D01*
X58428570Y-60954819D02*
X58571427Y-60954819D01*
X64523808Y-61954819D02*
X63857142Y-62954819D01*
X63857142Y-61954819D02*
X64523808Y-62954819D01*
X63476189Y-62954819D02*
X63476189Y-61954819D01*
X63047618Y-62669104D02*
X62571428Y-62669104D01*
X63142856Y-62954819D02*
X62809523Y-61954819D01*
X62809523Y-61954819D02*
X62476190Y-62954819D01*
X61952380Y-61954819D02*
X61761904Y-61954819D01*
X61761904Y-61954819D02*
X61666666Y-62002438D01*
X61666666Y-62002438D02*
X61571428Y-62097676D01*
X61571428Y-62097676D02*
X61523809Y-62288152D01*
X61523809Y-62288152D02*
X61523809Y-62621485D01*
X61523809Y-62621485D02*
X61571428Y-62811961D01*
X61571428Y-62811961D02*
X61666666Y-62907200D01*
X61666666Y-62907200D02*
X61761904Y-62954819D01*
X61761904Y-62954819D02*
X61952380Y-62954819D01*
X61952380Y-62954819D02*
X62047618Y-62907200D01*
X62047618Y-62907200D02*
X62142856Y-62811961D01*
X62142856Y-62811961D02*
X62190475Y-62621485D01*
X62190475Y-62621485D02*
X62190475Y-62288152D01*
X62190475Y-62288152D02*
X62142856Y-62097676D01*
X62142856Y-62097676D02*
X62047618Y-62002438D01*
X62047618Y-62002438D02*
X61952380Y-61954819D01*
%TO.C,U1*%
D12*
X54100000Y-70500000D02*
X54100000Y-53500000D01*
X56100000Y-51500910D02*
X69900000Y-51500910D01*
X58500000Y-50075970D02*
X58500000Y-57429270D01*
X58500000Y-57429270D02*
X67500000Y-57429270D01*
X67500000Y-50075970D02*
X58500000Y-50075970D01*
X67500000Y-57429270D02*
X67500000Y-50075970D01*
X69900000Y-72500000D02*
X56100000Y-72500000D01*
X71900000Y-53500000D02*
X71900000Y-70500000D01*
D13*
X54100000Y-53500000D02*
G75*
G02*
X56100000Y-51500000I2044610J-44610D01*
G01*
X56100000Y-72500000D02*
G75*
G02*
X54100000Y-70500000I0J2000000D01*
G01*
X69900000Y-51500000D02*
G75*
G02*
X71900000Y-53500000I-44612J-2044612D01*
G01*
X71900000Y-70500000D02*
G75*
G02*
X69900000Y-72500000I-2044857J44857D01*
G01*
D14*
X74127000Y-53200000D02*
G75*
G02*
X73873000Y-53200000I-127000J0D01*
G01*
X73873000Y-53200000D02*
G75*
G02*
X74127000Y-53200000I127000J0D01*
G01*
D15*
X71887715Y-53438295D02*
X71884667Y-53389527D01*
X71880603Y-53340506D01*
X71887715Y-53438295D01*
X54110508Y-70521574D02*
X54112287Y-70570850D01*
X54115335Y-70619618D01*
X54119399Y-70668639D01*
X54124732Y-70717407D01*
X54131336Y-70766175D01*
X54138956Y-70814690D01*
X54147847Y-70862950D01*
X54157752Y-70910955D01*
X54110508Y-70521574D01*
%TD*%
M02*
