M48
; DRILL file KiCad 10.0.3 date 2026-07-21T13:27:21
; FORMAT={-:-/ absolute / metric / decimal}
; #@! TF.CreationDate,2026-07-21T13:27:21-07:00
; #@! TF.GenerationSoftware,Kicad,Pcbnew,10.0.3
; #@! TF.FileFunction,Plated,1,2,PTH
FMAT,2
METRIC
; #@! TA.AperFunction,Plated,PTH,ComponentDrill
T1C0.800
; #@! TA.AperFunction,Plated,PTH,ComponentDrill
T2C1.000
; #@! TA.AperFunction,Plated,PTH,ComponentDrill
T3C1.020
; #@! TA.AperFunction,Plated,PTH,ComponentDrill
T4C1.500
%
G90
G05
T1
X113.0Y-99.87
X113.0Y-105.52
X113.0Y-111.45
X120.62Y-99.87
X120.62Y-105.52
X120.62Y-111.45
X124.28Y-99.57
X124.28Y-105.52
X124.28Y-111.45
X131.9Y-99.57
X131.9Y-105.52
X131.9Y-111.45
T2
X55.375Y-54.38
X55.375Y-56.92
X55.375Y-59.46
X55.375Y-62.0
X55.375Y-64.54
X55.375Y-67.08
X55.375Y-69.62
X70.625Y-54.38
X70.625Y-56.92
X70.625Y-59.46
X70.625Y-62.0
X70.625Y-64.54
X70.625Y-67.08
X70.625Y-69.62
X111.76Y-81.165
X111.76Y-83.665
X111.76Y-86.165
X126.26Y-81.165
X126.26Y-86.165
T3
X77.42Y-54.5
X79.96Y-54.5
X82.5Y-54.5
X85.04Y-54.5
T4
X58.56Y-81.28
X58.56Y-100.33
X64.91Y-78.74
X64.91Y-97.79
X77.61Y-81.28
X77.61Y-100.33
X83.96Y-78.74
X83.96Y-97.79
X96.66Y-81.28
X96.66Y-100.33
X103.01Y-78.74
X103.01Y-97.79
T4
G00X118.61Y-78.065
M15
G01X119.91Y-78.065
M16
G05
G00X118.61Y-89.265
M15
G01X119.91Y-89.265
M16
G05
M30
