%TF.GenerationSoftware,KiCad,Pcbnew,10.0.3*%
%TF.CreationDate,2026-07-21T15:32:11-07:00*%
%TF.ProjectId,Hack_Pad_Gallagher,4861636b-5f50-4616-945f-47616c6c6167,rev?*%
%TF.SameCoordinates,Original*%
%TF.FileFunction,Copper,L1,Top*%
%TF.FilePolarity,Positive*%
%FSLAX46Y46*%
G04 Gerber Fmt 4.6, Leading zero omitted, Abs format (unit mm)*
G04 Created by KiCad (PCBNEW 10.0.3) date 2026-07-21 15:32:11*
%MOMM*%
%LPD*%
G01*
G04 APERTURE LIST*
G04 Aperture macros list*
%AMRoundRect*
0 Rectangle with rounded corners*
0 $1 Rounding radius*
0 $2 $3 $4 $5 $6 $7 $8 $9 X,Y pos of 4 corners*
0 Add a 4 corners polygon primitive as box body*
4,1,4,$2,$3,$4,$5,$6,$7,$8,$9,$2,$3,0*
0 Add four circle primitives for the rounded corners*
1,1,$1+$1,$2,$3*
1,1,$1+$1,$4,$5*
1,1,$1+$1,$6,$7*
1,1,$1+$1,$8,$9*
0 Add four rect primitives between the rounded corners*
20,1,$1+$1,$2,$3,$4,$5,0*
20,1,$1+$1,$4,$5,$6,$7,0*
20,1,$1+$1,$6,$7,$8,$9,0*
20,1,$1+$1,$8,$9,$2,$3,0*%
G04 Aperture macros list end*
%TA.AperFunction,ComponentPad*%
%ADD10RoundRect,0.250000X-0.550000X-0.550000X0.550000X-0.550000X0.550000X0.550000X-0.550000X0.550000X0*%
%TD*%
%TA.AperFunction,ComponentPad*%
%ADD11C,1.600000*%
%TD*%
%TA.AperFunction,ComponentPad*%
%ADD12C,2.200000*%
%TD*%
%TA.AperFunction,ComponentPad*%
%ADD13R,1.730000X2.030000*%
%TD*%
%TA.AperFunction,ComponentPad*%
%ADD14O,1.730000X2.030000*%
%TD*%
%TA.AperFunction,ComponentPad*%
%ADD15R,2.000000X2.000000*%
%TD*%
%TA.AperFunction,ComponentPad*%
%ADD16C,2.000000*%
%TD*%
%TA.AperFunction,ComponentPad*%
%ADD17R,3.200000X2.000000*%
%TD*%
%TA.AperFunction,ComponentPad*%
%ADD18R,3.500000X1.700000*%
%TD*%
%TA.AperFunction,ComponentPad*%
%ADD19O,3.600000X1.700000*%
%TD*%
%TA.AperFunction,ComponentPad*%
%ADD20O,3.700000X1.700000*%
%TD*%
%TA.AperFunction,Conductor*%
%ADD21C,0.200000*%
%TD*%
G04 APERTURE END LIST*
D10*
%TO.P,D1,1,K_1*%
%TO.N,Net-(D1-K)*%
X124280000Y-99570000D03*
D11*
%TO.P,D1,2,A_2*%
%TO.N,Net-(D1-A)*%
X131900000Y-99570000D03*
%TD*%
D12*
%TO.P,SW10,1,1_1*%
%TO.N,Net-(U1-PA11_A3_D3)*%
X64910000Y-97790000D03*
%TO.P,SW10,2,2_2*%
%TO.N,Net-(D5-A)*%
X58560000Y-100330000D03*
%TD*%
%TO.P,SW7,1,1_1*%
%TO.N,Net-(U1-PB08_A6_D6_TX)*%
X64910000Y-78740000D03*
%TO.P,SW7,2,2_2*%
%TO.N,Net-(D4-A)*%
X58560000Y-81280000D03*
%TD*%
D10*
%TO.P,D6,1,K_1*%
%TO.N,Net-(D5-K)*%
X113000000Y-111450000D03*
D11*
%TO.P,D6,2,A_2*%
%TO.N,Net-(D6-A)*%
X120620000Y-111450000D03*
%TD*%
D10*
%TO.P,D5,1,K_1*%
%TO.N,Net-(D5-K)*%
X113000000Y-105520000D03*
D11*
%TO.P,D5,2,A_2*%
%TO.N,Net-(D5-A)*%
X120620000Y-105520000D03*
%TD*%
D10*
%TO.P,D2,1,K_1*%
%TO.N,Net-(D1-K)*%
X124280000Y-105520000D03*
D11*
%TO.P,D2,2,A_2*%
%TO.N,Net-(D2-A)*%
X131900000Y-105520000D03*
%TD*%
D12*
%TO.P,SW4,1,1_1*%
%TO.N,Net-(U1-PA11_A3_D3)*%
X83960000Y-78740000D03*
%TO.P,SW4,2,2_2*%
%TO.N,Net-(D1-A)*%
X77610000Y-81280000D03*
%TD*%
D13*
%TO.P,J1,1,Pin_1_1*%
%TO.N,GND*%
X77420000Y-54500000D03*
D14*
%TO.P,J1,2,Pin_2_2*%
%TO.N,Net-(J1-Pin_2)*%
X79960000Y-54500000D03*
%TO.P,J1,3,Pin_3_3*%
%TO.N,Net-(J1-Pin_3)*%
X82500000Y-54500000D03*
%TO.P,J1,4,Pin_4_4*%
%TO.N,Net-(J1-Pin_4)*%
X85040000Y-54500000D03*
%TD*%
D15*
%TO.P,SW1,A,A_A*%
%TO.N,Net-(U1-PA5_A9_D9_MISO)*%
X111760000Y-81165000D03*
D16*
%TO.P,SW1,B,B_B*%
%TO.N,Net-(U1-PA7_A8_D8_SCK)*%
X111760000Y-86165000D03*
%TO.P,SW1,C,C_C*%
%TO.N,GND*%
X111760000Y-83665000D03*
D17*
%TO.P,SW1,MP*%
%TO.N,N/C*%
X119260000Y-78065000D03*
X119260000Y-89265000D03*
D16*
%TO.P,SW1,S1,S1_S1*%
%TO.N,GND*%
X126260000Y-86165000D03*
%TO.P,SW1,S2,S2_S2*%
%TO.N,Net-(U1-PA6_A10_D10_MOSI)*%
X126260000Y-81165000D03*
%TD*%
D10*
%TO.P,D4,1,K_1*%
%TO.N,Net-(D3-K)*%
X113000000Y-99870000D03*
D11*
%TO.P,D4,2,A_2*%
%TO.N,Net-(D4-A)*%
X120620000Y-99870000D03*
%TD*%
D12*
%TO.P,SW9,1,1_1*%
%TO.N,Net-(U1-PB08_A6_D6_TX)*%
X103010000Y-97790000D03*
%TO.P,SW9,2,2_2*%
%TO.N,Net-(D6-A)*%
X96660000Y-100330000D03*
%TD*%
%TO.P,SW6,1,1_1*%
%TO.N,Net-(U1-PB08_A6_D6_TX)*%
X103010000Y-78740000D03*
%TO.P,SW6,2,2_2*%
%TO.N,Net-(D2-A)*%
X96660000Y-81280000D03*
%TD*%
%TO.P,SW8,1,1_1*%
%TO.N,Net-(U1-PA11_A3_D3)*%
X83960000Y-97790000D03*
%TO.P,SW8,2,2_2*%
%TO.N,Net-(D3-A)*%
X77610000Y-100330000D03*
%TD*%
D10*
%TO.P,D3,1,K_1*%
%TO.N,Net-(D3-K)*%
X124280000Y-111450000D03*
D11*
%TO.P,D3,2,A_2*%
%TO.N,Net-(D3-A)*%
X131900000Y-111450000D03*
%TD*%
D18*
%TO.P,U1,1,PA02_A0_D0_1*%
%TO.N,Net-(D1-K)*%
X71625000Y-54380000D03*
D19*
%TO.P,U1,2,PA4_A1_D1_2*%
%TO.N,Net-(D3-K)*%
X71625000Y-56920000D03*
%TO.P,U1,3,PA10_A2_D2_3*%
%TO.N,Net-(D5-K)*%
X71625000Y-59460000D03*
%TO.P,U1,4,PA11_A3_D3_4*%
%TO.N,Net-(U1-PA11_A3_D3)*%
X71625000Y-62000000D03*
%TO.P,U1,5,PA8_A4_D4_SDA_5*%
%TO.N,Net-(J1-Pin_4)*%
X71625000Y-64540000D03*
%TO.P,U1,6,PA9_A5_D5_SCL_6*%
%TO.N,Net-(J1-Pin_3)*%
X71625000Y-67080000D03*
%TO.P,U1,7,PB08_A6_D6_TX_7*%
%TO.N,Net-(U1-PB08_A6_D6_TX)*%
X71625000Y-69620000D03*
%TO.P,U1,8,PB09_A7_D7_RX_8*%
%TO.N,unconnected-(U1-PB09_A7_D7_RX-Pad8)*%
X54375000Y-69620000D03*
%TO.P,U1,9,PA7_A8_D8_SCK_9*%
%TO.N,Net-(U1-PA7_A8_D8_SCK)*%
X54375000Y-67080000D03*
%TO.P,U1,10,PA5_A9_D9_MISO_10*%
%TO.N,Net-(U1-PA5_A9_D9_MISO)*%
X54375000Y-64540000D03*
D20*
%TO.P,U1,11,PA6_A10_D10_MOSI_11*%
%TO.N,Net-(U1-PA6_A10_D10_MOSI)*%
X54375000Y-62000000D03*
%TO.P,U1,12,3V3_12*%
%TO.N,Net-(J1-Pin_2)*%
X54375000Y-59460000D03*
%TO.P,U1,13,GND_13*%
%TO.N,GND*%
X54375000Y-56920000D03*
%TO.P,U1,14,5V_14*%
%TO.N,unconnected-(U1-5V-Pad14)*%
X54375000Y-54380000D03*
%TD*%
%TO.N,GND*%
D21*
X52898654Y-53230000D02*
X76150000Y-53230000D01*
X89844113Y-72184214D02*
X83820100Y-72184214D01*
X113060000Y-84965000D02*
X113060000Y-86703478D01*
X64164415Y-80540000D02*
X63110000Y-79485584D01*
X55801346Y-68230000D02*
X52948654Y-68230000D01*
X63110000Y-75538654D02*
X55801346Y-68230000D01*
X83820100Y-72184214D02*
X75464314Y-80540000D01*
X51825000Y-54303654D02*
X52898654Y-53230000D01*
X111760000Y-83665000D02*
X113060000Y-84965000D01*
X126260000Y-86165000D02*
X123760000Y-83665000D01*
X75464314Y-80540000D02*
X64164415Y-80540000D01*
X113060000Y-86703478D02*
X112298478Y-87465000D01*
X98789899Y-81130000D02*
X89844113Y-72184214D01*
X63110000Y-79485584D02*
X63110000Y-75538654D01*
X123760000Y-83665000D02*
X111760000Y-83665000D01*
X104886522Y-81130000D02*
X98789899Y-81130000D01*
X76150000Y-53230000D02*
X77420000Y-54500000D01*
X112298478Y-87465000D02*
X111221522Y-87465000D01*
X51825000Y-67106346D02*
X51825000Y-54303654D01*
X52948654Y-68230000D02*
X51825000Y-67106346D01*
X111221522Y-87465000D02*
X104886522Y-81130000D01*
%TO.N,Net-(U1-PA7_A8_D8_SCK)*%
X102410000Y-80444315D02*
X101990000Y-80024315D01*
X63510000Y-75215000D02*
X55375000Y-67080000D01*
X101990000Y-80024315D02*
X101990000Y-79699899D01*
X63510000Y-79319899D02*
X63510000Y-75215000D01*
X101990000Y-79699899D02*
X92310101Y-70020000D01*
X85418629Y-70020000D02*
X75298629Y-80140000D01*
X106039315Y-80444315D02*
X102410000Y-80444315D01*
X64330101Y-80140000D02*
X63510000Y-79319899D01*
X111760000Y-86165000D02*
X111760000Y-85510101D01*
X111760000Y-86165000D02*
X106039315Y-80444315D01*
X75298629Y-80140000D02*
X64330101Y-80140000D01*
X54338654Y-67080000D02*
X55375000Y-67080000D01*
X92310101Y-70020000D02*
X85418629Y-70020000D01*
%TO.N,Net-(U1-PA5_A9_D9_MISO)*%
X73051346Y-68470000D02*
X59305000Y-68470000D01*
X59305000Y-68470000D02*
X55375000Y-64540000D01*
X99738654Y-69143654D02*
X73725000Y-69143654D01*
X73725000Y-69143654D02*
X73051346Y-68470000D01*
X111760000Y-81165000D02*
X99738654Y-69143654D01*
%TO.N,Net-(U1-PA11_A3_D3)*%
X64910000Y-97790000D02*
X83960000Y-97790000D01*
X83960000Y-97790000D02*
X83960000Y-78740000D01*
%TO.N,Net-(D5-A)*%
X58560000Y-102442944D02*
X58560000Y-100330000D01*
X121720000Y-106620000D02*
X121720000Y-111905635D01*
X120620000Y-105520000D02*
X121720000Y-106620000D01*
X69067056Y-112950000D02*
X58560000Y-102442944D01*
X121720000Y-111905635D02*
X120675635Y-112950000D01*
X120675635Y-112950000D02*
X69067056Y-112950000D01*
%TO.N,Net-(D5-K)*%
X94310686Y-63150000D02*
X70198654Y-63150000D01*
X69525000Y-62476346D02*
X69525000Y-60560000D01*
X113000000Y-111450000D02*
X113000000Y-105520000D01*
X127560000Y-90960000D02*
X127560000Y-85626522D01*
X127560000Y-85626522D02*
X121798478Y-79865000D01*
X113000000Y-105520000D02*
X127560000Y-90960000D01*
X70198654Y-63150000D02*
X69525000Y-62476346D01*
X111025686Y-79865000D02*
X94310686Y-63150000D01*
X69525000Y-60560000D02*
X70625000Y-59460000D01*
X121798478Y-79865000D02*
X111025686Y-79865000D01*
%TO.N,Net-(D6-A)*%
X109470000Y-112550000D02*
X109470000Y-108546598D01*
X120620000Y-111450000D02*
X119520000Y-112550000D01*
X109470000Y-108546598D02*
X101253402Y-100330000D01*
X119520000Y-112550000D02*
X109470000Y-112550000D01*
X101253402Y-100330000D02*
X96660000Y-100330000D01*
%TO.N,Net-(U1-PB08_A6_D6_TX)*%
X64910000Y-75335000D02*
X70625000Y-69620000D01*
X70625000Y-69620000D02*
X93890000Y-69620000D01*
X64910000Y-78740000D02*
X64910000Y-75335000D01*
X93890000Y-69620000D02*
X103010000Y-78740000D01*
%TD*%
M02*
